<?xml version="1.0" standalone="no"?>
<!DOCTYPE svg PUBLIC "-//W3C//DTD SVG 1.1//EN" "http://www.w3.org/Graphics/SVG/1.1/DTD/svg11.dtd" >
<svg xmlns="http://www.w3.org/2000/svg" xmlns:xlink="http://www.w3.org/1999/xlink" version="1.1">
<metadata>
Created by FontForge 20170731 at Thu Jun 10 16:22:21 2021
 By Aleksey,,,
Copyright 2018 IBM Corp. All rights reserved.
</metadata>
<defs>
<font id="IBMPlexSans-ThinItalic" horiz-adv-x="600" >
  <font-face 
    font-family="IBM Plex Sans Thin"
    font-weight="100"
    font-style="italic"
    font-stretch="normal"
    units-per-em="1000"
    panose-1="2 11 2 3 5 2 3 0 2 3"
    ascent="780"
    descent="-220"
    x-height="506"
    cap-height="698"
    bbox="-218 -212 1147 1089"
    underline-thickness="16"
    underline-position="-208"
    slope="-11"
    unicode-range="U+000D-FB02"
  />
<missing-glyph horiz-adv-x="472" 
d="M32 0v780h408v-780h-408zM48 16h376v748h-376v-748z" />
    <glyph glyph-name="fi" unicode="fi" horiz-adv-x="514" 
d="M73 506h100l39 201q4 20 12 26.5t29 6.5h92l-4 -19h-105l-42 -215h261l-98 -487h85l-4 -19h-76q-11 0 -17.5 4t-6.5 17q0 6 3 22t5 27l84 417h-240l-129 -654q-4 -20 -12 -26.5t-29 -6.5h-82l4 19h95l132 668h-100zM479 673q-11 0 -15.5 5t-4.5 11q0 3 0.5 6t1.5 8
q2 9 8 14t19 5q11 0 15.5 -5t4.5 -11q0 -3 -0.5 -6t-1.5 -8q-2 -9 -8 -14t-19 -5z" />
    <glyph glyph-name=".notdef" horiz-adv-x="472" 
d="M32 0v780h408v-780h-408zM48 16h376v748h-376v-748z" />
    <glyph glyph-name=".null" horiz-adv-x="0" 
 />
    <glyph glyph-name=".null" horiz-adv-x="0" 
 />
    <glyph glyph-name="uni000D" unicode="&#xd;" horiz-adv-x="236" 
 />
    <glyph glyph-name="space" unicode=" " horiz-adv-x="236" 
 />
    <glyph glyph-name="exclam" unicode="!" horiz-adv-x="247" 
d="M102 176l43 239l56 283h22l-56 -283l-53 -239h-12zM75 -5q-15 0 -20.5 6t-5.5 13q0 4 1 9.5t2 8.5q2 8 8 14.5t21 6.5q14 0 19.5 -6t5.5 -13q0 -4 -1 -9.5t-2 -8.5q-2 -8 -7.5 -14.5t-20.5 -6.5z" />
    <glyph glyph-name="quotedbl" unicode="&#x22;" horiz-adv-x="373" 
d="M147 490l50 250h20l-50 -250h-20zM300 490l50 250h20l-50 -250h-20z" />
    <glyph glyph-name="numbersign" unicode="#" horiz-adv-x="710" 
d="M400 220h-186l-82 -220h-21l82 220h-149l4 19h153l81 220h-151l4 19h154l82 220h21l-82 -220h186l82 220h21l-82 -220h149l-4 -19h-153l-81 -220h151l-4 -19h-154l-82 -220h-21zM407 239l82 220h-186l-82 -220h186z" />
    <glyph glyph-name="dollar" unicode="$" horiz-adv-x="536" 
d="M210 1q-75 5 -121 34.5t-75 77.5l18 13q27 -46 69.5 -73.5t111.5 -31.5l66 327l-37 10q-68 18 -100 56t-32 99q0 37 13.5 71t41 59t69 40t97.5 15h18l16 82h20l-17 -83q34 -3 58.5 -10.5t43.5 -19.5t33 -29t25 -38l-18 -11q-24 43 -56 63.5t-90 24.5l-62 -315l31 -8
q136 -35 136 -153q0 -41 -13.5 -77.5t-41.5 -64t-72 -43.5t-104 -16h-9l-16 -82h-20zM298 344l-65 -324h6q56 0 95.5 14.5t64.5 39.5t36.5 58t11.5 69q0 55 -28 86.5t-91 48.5zM132 513q0 -56 27.5 -88.5t88.5 -48.5l35 -9l62 311h-15q-51 0 -88.5 -13.5t-62 -36t-36 -52.5
t-11.5 -63z" />
    <glyph glyph-name="percent" unicode="%" horiz-adv-x="883" 
d="M147 0l605 698h24l-605 -698h-24zM240 327q-28 0 -49.5 10t-36.5 28t-22.5 42t-7.5 52q0 39 8.5 83t29 81.5t55 62t85.5 24.5q28 0 49.5 -10t36.5 -28t22.5 -42t7.5 -52q0 -39 -8.5 -83t-29 -81.5t-55 -62t-85.5 -24.5zM241 344q58 0 95 39.5t52 111.5l7 33q2 12 3 24.5
t1 24.5q0 24 -6 45t-18 36.5t-30.5 25t-43.5 9.5q-58 0 -95 -39.5t-52 -111.5l-7 -33q-2 -12 -3 -24.5t-1 -24.5q0 -24 5.5 -45t17.5 -36.5t30.5 -25t44.5 -9.5zM619 -12q-28 0 -49.5 10t-36.5 28t-22.5 42t-7.5 52q0 39 8.5 83t29 81.5t55 62t85.5 24.5q28 0 49.5 -10
t36.5 -28t22.5 -42t7.5 -52q0 -39 -8.5 -83t-29 -81.5t-55 -62t-85.5 -24.5zM620 5q58 0 95 39.5t52 111.5l7 33q2 12 3 24.5t1 24.5q0 24 -6 45t-18 36.5t-30.5 25t-43.5 9.5q-58 0 -95 -39.5t-52 -111.5l-7 -33q-2 -12 -3 -24.5t-1 -24.5q0 -24 5.5 -45t17.5 -36.5
t30.5 -25t44.5 -9.5z" />
    <glyph glyph-name="ampersand" unicode="&#x26;" horiz-adv-x="677" 
d="M471 115q-42 -55 -105.5 -91t-136.5 -36q-40 0 -73 9t-57 27.5t-37 46t-13 65.5q0 30 10 60t34.5 59t66 59t104.5 60q-40 52 -53 88t-13 62q0 38 13 72t37.5 59.5t60.5 40t82 14.5q70 0 107 -33t37 -84q0 -33 -11 -59t-38.5 -51t-74 -52.5t-117.5 -62.5l177 -221
q26 41 44.5 95.5t29.5 108.5h109l-4 -20h-90q-11 -54 -30.5 -105.5t-46.5 -93.5l106 -132h-26zM387 691q-65 0 -107 -34t-53 -88q-4 -19 -5.5 -28.5t-1.5 -16.5q0 -23 11.5 -56.5t50.5 -84.5q67 32 111.5 57.5t71 49.5t37.5 48t11 54q0 48 -32.5 73.5t-93.5 25.5zM276 359
q-53 -26 -89 -49t-59.5 -46.5t-36 -48t-17.5 -53.5q-2 -8 -2.5 -14.5t-0.5 -14.5q0 -65 44.5 -95t117.5 -30q70 0 128.5 34t97.5 88z" />
    <glyph glyph-name="quotesingle" unicode="'" horiz-adv-x="220" 
d="M147 490l50 250h20l-50 -250h-20z" />
    <glyph glyph-name="parenleft" unicode="(" horiz-adv-x="330" 
d="M108 232q0 83 21 161.5t57 147.5t84 125t102 94h26q-47 -33 -89 -76.5t-75.5 -96t-58 -112t-35.5 -122.5l-6 -34q-4 -23 -5.5 -44t-1.5 -43q0 -112 28.5 -203.5t91.5 -166.5h-21q-54 65 -86 158.5t-32 211.5z" />
    <glyph glyph-name="parenright" unicode=")" horiz-adv-x="330" 
d="M241 390q0 -83 -21 -161.5t-57 -147.5t-84 -125t-102 -94h-26q47 33 89 76.5t75.5 96t58 112t35.5 122.5l6 34q4 23 5.5 44t1.5 43q0 112 -28.5 203.5t-91.5 166.5h21q54 -65 86 -158.5t32 -211.5z" />
    <glyph glyph-name="asterisk" unicode="*" horiz-adv-x="363" 
d="M126 436l-15 11l119 129l-138 45l8 19l139 -49l29 156h20l-31 -157l156 50l5 -19l-158 -47l68 -128l-16 -10l-68 129z" />
    <glyph glyph-name="plus" unicode="+" 
d="M251 62l47 234h-228l4 19h228l47 234h21l-47 -234h228l-4 -19h-228l-47 -234h-21z" />
    <glyph glyph-name="comma" unicode="," horiz-adv-x="240" 
d="M77 53q14 0 19.5 -6t5.5 -13q0 -4 -1 -10t-2 -9q-5 -20 -15 -42.5t-24.5 -44t-31.5 -41t-36 -34.5h-21q45 38 69 76t32 66q-17 0 -22 6t-5 13q0 4 1 9.5t2 8.5q2 8 8 14.5t21 6.5z" />
    <glyph glyph-name="hyphen" unicode="-" horiz-adv-x="388" 
d="M88 295l4 20h229l-4 -20h-229z" />
    <glyph glyph-name="period" unicode="." horiz-adv-x="240" 
d="M71 -5q-15 0 -20.5 6t-5.5 13q0 4 1 9.5t2 8.5q2 8 8 14.5t21 6.5q14 0 19.5 -6t5.5 -13q0 -4 -1 -9.5t-2 -8.5q-2 -8 -7.5 -14.5t-20.5 -6.5z" />
    <glyph glyph-name="slash" unicode="/" horiz-adv-x="301" 
d="M-77 -151l426 891h20l-426 -891h-20z" />
    <glyph glyph-name="zero" unicode="0" 
d="M254 -12q-179 0 -179 231q0 50 7 105.5t22.5 110t39.5 104.5t57.5 88t77.5 60.5t99 22.5q179 0 179 -231q0 -50 -7 -105.5t-22.5 -110t-39.5 -104.5t-57.5 -88t-77.5 -60.5t-99 -22.5zM254 8q96 0 163 77.5t96 222.5l12 59q6 30 8.5 58t2.5 54q0 100 -35.5 155.5
t-122.5 55.5q-96 0 -163 -77.5t-96 -222.5l-12 -59q-6 -30 -8.5 -58t-2.5 -54q0 -100 35.5 -155.5t122.5 -55.5z" />
    <glyph glyph-name="one" unicode="1" 
d="M48 0l4 20h219l131 662h-3l-250 -181l-11 16l251 181h39l-135 -678h211l-4 -20h-452z" />
    <glyph glyph-name="two" unicode="2" 
d="M467 0h-434l5 24l329 278q56 46 93.5 93t47.5 95q7 31 8 44.5t1 21.5q0 59 -36 96.5t-113 37.5q-73 0 -123 -33t-80 -106l-19 6q31 79 87 116t137 37q43 0 74.5 -12t52.5 -32.5t31 -48.5t10 -61q0 -39 -9 -72.5t-28 -65.5t-48.5 -63.5t-69.5 -65.5l-320 -269h407z" />
    <glyph glyph-name="three" unicode="3" 
d="M305 376q81 0 133 35t66 101q5 20 6 29t1 17q0 62 -40.5 97t-110.5 35t-114 -24t-74 -76l-18 9q29 53 79.5 82t129.5 29q36 0 67.5 -10t54 -29.5t35.5 -47t13 -63.5q0 -81 -46 -131.5t-125 -62.5l-1 -3q52 -7 86 -46.5t34 -100.5q0 -53 -17.5 -95t-48.5 -71.5
t-74.5 -45.5t-95.5 -16q-74 0 -127.5 25.5t-77.5 81.5l17 10q23 -52 70 -74.5t119 -22.5q82 0 136.5 41t68.5 111q5 26 6.5 37.5t1.5 18.5q0 63 -39 101.5t-118 38.5h-95l4 20h94z" />
    <glyph glyph-name="four" unicode="4" 
d="M358 0l32 160h-365l4 21l461 517h29l-104 -519h117l-4 -19h-117l-32 -160h-21zM53 179h341l98 491h-3z" />
    <glyph glyph-name="five" unicode="5" 
d="M572 678h-324l-90 -334l3 -1q34 38 74 54t94 16q88 0 132 -44.5t44 -123.5q0 -60 -18 -108t-50 -81t-77 -50.5t-100 -17.5q-33 0 -64 6.5t-57 19.5t-46 33t-32 48l17 10q12 -27 31 -45.5t43 -30t51 -16.5t56 -5q94 0 147 46t68 124q6 30 7.5 44t1.5 23q0 69 -37.5 108.5
t-117.5 39.5q-59 0 -96.5 -17.5t-74.5 -52.5l-24 3l100 372h342z" />
    <glyph glyph-name="six" unicode="6" 
d="M267 -12q-48 0 -82 13t-56.5 37t-33 57t-10.5 73q0 81 29 157.5t79 145t118.5 126.5t148.5 101h34q-75 -42 -133.5 -86.5t-103.5 -93.5t-77.5 -103.5t-54.5 -117.5l3 -1q35 66 91 93t120 27q82 0 130.5 -45.5t48.5 -125.5q0 -54 -18.5 -101t-52 -81.5t-79.5 -54.5
t-101 -20zM266 8q44 0 82 13.5t67 37t48 55.5t25 69q5 30 6.5 42t1.5 20q0 67 -39 109t-121 42q-44 0 -81.5 -13.5t-66 -37t-48 -55.5t-26.5 -69q-5 -29 -6.5 -41t-1.5 -20q0 -67 39 -109.5t121 -42.5z" />
    <glyph glyph-name="seven" unicode="7" 
d="M144 0l435 678h-389l-33 -166h-21l37 186h435l-4 -20l-435 -678h-25z" />
    <glyph glyph-name="eight" unicode="8" 
d="M245 -12q-96 0 -147 45.5t-51 120.5q0 42 14 78t40 63.5t61.5 46t79.5 25.5v4q-103 26 -103 135q0 46 17.5 83.5t48.5 64.5t73.5 41.5t93.5 14.5q87 0 134 -40t47 -109q0 -38 -12.5 -70.5t-34 -58t-51.5 -42.5t-66 -24l-1 -4q118 -32 118 -153q0 -49 -19.5 -89.5
t-54.5 -70t-82.5 -45.5t-104.5 -16zM246 8q45 0 84.5 11t70 31.5t50.5 49.5t26 64q5 25 6 34t1 16q0 63 -45.5 102.5t-131.5 39.5q-45 0 -84.5 -11.5t-69.5 -32t-50 -49t-27 -63.5q-5 -26 -5.5 -34.5t-0.5 -15.5q0 -63 45 -102.5t131 -39.5zM322 376q82 0 135.5 37.5
t65.5 102.5q5 24 6 33.5t1 15.5q0 58 -41 91.5t-119 33.5q-82 0 -135.5 -37.5t-66.5 -102.5q-5 -24 -5.5 -33.5t-0.5 -15.5q0 -58 41 -91.5t119 -33.5z" />
    <glyph glyph-name="nine" unicode="9" 
d="M547 530q0 -81 -29 -157.5t-79 -145t-119 -126.5t-148 -101h-34q75 42 133.5 86.5t103.5 93.5t77 103.5t55 117.5l-3 1q-35 -66 -91 -93t-120 -27q-82 0 -130.5 45.5t-48.5 125.5q0 54 18.5 101t52 81.5t79.5 54.5t101 20q48 0 82 -13t56.5 -37t33 -57t10.5 -73zM296 302
q44 0 82 13.5t66.5 37t47.5 55.5t26 69q5 29 6.5 41.5t1.5 20.5q0 67 -39 109t-121 42q-44 0 -82 -13.5t-67 -36.5t-48 -55.5t-25 -69.5q-5 -29 -6.5 -41.5t-1.5 -20.5q0 -67 39 -109t121 -42z" />
    <glyph glyph-name="colon" unicode=":" horiz-adv-x="260" 
d="M81 -5q-15 0 -20.5 6t-5.5 13q0 4 1 9.5t2 8.5q2 8 8 14.5t21 6.5q14 0 19.5 -6t5.5 -13q0 -4 -1 -9.5t-2 -8.5q-2 -8 -7.5 -14.5t-20.5 -6.5zM174 453q-15 0 -20.5 6t-5.5 13q0 4 1 9.5t2 8.5q2 8 8 14.5t21 6.5q14 0 19.5 -6t5.5 -13q0 -4 -1 -9.5t-2 -8.5
q-2 -8 -7.5 -14.5t-20.5 -6.5z" />
    <glyph glyph-name="semicolon" unicode=";" horiz-adv-x="260" 
d="M87 53q14 0 19.5 -6t5.5 -13q0 -4 -1 -10t-2 -9q-5 -20 -15 -42.5t-24.5 -44t-31.5 -41t-36 -34.5h-21q45 38 69 76t32 66q-17 0 -22 6t-5 13q0 4 1 9.5t2 8.5q2 8 8 14.5t21 6.5zM174 453q-15 0 -20.5 6t-5.5 13q0 4 1 9.5t2 8.5q2 8 8 14.5t21 6.5q14 0 19.5 -6
t5.5 -13q0 -4 -1 -9.5t-2 -8.5q-2 -8 -7.5 -14.5t-20.5 -6.5z" />
    <glyph glyph-name="less" unicode="&#x3c;" 
d="M96 296l4 18l481 258l-4 -25l-456 -243v-2l358 -243l-4 -21z" />
    <glyph glyph-name="equal" unicode="=" 
d="M78 385l4 19h476l-4 -19h-476zM42 207l4 19h476l-4 -19h-476z" />
    <glyph glyph-name="greater" unicode="&#x3e;" 
d="M43 63l456 243v2l-358 243l4 21l379 -258l-4 -18l-481 -258z" />
    <glyph glyph-name="question" unicode="?" horiz-adv-x="453" 
d="M179 176l33 173q109 8 164 47t66 112q2 11 3.5 25t1.5 21q0 64 -38 100.5t-110 36.5q-75 0 -118.5 -36.5t-70.5 -100.5l-19 6q27 69 77.5 109.5t131.5 40.5q78 0 123.5 -42.5t45.5 -113.5q0 -95 -57.5 -153.5t-180.5 -69.5l-30 -155h-22zM157 -5q-15 0 -20.5 6t-5.5 13
q0 4 1 9.5t2 8.5q2 8 8 14.5t21 6.5q14 0 19.5 -6t5.5 -13q0 -4 -1 -9.5t-2 -8.5q-2 -8 -7.5 -14.5t-20.5 -6.5z" />
    <glyph glyph-name="at" unicode="@" horiz-adv-x="880" 
d="M364 -121q-69 0 -124 20.5t-93.5 59.5t-59.5 96t-21 131q0 52 12 114q19 93 60.5 168.5t101 129t134 83t158.5 29.5q65 0 120.5 -19t96 -56.5t63 -93t22.5 -127.5q0 -22 -2.5 -45t-7.5 -49q-9 -54 -26.5 -99.5t-42 -79.5t-56 -53t-69.5 -19q-36 0 -57 19t-21 50v12h-3
q-10 -14 -24.5 -28.5t-33.5 -26t-42.5 -19t-50.5 -7.5q-66 0 -101.5 37.5t-35.5 103.5q0 17 2 36.5t6 40.5q20 113 76.5 167t140.5 54q48 0 80 -25t39 -57h3l13 70h20l-66 -333q-2 -7 -2 -13v-12q0 -24 15.5 -37.5t44.5 -13.5q54 0 99.5 54t64.5 154l9 47q4 20 6 37t2 35
q0 67 -21 118.5t-58.5 87t-90 54t-116.5 18.5q-76 0 -145.5 -28t-125.5 -77.5t-95.5 -116t-55.5 -144.5l-11 -52q-10 -46 -10 -88q0 -68 20 -122t57 -91t89 -56.5t116 -19.5h236l-3 -18h-236zM401 87q27 0 54 10t49.5 27.5t38.5 40t21 47.5l30 150q6 28 -0.5 52t-22 40.5
t-38.5 26t-51 9.5q-73 0 -121.5 -49t-65.5 -135l-7 -38q-6 -32 -6 -58q0 -57 29.5 -90t89.5 -33z" />
    <glyph glyph-name="A" unicode="A" horiz-adv-x="594" 
d="M497 0l-45 234h-318l-122 -234h-24l366 698h30l135 -698h-22zM367 673h-3l-220 -420h304z" />
    <glyph glyph-name="B" unicode="B" horiz-adv-x="606" 
d="M193 698h221q72 0 111 -35.5t39 -101.5q0 -31 -6 -61.5t-21.5 -57t-41.5 -45.5t-66 -27v-3q50 -11 76 -49.5t26 -89.5q0 -109 -56 -168.5t-154 -59.5h-266zM323 20q78 0 121.5 39.5t55.5 99.5q6 29 7.5 45t1.5 24q0 26 -7.5 49.5t-24 41.5t-41.5 28.5t-59 10.5h-229
l-67 -338h242zM367 378q71 0 113 31t53 86q6 32 7.5 45.5t1.5 21.5q0 53 -30 84.5t-99 31.5h-202l-59 -300h215z" />
    <glyph glyph-name="C" unicode="C" horiz-adv-x="595" 
d="M291 -12q-50 0 -90.5 15t-70 44.5t-45.5 72.5t-16 100q0 49 7.5 105t24.5 110t42.5 104t62.5 88t84.5 60.5t107.5 22.5q84 0 129 -38t62 -103l-21 -5q-8 28 -21 51.5t-33.5 40t-49 25.5t-67.5 9q-53 0 -99 -21.5t-83 -61.5t-63 -96.5t-40 -126.5l-11 -55q-6 -32 -8 -60
t-2 -49q0 -98 51.5 -155t148.5 -57q70 0 119.5 35.5t89.5 107.5l19 -10q-47 -82 -101 -117.5t-127 -35.5z" />
    <glyph glyph-name="D" unicode="D" horiz-adv-x="648" 
d="M193 698h185q115 0 173.5 -60.5t58.5 -169.5q0 -85 -19 -169t-59.5 -150.5t-102.5 -107.5t-147 -41h-227zM282 20q59 0 106.5 22.5t83.5 61.5t59.5 90.5t35.5 108.5l11 55q6 32 8 60.5t2 49.5q0 97 -52.5 153.5t-160.5 56.5h-164l-130 -658h201z" />
    <glyph glyph-name="E" unicode="E" horiz-adv-x="553" 
d="M54 0l140 698h378l-4 -20h-356l-63 -314h344l-4 -20h-344l-65 -324h356l-4 -20h-378z" />
    <glyph glyph-name="F" unicode="F" horiz-adv-x="528" 
d="M54 0l140 698h370l-4 -20h-348l-63 -314h334l-4 -20h-334l-69 -344h-22z" />
    <glyph glyph-name="G" unicode="G" horiz-adv-x="660" 
d="M525 114h-3q-39 -66 -97 -96t-130 -30q-50 0 -91.5 15t-71.5 44.5t-46.5 72.5t-16.5 100q0 49 7.5 105t24 110t43 104t63.5 88t85.5 60.5t110.5 22.5q91 0 140 -37.5t67 -103.5l-21 -5q-17 58 -59.5 92t-127.5 34q-55 0 -102 -21.5t-84 -61.5t-63.5 -96.5t-40.5 -126.5
l-11 -55q-6 -32 -8 -60t-2 -49q0 -98 52 -155t152 -57q40 0 79.5 11.5t73 35.5t58 61t35.5 89l22 107h-176l4 20h198l-66 -332h-21z" />
    <glyph glyph-name="H" unicode="H" horiz-adv-x="680" 
d="M571 344h-426l-69 -344h-22l140 698h22l-67 -334h426l67 334h22l-140 -698h-22z" />
    <glyph glyph-name="I" unicode="I" horiz-adv-x="368" 
d="M15 0l4 19h107l132 660h-107l4 19h236l-4 -19h-107l-132 -660h107l-4 -19h-236z" />
    <glyph glyph-name="J" unicode="J" horiz-adv-x="455" 
d="M446 698l-103 -520q-18 -92 -70.5 -141t-130.5 -49q-73 0 -112 36.5t-44 93.5l20 5q6 -58 41.5 -86.5t94.5 -28.5q72 0 117.5 45.5t62.5 130.5l99 494h-246l3 20h268z" />
    <glyph glyph-name="K" unicode="K" horiz-adv-x="564" 
d="M290 388l-165 -151l-49 -237h-22l140 698h22l-85 -427h3l166 152l304 275h29l-326 -296l190 -402h-23z" />
    <glyph glyph-name="L" unicode="L" horiz-adv-x="468" 
d="M54 0l140 698h22l-136 -678h325l-4 -20h-347z" />
    <glyph glyph-name="M" unicode="M" horiz-adv-x="780" 
d="M738 673h-3l-349 -437l-173 437h-3l-135 -673h-21l140 698h32l166 -420h3l334 420h35l-140 -698h-21z" />
    <glyph glyph-name="N" unicode="N" horiz-adv-x="680" 
d="M212 671h-3l-134 -671h-21l140 698h30l282 -671h3l134 671h21l-140 -698h-30z" />
    <glyph glyph-name="O" unicode="O" horiz-adv-x="658" 
d="M291 -12q-50 0 -90.5 15t-70 44.5t-45.5 72.5t-16 100q0 49 7.5 105t24 110t43 104t63 88t85 60.5t109.5 22.5q49 0 90 -15t70.5 -44.5t45.5 -72.5t16 -100q0 -49 -7.5 -105t-24 -110t-43 -104t-63 -88t-85 -60.5t-109.5 -22.5zM291 8q54 0 101 21.5t84 61.5t63.5 96.5
t40.5 126.5l11 55q6 32 8 60t2 49q0 98 -51.5 155t-148.5 57q-54 0 -101 -21.5t-84 -61.5t-63.5 -96.5t-40.5 -126.5l-11 -55q-6 -32 -8 -60t-2 -49q0 -98 51.5 -155t148.5 -57z" />
    <glyph glyph-name="P" unicode="P" horiz-adv-x="582" 
d="M54 0l140 698h251q73 0 112 -42t39 -106q0 -109 -56 -168.5t-154 -59.5h-245l-65 -322h-22zM145 342h243q78 0 121.5 39.5t55.5 99.5q6 29 7.5 45t1.5 24q0 26 -7.5 49.5t-23.5 41t-41 27.5t-59 10h-232z" />
    <glyph glyph-name="Q" unicode="Q" horiz-adv-x="658" 
d="M283 -12l-26 -114h104l-4 -20h-98q-13 0 -18 5t-5 13q0 7 5 29l20 89q-87 8 -139.5 66.5t-52.5 163.5q0 49 7.5 105t24 110t43 104t63 88t85 60.5t109.5 22.5q49 0 90 -15t70.5 -44.5t45.5 -72.5t16 -100q0 -49 -7.5 -105t-24 -110t-43 -104t-63 -88t-85 -60.5
t-109.5 -22.5h-8zM291 8q54 0 101 21.5t84 61.5t63.5 96.5t40.5 126.5l11 55q6 32 8 60t2 49q0 98 -51.5 155t-148.5 57q-54 0 -101 -21.5t-84 -61.5t-63.5 -96.5t-40.5 -126.5l-11 -55q-6 -32 -8 -60t-2 -49q0 -98 51.5 -155t148.5 -57z" />
    <glyph glyph-name="R" unicode="R" horiz-adv-x="630" 
d="M76 0h-22l140 698h251q73 0 112 -42t39 -106q0 -109 -56 -168.5t-158 -59.5l125 -322h-23l-125 322h-218zM388 342q78 0 121.5 39.5t55.5 99.5q6 29 7.5 45t1.5 24q0 26 -7.5 49.5t-23.5 41t-41 27.5t-59 10h-232l-66 -336h243z" />
    <glyph glyph-name="S" unicode="S" horiz-adv-x="536" 
d="M235 -12q-45 0 -80 8t-61 22.5t-45.5 35t-34.5 45.5l18 13q14 -24 31.5 -43.5t41.5 -33t56 -20.5t75 -7q56 0 95.5 16t64 43t36 62.5t11.5 74.5q0 54 -28.5 85t-92.5 48l-86 22q-68 17 -98.5 55.5t-30.5 98.5q0 40 13.5 76t40.5 63t67.5 42.5t95.5 15.5q43 0 75.5 -6.5
t56.5 -19t41.5 -30.5t30.5 -42l-18 -11q-27 49 -70 69t-117 20q-50 0 -86.5 -14.5t-60.5 -38.5t-35.5 -56t-11.5 -68q0 -55 27 -86.5t88 -47.5l83 -22q139 -37 139 -153q0 -44 -13.5 -83.5t-41.5 -69t-72 -46.5t-104 -17z" />
    <glyph glyph-name="T" unicode="T" horiz-adv-x="548" 
d="M370 678l-136 -678h-22l136 678h-249l4 20h520l-4 -20h-249z" />
    <glyph glyph-name="U" unicode="U" horiz-adv-x="639" 
d="M207 698l-85 -427q-9 -45 -13.5 -72.5t-4.5 -50.5q0 -66 40.5 -103t128.5 -37q57 0 97.5 13t69.5 44t48.5 81t34.5 125l86 427h22l-86 -428q-16 -80 -37.5 -134t-53 -87t-75.5 -47t-106 -14q-91 0 -141 40t-50 120q0 28 5.5 57t13.5 71l84 422h22z" />
    <glyph glyph-name="V" unicode="V" horiz-adv-x="566" 
d="M217 0l-100 698h22l96 -673h3l365 673h24l-380 -698h-30z" />
    <glyph glyph-name="W" unicode="W" horiz-adv-x="864" 
d="M161 0l-40 698h22l38 -667h3l323 667h31l51 -667h3l313 667h24l-329 -698h-31l-50 668h-3l-324 -668h-31z" />
    <glyph glyph-name="X" unicode="X" horiz-adv-x="552" 
d="M473 0h-24l-157 336h-3l-290 -336h-28l308 356l-161 342h24l152 -323h3l277 323h28l-296 -343z" />
    <glyph glyph-name="Y" unicode="Y" horiz-adv-x="540" 
d="M208 0l59 294l-158 404h23l148 -378h3l300 378h26l-320 -404l-59 -294h-22z" />
    <glyph glyph-name="Z" unicode="Z" horiz-adv-x="543" 
d="M462 0h-484l5 22l567 656h-413l4 20h440l-5 -22l-567 -656h457z" />
    <glyph glyph-name="bracketleft" unicode="[" horiz-adv-x="302" 
d="M32 -138l180 898h124l-4 -18h-104l-172 -862h104l-4 -18h-124z" />
    <glyph glyph-name="backslash" unicode="\" horiz-adv-x="301" 
d="M198 -151l-72 891h19l72 -891h-19z" />
    <glyph glyph-name="bracketright" unicode="]" horiz-adv-x="302" 
d="M293 760l-180 -898h-124l4 18h104l172 862h-104l4 18h124z" />
    <glyph glyph-name="asciicircum" unicode="^" 
d="M520 322l-142 354h-2l-284 -354l-18 10l295 366h22l147 -366z" />
    <glyph glyph-name="underscore" unicode="_" horiz-adv-x="559" 
d="M-55 -141l4 18h509l-4 -18h-509z" />
    <glyph glyph-name="grave" unicode="`" 
d="M235 740l19 11l81 -155l-16 -9z" />
    <glyph glyph-name="a" unicode="a" horiz-adv-x="567" 
d="M413 0q-23 0 -23 19q0 5 0.5 8t1.5 8l15 76h-3q-32 -56 -74.5 -89.5t-106.5 -33.5q-39 0 -69.5 14.5t-51.5 39.5t-31.5 59.5t-10.5 74.5q0 69 16.5 131t48 109t78 74.5t106.5 27.5q64 0 103 -29t53 -76h3l18 93h21l-97 -487h85l-4 -19h-78zM223 7q32 0 58 9t52 31
q29 24 55.5 64t37.5 93l28 142q5 25 -0.5 52t-22.5 49.5t-47 37t-75 14.5q-86 0 -141 -59t-74 -158l-7 -35q-3 -17 -4.5 -33.5t-1.5 -37.5q0 -35 8.5 -65.5t26 -53.5t44 -36.5t63.5 -13.5z" />
    <glyph glyph-name="b" unicode="b" horiz-adv-x="560" 
d="M201 740h21l-69 -345h3q32 56 74.5 89.5t106.5 33.5q39 0 69.5 -14.5t51.5 -39.5t31.5 -59.5t10.5 -74.5q0 -69 -16.5 -131t-48 -109t-78 -74.5t-106.5 -27.5q-64 0 -103 29t-53 76h-3l-18 -93h-21zM251 7q86 0 140.5 59t74.5 158l7 35q3 17 4.5 33.5t1.5 37.5
q0 35 -8.5 65.5t-26 53.5t-44 36.5t-63.5 13.5q-32 0 -58 -9t-52 -31q-29 -24 -55.5 -64t-37.5 -93l-28 -142q-5 -25 0.5 -52t22.5 -49.5t47 -37t75 -14.5z" />
    <glyph glyph-name="c" unicode="c" horiz-adv-x="479" 
d="M223 -12q-41 0 -71 15t-50.5 41.5t-30.5 62.5t-10 79q0 70 15.5 130.5t46 105.5t75.5 70.5t103 25.5q60 0 99.5 -32t50.5 -83l-19 -5q-11 49 -46.5 75t-86.5 26q-77 0 -131.5 -54t-71.5 -148l-9 -49q-3 -18 -4.5 -30.5t-1.5 -31.5q0 -37 8 -69.5t25.5 -57t44 -38.5
t64.5 -14q59 0 103 31.5t79 84.5l17 -9q-37 -57 -85 -91.5t-114 -34.5z" />
    <glyph glyph-name="d" unicode="d" horiz-adv-x="567" 
d="M413 0q-23 0 -23 19q0 5 0.5 8t1.5 8l15 76h-3q-32 -56 -74.5 -89.5t-106.5 -33.5q-39 0 -69.5 14.5t-51.5 39.5t-31.5 59.5t-10.5 74.5q0 69 16.5 131t48 109t78 74.5t106.5 27.5q64 0 103 -29t53 -76h3l65 327h21l-144 -721h85l-4 -19h-78zM223 7q32 0 58 9t52 31
q29 24 55.5 64t37.5 93l28 142q5 25 -0.5 52t-22.5 49.5t-47 37t-75 14.5q-86 0 -141 -59t-74 -158l-7 -35q-3 -17 -4.5 -33.5t-1.5 -37.5q0 -35 8.5 -65.5t26 -53.5t44 -36.5t63.5 -13.5z" />
    <glyph glyph-name="e" unicode="e" horiz-adv-x="505" 
d="M237 -12q-85 0 -130.5 48t-45.5 151q0 69 18 129.5t50.5 105t78 70.5t100.5 26q72 0 115 -33t43 -90q0 -24 -12 -51.5t-51.5 -51t-115 -40t-202.5 -19.5q-1 -8 -2 -22t-1 -22q0 -97 38.5 -139.5t116.5 -42.5q62 0 110 33t79 92l19 -8q-38 -71 -91.5 -103.5t-116.5 -32.5z
M306 499q-42 0 -78 -17t-63.5 -48t-46.5 -73t-28 -92l-3 -17q112 2 182 15t109 33t52.5 45t13.5 50q0 46 -32.5 75t-105.5 29z" />
    <glyph glyph-name="f" unicode="f" horiz-adv-x="282" 
d="M61 -167q-4 -20 -11 -26.5t-28 -6.5h-84l4 19h95l132 668h-100l4 19h100l39 201q4 20 11 26.5t28 6.5h94l-4 -19h-105l-42 -215h104l-4 -19h-104z" />
    <glyph glyph-name="g" unicode="g" horiz-adv-x="485" 
d="M440 -55q0 -80 -67 -118.5t-190 -38.5q-92 0 -139.5 32.5t-47.5 87.5q0 48 29.5 80t78.5 49v3q-18 5 -28.5 22t-10.5 37q0 37 29.5 59.5t68.5 33.5l1 4q-36 17 -55 48t-19 68q0 48 14.5 86t40 64.5t60.5 41t76 14.5q34 0 61 -10.5t46 -27.5l10 56q2 14 9 19.5t22 5.5h93
l-3 -19h-101l-14 -79q25 -34 25 -77q0 -48 -14.5 -86t-40 -64.5t-60.5 -41t-76 -14.5q-25 0 -46 6q-58 -15 -82.5 -36.5t-24.5 -50.5q0 -19 13 -32.5t51 -13.5h139q80 0 116 -29t36 -79zM418 -56q0 43 -30 66t-104 23h-148q-53 -14 -85.5 -43.5t-32.5 -79.5
q0 -27 11.5 -46.5t32.5 -32t49.5 -18.5t62.5 -6h32q46 0 85 8t67 25t44 42.5t16 61.5zM238 199q68 0 110 36.5t53 94.5q5 26 6 38t1 18q0 49 -32.5 81t-94.5 32q-68 0 -110 -36.5t-53 -94.5q-5 -26 -6 -38t-1 -18q0 -49 32.5 -81t94.5 -32z" />
    <glyph glyph-name="h" unicode="h" horiz-adv-x="549" 
d="M201 740h21l-67 -339h3q30 57 72.5 87t105.5 30q64 0 98 -34.5t34 -97.5q0 -15 -2 -32.5t-5 -32.5l-60 -302h85l-4 -19h-78q-23 0 -23 19q0 5 0.5 8t1.5 8l57 285q3 17 5 35t2 28q0 116 -114 116q-34 0 -68.5 -13.5t-64.5 -48.5q-17 -20 -35.5 -50t-27.5 -75l-62 -312
h-21z" />
    <glyph glyph-name="i" unicode="i" horiz-adv-x="235" 
d="M200 673q-11 0 -15.5 5t-4.5 11q0 3 0.5 6t1.5 8q2 9 8 14t19 5q11 0 15.5 -5t4.5 -11q0 -3 -0.5 -6t-1.5 -8q-2 -9 -8 -14t-19 -5zM81 0q-23 0 -23 19q0 5 0.5 8t1.5 8l95 471h21l-98 -487h85l-4 -19h-78z" />
    <glyph glyph-name="j" unicode="j" horiz-adv-x="229" 
d="M154 506h21l-134 -673q-4 -20 -12 -26.5t-29 -6.5h-72l4 19h85zM199 673q-11 0 -15.5 5t-4.5 11q0 3 0.5 6t1.5 8q2 9 8 14t19 5q11 0 15.5 -5t4.5 -11q0 -3 -0.5 -6t-1.5 -8q-2 -9 -8 -14t-19 -5z" />
    <glyph glyph-name="k" unicode="k" horiz-adv-x="479" 
d="M201 740h21l-104 -519h4l112 94l219 191h27l-243 -214l141 -273h57l-4 -19h-48q-11 0 -17 5t-12 16l-133 259l-109 -91l-38 -189h-21z" />
    <glyph glyph-name="l" unicode="l" horiz-adv-x="235" 
d="M81 0q-23 0 -23 19q0 5 0.5 8t1.5 8l141 705h21l-144 -721h85l-4 -19h-78z" />
    <glyph glyph-name="m" unicode="m" horiz-adv-x="843" 
d="M53 0l101 506h21l-21 -105h3q27 53 68.5 85t101.5 32q62 0 93.5 -36t32.5 -88h3q26 57 71.5 90.5t108.5 33.5q61 0 93.5 -34.5t32.5 -97.5q0 -15 -2 -32.5t-5 -32.5l-60 -302h85l-4 -19h-78q-23 0 -23 19q0 5 0.5 8t1.5 8l57 285q3 17 5 35t2 28q0 58 -27.5 87t-80.5 29
q-33 0 -67 -14.5t-62 -47.5q-19 -22 -34.5 -49t-23.5 -69l-64 -319h-21l64 320q3 17 5 35t2 28q0 116 -108 116q-32 0 -64 -14.5t-61 -47.5q-18 -20 -36.5 -52t-26.5 -73l-62 -312h-21z" />
    <glyph glyph-name="n" unicode="n" horiz-adv-x="548" 
d="M53 0l101 506h21l-21 -105h3q30 57 72.5 87t105.5 30q64 0 98 -34.5t34 -97.5q0 -15 -2 -32.5t-5 -32.5l-60 -302h85l-4 -19h-78q-23 0 -23 19q0 5 0.5 8t1.5 8l57 285q3 17 5 35t2 28q0 116 -114 116q-34 0 -68.5 -13.5t-64.5 -48.5q-17 -20 -35.5 -50t-27.5 -75
l-62 -312h-21z" />
    <glyph glyph-name="o" unicode="o" horiz-adv-x="534" 
d="M225 -12q-40 0 -71 14t-52 39t-32 57.5t-11 70.5q0 70 16 133.5t47.5 111.5t78 76t108.5 28q40 0 71 -14t52 -39t32 -58t11 -70q0 -70 -16 -133.5t-47.5 -111.5t-78 -76t-108.5 -28zM227 7q85 0 139.5 58t74.5 160l8 40q3 17 4 34.5t1 37.5q0 33 -8.5 62.5t-26.5 51.5
t-46 35t-66 13q-85 0 -139.5 -58t-74.5 -160l-8 -40q-3 -17 -4 -34.5t-1 -37.5q0 -33 8.5 -62.5t26.5 -51.5t46 -35t66 -13z" />
    <glyph glyph-name="p" unicode="p" horiz-adv-x="561" 
d="M155 506h21l-22 -111h3q32 56 74.5 89.5t106.5 33.5q39 0 69.5 -14.5t51.5 -39.5t31.5 -59.5t10.5 -74.5q0 -69 -16.5 -131t-48 -109t-78 -74.5t-106.5 -27.5q-64 0 -103 29t-53 76h-3l-58 -293h-21zM252 7q86 0 140.5 59t74.5 158l7 35q3 17 4.5 33.5t1.5 37.5
q0 35 -8.5 65.5t-26 53.5t-44 36.5t-63.5 13.5q-32 0 -58 -9t-52 -31q-29 -24 -55.5 -64t-37.5 -93l-28 -142q-5 -25 0.5 -52t22.5 -49.5t47 -37t75 -14.5z" />
    <glyph glyph-name="q" unicode="q" horiz-adv-x="560" 
d="M407 111h-3q-32 -56 -74.5 -89.5t-106.5 -33.5q-39 0 -69.5 14.5t-51.5 39.5t-31.5 59.5t-10.5 74.5q0 69 16.5 131t48 109t78 74.5t106.5 27.5q64 0 103 -29t53 -76h3l18 93h21l-141 -706h-21zM223 7q32 0 58 9t52 31q29 24 55.5 64t37.5 93l28 142q5 25 -0.5 52
t-22.5 49.5t-47 37t-75 14.5q-86 0 -141 -59t-74 -158l-7 -35q-3 -17 -4.5 -33.5t-1.5 -37.5q0 -35 8.5 -65.5t26 -53.5t44 -36.5t63.5 -13.5z" />
    <glyph glyph-name="r" unicode="r" horiz-adv-x="338" 
d="M53 0l101 506h21l-23 -114h3q13 25 28.5 46t36 36t47 23.5t61.5 8.5h30l-4 -19h-29q-37 0 -69 -15t-57 -41.5t-42 -62t-25 -75.5l-58 -293h-21z" />
    <glyph glyph-name="s" unicode="s" horiz-adv-x="448" 
d="M199 -12q-63 0 -108.5 25t-77.5 73l18 12q57 -91 168 -91q70 0 112.5 34t42.5 97q0 24 -7 40.5t-20 28.5t-32 20t-44 14l-50 13q-26 7 -47 16.5t-36.5 23.5t-24 34.5t-8.5 49.5q0 35 13.5 61t36 43.5t53 26.5t64.5 9q33 0 58 -6.5t44.5 -17.5t34 -25.5t25.5 -29.5
l-16 -14q-21 30 -54 52t-93 22q-66 0 -105.5 -31t-39.5 -90q0 -47 25.5 -69.5t75.5 -35.5l50 -13q25 -7 47 -16t37.5 -22.5t24.5 -33.5t9 -49q0 -38 -13.5 -66t-37.5 -47t-56 -28.5t-69 -9.5z" />
    <glyph glyph-name="t" unicode="t" horiz-adv-x="302" 
d="M100 0q-23 0 -23 19q0 5 0.5 8t1.5 8l90 452h-95l4 19h72q14 0 20 5.5t8 19.5l24 119h21l-29 -144h121l-4 -19h-121l-93 -468h113l-4 -19h-106z" />
    <glyph glyph-name="u" unicode="u" horiz-adv-x="548" 
d="M166 506l-64 -320q-3 -17 -5 -35t-2 -28q0 -116 114 -116q34 0 68.5 13.5t64.5 48.5q17 20 35.5 50t27.5 75l62 312h21l-97 -487h85l-4 -19h-78q-23 0 -23 19q0 5 0.5 8t1.5 8l14 70h-3q-30 -57 -72.5 -87t-105.5 -30q-64 0 -98 34.5t-34 97.5q0 15 2 32.5t5 32.5l64 321
h21z" />
    <glyph glyph-name="v" unicode="v" horiz-adv-x="460" 
d="M163 0l-90 506h20l85 -482h3l273 482h23l-288 -506h-26z" />
    <glyph glyph-name="w" unicode="w" horiz-adv-x="718" 
d="M78 506h20l48 -479h3l245 479h22l51 -479h2l241 479h22l-256 -506h-26l-49 472h-3l-242 -472h-26z" />
    <glyph glyph-name="x" unicode="x" horiz-adv-x="473" 
d="M-4 0l225 257l-133 249h22l127 -235h3l206 235h27l-224 -253l132 -253h-22l-126 239h-3l-207 -239h-27z" />
    <glyph glyph-name="y" unicode="y" horiz-adv-x="460" 
d="M454 506h23l-388 -681q-8 -14 -16 -19.5t-22 -5.5h-75l4 19h84l100 178l-91 509h20l85 -482h3z" />
    <glyph glyph-name="z" unicode="z" horiz-adv-x="430" 
d="M-1 0l4 20l399 467h-310l4 19h334l-4 -20l-398 -467h322l-4 -19h-347z" />
    <glyph glyph-name="braceleft" unicode="{" horiz-adv-x="316" 
d="M71 -138q-21 0 -21 18q0 3 4 23l60 298q3 15 3 27q0 34 -22.5 46.5t-60.5 12.5l10 48q97 0 114 86l63 313q4 26 30 26h100l-4 -18h-105l-64 -321q-10 -50 -42 -76t-77 -26l-4 -16q38 0 60 -18t22 -55q0 -13 -3 -29l-64 -321h105l-4 -18h-100z" />
    <glyph glyph-name="bar" unicode="|" horiz-adv-x="231" 
d="M27 -138l180 898h20l-180 -898h-20z" />
    <glyph glyph-name="braceright" unicode="}" horiz-adv-x="316" 
d="M-8 -120h105l64 321q10 50 42 76t77 26l4 16q-38 0 -60 18t-22 55q0 12 3 29l64 321h-105l4 18h100q21 0 21 -18q0 -3 -4 -23l-60 -298q-3 -15 -3 -27q0 -34 22.5 -46.5t60.5 -12.5l-10 -48q-97 0 -114 -86l-63 -313q-4 -26 -30 -26h-100z" />
    <glyph glyph-name="asciitilde" unicode="~" 
d="M425 256q-15 0 -27.5 2.5t-26 7t-30 12t-37.5 18.5q-20 10 -35 16.5t-28 11t-25 6.5t-25 2q-29 0 -52.5 -9.5t-52.5 -32.5l-12 14q58 48 121 48q15 0 27.5 -2.5t26 -7t30 -12.5t37.5 -18q20 -10 35 -16.5t28 -11t24.5 -6.5t25.5 -2q29 0 52.5 9.5t52.5 32.5l12 -14
q-58 -48 -121 -48z" />
    <glyph glyph-name="uni00A0" unicode="&#xa0;" horiz-adv-x="236" 
 />
    <glyph glyph-name="exclamdown" unicode="&#xa1;" horiz-adv-x="247" 
d="M24 -192l56 283l53 239h12l-43 -239l-56 -283h-22zM166 453q-14 0 -19.5 6t-5.5 13q0 4 1 9.5t2 8.5q2 8 7.5 14.5t20.5 6.5t20.5 -6t5.5 -13q0 -4 -1 -9.5t-2 -8.5q-2 -8 -8 -14.5t-21 -6.5z" />
    <glyph glyph-name="cent" unicode="&#xa2;" horiz-adv-x="488" 
d="M199 -11q-35 4 -61 21t-43 43t-25.5 60t-8.5 73q0 70 15.5 130.5t46 105.5t76 70.5t105.5 25.5l20 102h20l-21 -103q51 -7 84.5 -37.5t43.5 -76.5l-19 -5q-10 44 -40 69.5t-72 30.5l-98 -491q59 0 102 29.5t81 86.5l17 -9q-45 -67 -93 -96.5t-111 -29.5l-20 -102h-20z
M81 186q0 -35 7 -65.5t21.5 -54.5t37.5 -39t55 -19l98 491q-39 0 -72.5 -14t-60 -40.5t-44.5 -64t-27 -83.5l-9 -49q-3 -18 -4.5 -30.5t-1.5 -31.5z" />
    <glyph glyph-name="sterling" unicode="&#xa3;" horiz-adv-x="579" 
d="M33 0l5 25q71 33 109.5 93.5t38.5 141.5q0 25 -3 51h-97l4 20h91q-5 43 -9.5 85t-4.5 81q0 50 17.5 89.5t48 67t71 42t86.5 14.5q66 0 114 -29t73 -89l-20 -10q-23 58 -65 83t-103 25q-42 0 -78.5 -13t-63.5 -37.5t-42.5 -60.5t-15.5 -82q0 -39 4.5 -81t9.5 -85h213
l-4 -20h-207q3 -26 3 -51q0 -81 -38.5 -144t-105.5 -94l-1 -2h404l-4 -20h-430z" />
    <glyph glyph-name="currency" unicode="&#xa4;" horiz-adv-x="582" 
d="M267 129q-89 0 -128 59l-122 -102l-14 16l126 105q-14 33 -14 74q0 17 2 34t6 37q18 91 63 144l-92 115l16 13l90 -113q61 58 154 58q89 0 128 -59l122 102l14 -16l-126 -105q14 -33 14 -74q0 -17 -2 -34t-6 -37q-18 -92 -63 -144l92 -115l-16 -13l-90 113
q-61 -58 -154 -58zM270 148q81 0 133 47.5t69 130.5l9 46q5 28 5 49q0 61 -33 95t-102 34q-81 0 -133 -47.5t-69 -130.5l-9 -46q-5 -28 -5 -49q0 -61 33 -95t102 -34z" />
    <glyph glyph-name="yen" unicode="&#xa5;" horiz-adv-x="566" 
d="M277 168l-34 -168h-22l34 168h-198l4 19h198l28 138h-198l4 19h186l-147 354h23l144 -350h3l284 350h26l-287 -354h186l-4 -19h-198l-28 -138h198l-4 -19h-198z" />
    <glyph glyph-name="brokenbar" unicode="&#xa6;" horiz-adv-x="231" 
d="M135 401l72 359h20l-72 -359h-20zM27 -138l72 359h20l-72 -359h-20z" />
    <glyph glyph-name="section" unicode="&#xa7;" horiz-adv-x="564" 
d="M390 3q0 -38 -14 -67.5t-39 -49.5t-60 -30t-77 -10q-51 0 -86 14.5t-60 38.5l14 14q24 -23 56 -35.5t77 -12.5q78 0 123 35t45 103q0 51 -25 78t-71 42l-76 25q-55 18 -81.5 45t-26.5 80q0 62 39.5 100t108.5 60v3q-61 39 -61 117q0 38 14 67.5t39 49.5t60 30t77 10
q51 0 86 -14.5t60 -38.5l-14 -14q-24 23 -56 35.5t-77 12.5q-78 0 -123 -35t-45 -103q0 -51 25 -78t71 -42l76 -25q55 -18 81.5 -45t26.5 -80q0 -62 -39.5 -100t-108.5 -60v-3q61 -39 61 -117zM456 283q0 44 -21 67.5t-74 40.5l-77 25q-17 5 -28 10q-67 -23 -106.5 -58.5
t-39.5 -94.5q0 -44 21 -67.5t74 -40.5l77 -25q17 -5 28 -10q67 23 106.5 58.5t39.5 94.5z" />
    <glyph glyph-name="dieresis" unicode="&#xa8;" 
d="M231 642q-12 0 -16 5.5t-4 11.5t3 15q2 7 6.5 12t16.5 5t16 -5.5t4 -11.5t-3 -15q-2 -7 -6.5 -12t-16.5 -5zM413 642q-12 0 -16 5.5t-4 11.5t3 15q2 7 6.5 12t16.5 5t16 -5.5t4 -11.5t-3 -15q-2 -7 -6.5 -12t-16.5 -5z" />
    <glyph glyph-name="copyright" unicode="&#xa9;" horiz-adv-x="701" 
d="M317 -12q-65 0 -117.5 20.5t-90 59t-57.5 93t-20 122.5q0 96 29.5 174.5t80.5 134.5t119.5 87t147.5 31q65 0 117.5 -20.5t90 -59t57.5 -93t20 -122.5q0 -96 -29.5 -174.5t-80.5 -134.5t-119.5 -87t-147.5 -31zM317 6q68 0 125 23t101 62.5t73.5 92t41.5 111.5
q5 25 8.5 43.5t5 32t2 24t0.5 20.5q0 61 -17.5 111.5t-51.5 87.5t-83 57.5t-113 20.5q-68 0 -125 -23t-100.5 -62.5t-73 -92t-42.5 -111.5q-5 -25 -8.5 -43t-5 -31.5t-2 -24.5t-0.5 -21q0 -61 17.5 -112t51 -87.5t83 -57t113.5 -20.5zM338 149q-57 0 -94.5 38.5t-37.5 113.5
q0 54 14 98.5t39.5 76.5t60.5 49.5t77 17.5q47 0 75.5 -23.5t40.5 -55.5l-17 -6q-12 29 -35 48.5t-65 19.5q-57 0 -102.5 -39.5t-59.5 -117.5l-4 -22q-2 -14 -3 -26t-1 -20q0 -63 29.5 -98.5t83.5 -35.5q38 0 68 19t49 52l15 -8q-19 -33 -53.5 -57t-79.5 -24z" />
    <glyph glyph-name="ordfeminine" unicode="&#xaa;" horiz-adv-x="354" 
d="M348 366h-48q-15 0 -15 12q0 3 2 11l6 27h-2q-16 -21 -45 -38.5t-77 -17.5q-46 0 -70 21t-24 56q0 22 7.5 41t24.5 33t45 22.5t69 8.5h97l11 56q1 5 1.5 10.5t0.5 10.5q0 36 -21.5 52t-61.5 16q-35 0 -62.5 -13t-47.5 -45l-15 8q20 32 51.5 49.5t74.5 17.5q100 0 100 -85
q0 -4 -0.5 -9.5t-1.5 -10.5l-43 -216h48zM219 525q-31 0 -52 -5t-35 -13.5t-21.5 -20t-10.5 -24.5q-4 -16 -4 -25q0 -60 73 -60q23 0 45.5 5.5t40.5 17t30.5 28t17.5 39.5l12 58h-96z" />
    <glyph glyph-name="guillemotleft" unicode="&#xab;" horiz-adv-x="463" 
d="M204 106l-162 178l4 20l234 178l6 -17l-219 -174l149 -173zM381 106l-162 178l4 20l234 178l6 -17l-219 -174l149 -173z" />
    <glyph glyph-name="logicalnot" unicode="&#xac;" 
d="M467 104l38 192h-439l4 19h460l-42 -211h-21z" />
    <glyph glyph-name="uni00AD" unicode="&#xad;" horiz-adv-x="388" 
d="M88 295l4 20h229l-4 -20h-229z" />
    <glyph glyph-name="registered" unicode="&#xae;" horiz-adv-x="466" 
d="M251 298q-78 0 -125 45.5t-47 120.5q0 38 12.5 81t40.5 80t72.5 61t108.5 24q78 0 125 -45.5t47 -120.5q0 -38 -12.5 -81t-40.5 -80t-72.5 -61t-108.5 -24zM254 314q40 0 74.5 13t61 35.5t44 53.5t25.5 68q5 26 6.5 38t1.5 22q0 67 -42.5 108.5t-114.5 41.5
q-41 0 -75 -13t-60.5 -35.5t-44.5 -53.5t-25 -68q-5 -26 -6.5 -38t-1.5 -22q0 -67 42.5 -108.5t114.5 -41.5zM213 397h-16l42 212h79q25 0 39.5 -12t14.5 -35q0 -36 -18.5 -54t-42.5 -19l36 -92h-17l-35 91h-64zM295 503q25 0 38.5 8t18.5 31q3 13 3 20q0 32 -41 32h-62
l-18 -91h61z" />
    <glyph glyph-name="macron" unicode="&#xaf;" 
d="M196 676h258l-3 -18h-258z" />
    <glyph glyph-name="degree" unicode="&#xb0;" horiz-adv-x="466" 
d="M271 374q-32 0 -58 11t-44.5 31t-28.5 47.5t-10 60.5q0 40 14 74.5t38 59t56.5 38.5t70.5 14q32 0 58 -11t44.5 -31t28.5 -47.5t10 -60.5q0 -41 -14 -75t-38 -58.5t-57 -38.5t-70 -14zM273 393q33 0 61.5 12.5t49.5 34.5t33 52.5t12 66.5q0 57 -31 94.5t-91 37.5
q-33 0 -61.5 -12.5t-49.5 -34.5t-33 -52.5t-12 -66.5q0 -57 31 -94.5t91 -37.5z" />
    <glyph glyph-name="plusminus" unicode="&#xb1;" 
d="M262 115l47 234h-228l3 19h228l47 234h21l-47 -234h228l-3 -19h-228l-47 -234h-21zM11 0l4 19h476l-4 -19h-476z" />
    <glyph glyph-name="twosuperior" unicode="&#xb2;" horiz-adv-x="338" 
d="M310 329h-256l4 20l162 114q50 35 77.5 63.5t32.5 56.5q2 11 2.5 16t0.5 9q0 35 -22.5 57t-67.5 22q-47 0 -75 -21.5t-44 -56.5l-17 6q19 39 51.5 64t87.5 25q51 0 79 -28t28 -68q0 -43 -29.5 -78t-91.5 -78l-152 -106h234z" />
    <glyph glyph-name="threesuperior" unicode="&#xb3;" horiz-adv-x="345" 
d="M218 529q56 0 83.5 18.5t33.5 50.5q2 8 2 11.5v7.5q0 32 -20.5 51t-64.5 19q-40 0 -64.5 -12t-44.5 -34l-13 10q20 25 51 39t73 14q51 0 77 -23.5t26 -63.5q0 -39 -23.5 -64t-67.5 -31v-2q33 -5 48 -24.5t15 -50.5q0 -57 -37 -89.5t-100 -32.5q-49 0 -77 16.5t-41 40.5
l14 10q14 -23 37 -36.5t68 -13.5q51 0 78.5 21t35.5 59q2 9 2.5 14t0.5 10q0 33 -19.5 50.5t-68.5 17.5h-53l3 17h46z" />
    <glyph glyph-name="acute" unicode="&#xb4;" 
d="M288 587l-13 11l143 153l17 -13z" />
    <glyph glyph-name="mu" unicode="&#xb5;" horiz-adv-x="558" 
d="M14 -200l141 706h21l-64 -320q-3 -17 -5 -35t-2 -28q0 -116 114 -116q34 0 68.5 13.5t64.5 48.5q17 20 35.5 50t27.5 75l62 312h21l-97 -487h85l-4 -19h-78q-23 0 -23 19q0 5 0.5 8t1.5 8l14 70h-3q-30 -57 -72.5 -87t-105.5 -30q-54 0 -86 24.5t-42 67.5h-2l-20 -124
l-31 -156h-21z" />
    <glyph glyph-name="paragraph" unicode="&#xb6;" horiz-adv-x="590" 
d="M265 330q-36 0 -66 10.5t-52.5 30.5t-35 49t-12.5 66q0 49 19 88t52 66.5t79 42.5t100 15h233l-4 -18h-69l-166 -829h-21l166 829h-132l-166 -829h-21z" />
    <glyph glyph-name="periodcentered" unicode="&#xb7;" horiz-adv-x="298" 
d="M157 277q-15 0 -20.5 6t-5.5 13q0 4 1 9.5t2 8.5q2 8 8 14.5t21 6.5q14 0 19.5 -6t5.5 -13q0 -4 -1 -9.5t-2 -8.5q-2 -8 -7.5 -14.5t-20.5 -6.5z" />
    <glyph glyph-name="cedilla" unicode="&#xb8;" 
d="M273 -202q-28 0 -47.5 9.5t-27.5 22.5l14 13q21 -27 61 -27q32 0 52.5 16t20.5 42q0 17 -11.5 27.5t-40.5 12.5l-37 2l38 87h18l-34 -76l2 -2q7 2 15 2.5t14 0.5q27 0 42 -14t15 -39q0 -32 -25.5 -54.5t-68.5 -22.5z" />
    <glyph glyph-name="onesuperior" unicode="&#xb9;" horiz-adv-x="334" 
d="M56 329l4 17h129l66 338h-2l-147 -107l-10 13l149 108h32l-69 -352h118l-4 -17h-266z" />
    <glyph glyph-name="ordmasculine" unicode="&#xba;" horiz-adv-x="364" 
d="M207 360q-51 0 -82 35t-31 93q0 29 6 58q7 32 21 60.5t34.5 50.5t48 34.5t61.5 12.5q51 0 82 -35t31 -93q0 -30 -6 -58q-7 -32 -21 -60.5t-34.5 -50.5t-48 -34.5t-61.5 -12.5zM208 377q57 0 93 37t47 94l7 35q2 8 3 16.5t1 16.5q0 47 -22.5 79t-72.5 32q-57 0 -93 -37
t-47 -94l-7 -35q-2 -8 -3 -16.5t-1 -16.5q0 -47 22.5 -79t72.5 -32z" />
    <glyph glyph-name="guillemotright" unicode="&#xbb;" horiz-adv-x="463" 
d="M192 123l219 174l-149 173l12 12l162 -178l-4 -20l-234 -178zM15 123l219 174l-149 173l12 12l162 -178l-4 -20l-234 -178z" />
    <glyph glyph-name="onequarter" unicode="&#xbc;" horiz-adv-x="843" 
d="M56 329l4 17h129l66 338h-2l-147 -107l-10 13l149 108h32l-69 -352h118l-4 -17h-266zM161 0l605 698h23l-606 -698h-22zM691 0l18 89h-213l4 19l256 261h28l-52 -263h66l-4 -17h-66l-18 -89h-19zM761 349h-3l-237 -243h192z" />
    <glyph glyph-name="onehalf" unicode="&#xbd;" horiz-adv-x="866" 
d="M56 329l4 17h129l66 338h-2l-147 -107l-10 13l149 108h32l-69 -352h118l-4 -17h-266zM161 0l605 698h23l-606 -698h-22zM772 0h-256l4 20l162 114q50 35 77.5 63.5t32.5 56.5q2 11 2.5 16t0.5 9q0 35 -22.5 57t-67.5 22q-47 0 -75 -21.5t-44 -56.5l-17 6q19 39 51.5 64
t87.5 25q51 0 79 -28t28 -68q0 -43 -29.5 -78t-91.5 -78l-152 -106h234z" />
    <glyph glyph-name="threequarters" unicode="&#xbe;" horiz-adv-x="809" 
d="M218 529q56 0 83.5 18.5t33.5 50.5q2 8 2 11.5v7.5q0 32 -20.5 51t-64.5 19q-40 0 -64.5 -12t-44.5 -34l-13 10q20 25 51 39t73 14q51 0 77 -23.5t26 -63.5q0 -39 -23.5 -64t-67.5 -31v-2q33 -5 48 -24.5t15 -50.5q0 -57 -37 -89.5t-100 -32.5q-49 0 -77 16.5t-41 40.5
l14 10q14 -23 37 -36.5t68 -13.5q51 0 78.5 21t35.5 59q2 9 2.5 14t0.5 10q0 33 -19.5 50.5t-68.5 17.5h-53l3 17h46zM127 0l605 698h23l-606 -698h-22zM657 0l18 89h-213l4 19l256 261h28l-52 -263h66l-4 -17h-66l-18 -89h-19zM727 349h-3l-237 -243h192z" />
    <glyph glyph-name="questiondown" unicode="&#xbf;" horiz-adv-x="453" 
d="M160 -204q-78 0 -123.5 42.5t-45.5 113.5q0 94 57.5 153t180.5 70l30 155h22l-33 -173q-109 -8 -164 -47t-66 -112q-2 -11 -3.5 -25t-1.5 -21q0 -64 38 -100.5t110 -36.5q75 0 118.5 36.5t70.5 100.5l19 -6q-27 -69 -77.5 -109.5t-131.5 -40.5zM297 453q-14 0 -19.5 6
t-5.5 13q0 4 1 9.5t2 8.5q2 8 7.5 14.5t20.5 6.5t20.5 -6t5.5 -13q0 -4 -1 -9.5t-2 -8.5q-2 -8 -8 -14.5t-21 -6.5z" />
    <glyph glyph-name="Agrave" unicode="&#xc0;" horiz-adv-x="594" 
d="M497 0l-45 234h-318l-122 -234h-24l366 698h30l135 -698h-22zM367 673h-3l-220 -420h304zM303 921l19 11l81 -155l-16 -9z" />
    <glyph glyph-name="Aacute" unicode="&#xc1;" horiz-adv-x="594" 
d="M497 0l-45 234h-318l-122 -234h-24l366 698h30l135 -698h-22zM367 673h-3l-220 -420h304zM376 767l-13 11l143 153l17 -13z" />
    <glyph glyph-name="Acircumflex" unicode="&#xc2;" horiz-adv-x="594" 
d="M497 0l-45 234h-318l-122 -234h-24l366 698h30l135 -698h-22zM367 673h-3l-220 -420h304zM425 923l106 -134l-15 -10l-104 127l-148 -127l-13 12l150 132h24z" />
    <glyph glyph-name="Atilde" unicode="&#xc3;" horiz-adv-x="594" 
d="M497 0l-45 234h-318l-122 -234h-24l366 698h30l135 -698h-22zM367 673h-3l-220 -420h304zM452 808q-20 0 -34.5 7.5t-37.5 23.5q-19 13 -33 19t-31 6q-32 0 -69 -33l-11 12q23 22 43.5 30.5t41.5 8.5q20 0 34.5 -7t37.5 -23q19 -13 33 -19.5t31 -6.5t33.5 8t35.5 25
l11 -12q-23 -22 -43.5 -30.5t-41.5 -8.5z" />
    <glyph glyph-name="Adieresis" unicode="&#xc4;" horiz-adv-x="594" 
d="M497 0l-45 234h-318l-122 -234h-24l366 698h30l135 -698h-22zM367 673h-3l-220 -420h304zM304 819q-12 0 -16 5.5t-4 11.5t3 15q2 7 6.5 12t16.5 5t16 -5.5t4 -11.5t-3 -15q-2 -7 -6.5 -12t-16.5 -5zM486 819q-12 0 -16 5.5t-4 11.5t3 15q2 7 6.5 12t16.5 5t16 -5.5
t4 -11.5t-3 -15q-2 -7 -6.5 -12t-16.5 -5z" />
    <glyph glyph-name="Aring" unicode="&#xc5;" horiz-adv-x="594" 
d="M497 0l-45 234h-318l-122 -234h-24l366 698h30l135 -698h-22zM367 673h-3l-220 -420h304zM388 769q-22 0 -36.5 6.5t-23.5 17t-12.5 23.5t-3.5 25q0 50 28.5 80t76.5 30q22 0 37 -6.5t24 -17t12.5 -23.5t3.5 -25q0 -50 -29 -80t-77 -30zM392 787q31 0 52.5 17t27.5 49
q2 13 3 17.5t1 9.5q0 24 -15.5 38.5t-47.5 14.5q-30 0 -51.5 -17t-27.5 -49q-2 -13 -3 -17.5t-1 -9.5q0 -24 15.5 -38.5t46.5 -14.5z" />
    <glyph glyph-name="AE" unicode="&#xc6;" horiz-adv-x="884" 
d="M432 234h-252l-176 -234h-25l523 698h401l-4 -20h-356l-63 -314h344l-4 -20h-344l-65 -324h356l-4 -20h-378zM511 678l-317 -425h242l85 425h-10z" />
    <glyph glyph-name="Ccedilla" unicode="&#xc7;" horiz-adv-x="595" 
d="M397 690q-53 0 -99 -21.5t-83 -61.5t-63 -96.5t-40 -126.5l-11 -55q-6 -32 -8 -60t-2 -49q0 -98 51.5 -155t148.5 -57q70 0 119.5 35.5t89.5 107.5l19 -10q-46 -80 -99 -116t-124 -37l-27 -61l2 -2q7 2 15 2.5t14 0.5q27 0 42 -14t15 -39q0 -32 -25.5 -54.5t-68.5 -22.5
q-28 0 -47.5 9.5t-27.5 22.5l14 13q21 -27 61 -27q32 0 52.5 16t20.5 42q0 17 -11.5 27.5t-40.5 12.5l-37 2l32 72q-47 2 -86 18t-66.5 45t-42.5 71.5t-15 97.5q0 49 7.5 105t24.5 110t42.5 104t62.5 88t84.5 60.5t107.5 22.5q84 0 129 -38t62 -103l-21 -5q-8 28 -21 51.5
t-33.5 40t-49 25.5t-67.5 9z" />
    <glyph glyph-name="Egrave" unicode="&#xc8;" horiz-adv-x="553" 
d="M54 0l140 698h378l-4 -20h-356l-63 -314h344l-4 -20h-344l-65 -324h356l-4 -20h-378zM314 921l19 11l81 -155l-16 -9z" />
    <glyph glyph-name="Eacute" unicode="&#xc9;" horiz-adv-x="553" 
d="M54 0l140 698h378l-4 -20h-356l-63 -314h344l-4 -20h-344l-65 -324h356l-4 -20h-378zM387 767l-13 11l143 153l17 -13z" />
    <glyph glyph-name="Ecircumflex" unicode="&#xca;" horiz-adv-x="553" 
d="M54 0l140 698h378l-4 -20h-356l-63 -314h344l-4 -20h-344l-65 -324h356l-4 -20h-378zM436 923l106 -134l-15 -10l-104 127l-148 -127l-13 12l150 132h24z" />
    <glyph glyph-name="Edieresis" unicode="&#xcb;" horiz-adv-x="553" 
d="M54 0l140 698h378l-4 -20h-356l-63 -314h344l-4 -20h-344l-65 -324h356l-4 -20h-378zM315 819q-12 0 -16 5.5t-4 11.5t3 15q2 7 6.5 12t16.5 5t16 -5.5t4 -11.5t-3 -15q-2 -7 -6.5 -12t-16.5 -5zM497 819q-12 0 -16 5.5t-4 11.5t3 15q2 7 6.5 12t16.5 5t16 -5.5t4 -11.5
t-3 -15q-2 -7 -6.5 -12t-16.5 -5z" />
    <glyph glyph-name="Igrave" unicode="&#xcc;" horiz-adv-x="368" 
d="M15 0l4 19h107l132 660h-107l4 19h236l-4 -19h-107l-132 -660h107l-4 -19h-236zM207 921l19 11l81 -155l-16 -9z" />
    <glyph glyph-name="Iacute" unicode="&#xcd;" horiz-adv-x="368" 
d="M15 0l4 19h107l132 660h-107l4 19h236l-4 -19h-107l-132 -660h107l-4 -19h-236zM280 767l-13 11l143 153l17 -13z" />
    <glyph glyph-name="Icircumflex" unicode="&#xce;" horiz-adv-x="368" 
d="M15 0l4 19h107l132 660h-107l4 19h236l-4 -19h-107l-132 -660h107l-4 -19h-236zM344 923l106 -134l-15 -10l-104 127l-148 -127l-13 12l150 132h24z" />
    <glyph glyph-name="Idieresis" unicode="&#xcf;" horiz-adv-x="368" 
d="M15 0l4 19h107l132 660h-107l4 19h236l-4 -19h-107l-132 -660h107l-4 -19h-236zM208 819q-12 0 -16 5.5t-4 11.5t3 15q2 7 6.5 12t16.5 5t16 -5.5t4 -11.5t-3 -15q-2 -7 -6.5 -12t-16.5 -5zM390 819q-12 0 -16 5.5t-4 11.5t3 15q2 7 6.5 12t16.5 5t16 -5.5t4 -11.5
t-3 -15q-2 -7 -6.5 -12t-16.5 -5z" />
    <glyph glyph-name="Eth" unicode="&#xd0;" horiz-adv-x="651" 
d="M129 359h-88l4 19h88l63 320h185q115 0 173.5 -60.5t58.5 -169.5q0 -85 -19 -169t-59.5 -150.5t-102.5 -107.5t-147 -41h-227zM285 20q59 0 106.5 22.5t83.5 61.5t59.5 90.5t35.5 108.5l11 55q6 32 8 60.5t2 49.5q0 97 -52.5 153.5t-160.5 56.5h-164l-59 -300h167l-4 -19
h-167l-67 -339h201z" />
    <glyph glyph-name="Ntilde" unicode="&#xd1;" horiz-adv-x="680" 
d="M212 671h-3l-134 -671h-21l140 698h30l282 -671h3l134 671h21l-140 -698h-30zM521 808q-20 0 -34.5 7.5t-37.5 23.5q-19 13 -33 19t-31 6q-32 0 -69 -33l-11 12q23 22 43.5 30.5t41.5 8.5q20 0 34.5 -7t37.5 -23q19 -13 33 -19.5t31 -6.5t33.5 8t35.5 25l11 -12
q-23 -22 -43.5 -30.5t-41.5 -8.5z" />
    <glyph glyph-name="Ograve" unicode="&#xd2;" horiz-adv-x="658" 
d="M291 -12q-50 0 -90.5 15t-70 44.5t-45.5 72.5t-16 100q0 49 7.5 105t24 110t43 104t63 88t85 60.5t109.5 22.5q49 0 90 -15t70.5 -44.5t45.5 -72.5t16 -100q0 -49 -7.5 -105t-24 -110t-43 -104t-63 -88t-85 -60.5t-109.5 -22.5zM291 8q54 0 101 21.5t84 61.5t63.5 96.5
t40.5 126.5l11 55q6 32 8 60t2 49q0 98 -51.5 155t-148.5 57q-54 0 -101 -21.5t-84 -61.5t-63.5 -96.5t-40.5 -126.5l-11 -55q-6 -32 -8 -60t-2 -49q0 -98 51.5 -155t148.5 -57zM355 921l19 11l81 -155l-16 -9z" />
    <glyph glyph-name="Oacute" unicode="&#xd3;" horiz-adv-x="658" 
d="M291 -12q-50 0 -90.5 15t-70 44.5t-45.5 72.5t-16 100q0 49 7.5 105t24 110t43 104t63 88t85 60.5t109.5 22.5q49 0 90 -15t70.5 -44.5t45.5 -72.5t16 -100q0 -49 -7.5 -105t-24 -110t-43 -104t-63 -88t-85 -60.5t-109.5 -22.5zM291 8q54 0 101 21.5t84 61.5t63.5 96.5
t40.5 126.5l11 55q6 32 8 60t2 49q0 98 -51.5 155t-148.5 57q-54 0 -101 -21.5t-84 -61.5t-63.5 -96.5t-40.5 -126.5l-11 -55q-6 -32 -8 -60t-2 -49q0 -98 51.5 -155t148.5 -57zM428 767l-13 11l143 153l17 -13z" />
    <glyph glyph-name="Ocircumflex" unicode="&#xd4;" horiz-adv-x="658" 
d="M291 -12q-50 0 -90.5 15t-70 44.5t-45.5 72.5t-16 100q0 49 7.5 105t24 110t43 104t63 88t85 60.5t109.5 22.5q49 0 90 -15t70.5 -44.5t45.5 -72.5t16 -100q0 -49 -7.5 -105t-24 -110t-43 -104t-63 -88t-85 -60.5t-109.5 -22.5zM291 8q54 0 101 21.5t84 61.5t63.5 96.5
t40.5 126.5l11 55q6 32 8 60t2 49q0 98 -51.5 155t-148.5 57q-54 0 -101 -21.5t-84 -61.5t-63.5 -96.5t-40.5 -126.5l-11 -55q-6 -32 -8 -60t-2 -49q0 -98 51.5 -155t148.5 -57zM477 923l106 -134l-15 -10l-104 127l-148 -127l-13 12l150 132h24z" />
    <glyph glyph-name="Otilde" unicode="&#xd5;" horiz-adv-x="658" 
d="M291 -12q-50 0 -90.5 15t-70 44.5t-45.5 72.5t-16 100q0 49 7.5 105t24 110t43 104t63 88t85 60.5t109.5 22.5q49 0 90 -15t70.5 -44.5t45.5 -72.5t16 -100q0 -49 -7.5 -105t-24 -110t-43 -104t-63 -88t-85 -60.5t-109.5 -22.5zM291 8q54 0 101 21.5t84 61.5t63.5 96.5
t40.5 126.5l11 55q6 32 8 60t2 49q0 98 -51.5 155t-148.5 57q-54 0 -101 -21.5t-84 -61.5t-63.5 -96.5t-40.5 -126.5l-11 -55q-6 -32 -8 -60t-2 -49q0 -98 51.5 -155t148.5 -57zM504 808q-20 0 -34.5 7.5t-37.5 23.5q-19 13 -33 19t-31 6q-32 0 -69 -33l-11 12
q23 22 43.5 30.5t41.5 8.5q20 0 34.5 -7t37.5 -23q19 -13 33 -19.5t31 -6.5t33.5 8t35.5 25l11 -12q-23 -22 -43.5 -30.5t-41.5 -8.5z" />
    <glyph glyph-name="Odieresis" unicode="&#xd6;" horiz-adv-x="658" 
d="M291 -12q-50 0 -90.5 15t-70 44.5t-45.5 72.5t-16 100q0 49 7.5 105t24 110t43 104t63 88t85 60.5t109.5 22.5q49 0 90 -15t70.5 -44.5t45.5 -72.5t16 -100q0 -49 -7.5 -105t-24 -110t-43 -104t-63 -88t-85 -60.5t-109.5 -22.5zM291 8q54 0 101 21.5t84 61.5t63.5 96.5
t40.5 126.5l11 55q6 32 8 60t2 49q0 98 -51.5 155t-148.5 57q-54 0 -101 -21.5t-84 -61.5t-63.5 -96.5t-40.5 -126.5l-11 -55q-6 -32 -8 -60t-2 -49q0 -98 51.5 -155t148.5 -57zM356 819q-12 0 -16 5.5t-4 11.5t3 15q2 7 6.5 12t16.5 5t16 -5.5t4 -11.5t-3 -15
q-2 -7 -6.5 -12t-16.5 -5zM538 819q-12 0 -16 5.5t-4 11.5t3 15q2 7 6.5 12t16.5 5t16 -5.5t4 -11.5t-3 -15q-2 -7 -6.5 -12t-16.5 -5z" />
    <glyph glyph-name="multiply" unicode="&#xd7;" 
d="M308 292l-219 -183l-12 14l219 183l-144 181l15 12l144 -180l217 181l12 -14l-217 -182l145 -182l-15 -12z" />
    <glyph glyph-name="Oslash" unicode="&#xd8;" horiz-adv-x="658" 
d="M291 -12q-59 0 -105 20.5t-75 62.5l-93 -104l-15 12l97 109q-31 54 -31 132q0 49 7.5 105t24.5 110t43 104t63 88t85 60.5t109 22.5q59 0 105 -20.5t75 -62.5l93 104l15 -12l-97 -109q31 -54 31 -132q0 -49 -7.5 -105t-24 -110t-43 -104t-63 -88t-85 -60.5t-109.5 -22.5z
M101 329q-6 -32 -8 -60t-2 -49q0 -67 24 -115l452 506q-25 38 -67 58.5t-99 20.5q-54 0 -101 -21.5t-84 -61.5t-63.5 -96.5t-40.5 -126.5zM591 369q6 32 8 60t2 49q0 67 -24 115l-452 -506q25 -38 67 -58.5t99 -20.5q54 0 101 21.5t84 61.5t63.5 96.5t40.5 126.5z" />
    <glyph glyph-name="Ugrave" unicode="&#xd9;" horiz-adv-x="639" 
d="M207 698l-85 -427q-9 -45 -13.5 -72.5t-4.5 -50.5q0 -66 40.5 -103t128.5 -37q57 0 97.5 13t69.5 44t48.5 81t34.5 125l86 427h22l-86 -428q-16 -80 -37.5 -134t-53 -87t-75.5 -47t-106 -14q-91 0 -141 40t-50 120q0 28 5.5 57t13.5 71l84 422h22zM342 921l19 11l81 -155
l-16 -9z" />
    <glyph glyph-name="Uacute" unicode="&#xda;" horiz-adv-x="639" 
d="M207 698l-85 -427q-9 -45 -13.5 -72.5t-4.5 -50.5q0 -66 40.5 -103t128.5 -37q57 0 97.5 13t69.5 44t48.5 81t34.5 125l86 427h22l-86 -428q-16 -80 -37.5 -134t-53 -87t-75.5 -47t-106 -14q-91 0 -141 40t-50 120q0 28 5.5 57t13.5 71l84 422h22zM415 767l-13 11
l143 153l17 -13z" />
    <glyph glyph-name="Ucircumflex" unicode="&#xdb;" horiz-adv-x="639" 
d="M207 698l-85 -427q-9 -45 -13.5 -72.5t-4.5 -50.5q0 -66 40.5 -103t128.5 -37q57 0 97.5 13t69.5 44t48.5 81t34.5 125l86 427h22l-86 -428q-16 -80 -37.5 -134t-53 -87t-75.5 -47t-106 -14q-91 0 -141 40t-50 120q0 28 5.5 57t13.5 71l84 422h22zM464 923l106 -134
l-15 -10l-104 127l-148 -127l-13 12l150 132h24z" />
    <glyph glyph-name="Udieresis" unicode="&#xdc;" horiz-adv-x="639" 
d="M207 698l-85 -427q-9 -45 -13.5 -72.5t-4.5 -50.5q0 -66 40.5 -103t128.5 -37q57 0 97.5 13t69.5 44t48.5 81t34.5 125l86 427h22l-86 -428q-16 -80 -37.5 -134t-53 -87t-75.5 -47t-106 -14q-91 0 -141 40t-50 120q0 28 5.5 57t13.5 71l84 422h22zM343 819q-12 0 -16 5.5
t-4 11.5t3 15q2 7 6.5 12t16.5 5t16 -5.5t4 -11.5t-3 -15q-2 -7 -6.5 -12t-16.5 -5zM525 819q-12 0 -16 5.5t-4 11.5t3 15q2 7 6.5 12t16.5 5t16 -5.5t4 -11.5t-3 -15q-2 -7 -6.5 -12t-16.5 -5z" />
    <glyph glyph-name="Yacute" unicode="&#xdd;" horiz-adv-x="540" 
d="M208 0l59 294l-158 404h23l148 -378h3l300 378h26l-320 -404l-59 -294h-22zM366 767l-13 11l143 153l17 -13z" />
    <glyph glyph-name="Thorn" unicode="&#xde;" horiz-adv-x="592" 
d="M54 0l140 698h21l-31 -156h230q73 0 112 -42t39 -106q0 -109 -56 -168.5t-154 -59.5h-246l-33 -166h-22zM113 186h244q78 0 121.5 39.5t55.5 99.5q6 29 7.5 45t1.5 24q0 26 -7.5 49.5t-23.5 41t-41 27.5t-59 10h-232z" />
    <glyph glyph-name="germandbls" unicode="&#xdf;" horiz-adv-x="628" 
d="M562 140q0 -38 -13.5 -66t-37.5 -47.5t-56 -29t-69 -9.5q-63 0 -108.5 25t-77.5 73l18 12q57 -91 168 -91q70 0 112.5 34.5t42.5 97.5q0 42 -20.5 63t-62.5 35l-50 17q-21 7 -39 16t-30.5 21.5t-19.5 31t-7 44.5q0 36 16.5 62t45.5 43t70 25.5t90 8.5l3 15q7 35 7 69
q0 68 -33.5 105.5t-103.5 37.5q-45 0 -80 -15.5t-60.5 -44t-43 -67.5t-26.5 -85l-104 -521h-21l97 487h-95l4 19h95l3 15q21 105 78.5 168t155.5 63q75 0 115 -43.5t40 -118.5q0 -17 -2 -34t-5 -35l-6 -33h-16q-42 0 -78.5 -6t-64.5 -20.5t-44 -37.5t-16 -57q0 -21 5 -36
t15 -25.5t25 -18t36 -14.5l50 -17q22 -8 40 -17t31 -22.5t20 -32t7 -44.5z" />
    <glyph glyph-name="agrave" unicode="&#xe0;" horiz-adv-x="567" 
d="M413 0q-23 0 -23 19q0 5 0.5 8t1.5 8l15 76h-3q-32 -56 -74.5 -89.5t-106.5 -33.5q-39 0 -69.5 14.5t-51.5 39.5t-31.5 59.5t-10.5 74.5q0 69 16.5 131t48 109t78 74.5t106.5 27.5q64 0 103 -29t53 -76h3l18 93h21l-97 -487h85l-4 -19h-78zM223 7q32 0 58 9t52 31
q29 24 55.5 64t37.5 93l28 142q5 25 -0.5 52t-22.5 49.5t-47 37t-75 14.5q-86 0 -141 -59t-74 -158l-7 -35q-3 -17 -4.5 -33.5t-1.5 -37.5q0 -35 8.5 -65.5t26 -53.5t44 -36.5t63.5 -13.5zM265 740l19 11l81 -155l-16 -9z" />
    <glyph glyph-name="aacute" unicode="&#xe1;" horiz-adv-x="567" 
d="M413 0q-23 0 -23 19q0 5 0.5 8t1.5 8l15 76h-3q-32 -56 -74.5 -89.5t-106.5 -33.5q-39 0 -69.5 14.5t-51.5 39.5t-31.5 59.5t-10.5 74.5q0 69 16.5 131t48 109t78 74.5t106.5 27.5q64 0 103 -29t53 -76h3l18 93h21l-97 -487h85l-4 -19h-78zM223 7q32 0 58 9t52 31
q29 24 55.5 64t37.5 93l28 142q5 25 -0.5 52t-22.5 49.5t-47 37t-75 14.5q-86 0 -141 -59t-74 -158l-7 -35q-3 -17 -4.5 -33.5t-1.5 -37.5q0 -35 8.5 -65.5t26 -53.5t44 -36.5t63.5 -13.5zM318 587l-13 11l143 153l17 -13z" />
    <glyph glyph-name="acircumflex" unicode="&#xe2;" horiz-adv-x="567" 
d="M413 0q-23 0 -23 19q0 5 0.5 8t1.5 8l15 76h-3q-32 -56 -74.5 -89.5t-106.5 -33.5q-39 0 -69.5 14.5t-51.5 39.5t-31.5 59.5t-10.5 74.5q0 69 16.5 131t48 109t78 74.5t106.5 27.5q64 0 103 -29t53 -76h3l18 93h21l-97 -487h85l-4 -19h-78zM223 7q32 0 58 9t52 31
q29 24 55.5 64t37.5 93l28 142q5 25 -0.5 52t-22.5 49.5t-47 37t-75 14.5q-86 0 -141 -59t-74 -158l-7 -35q-3 -17 -4.5 -33.5t-1.5 -37.5q0 -35 8.5 -65.5t26 -53.5t44 -36.5t63.5 -13.5zM381 743l106 -134l-15 -10l-104 127l-148 -127l-13 12l150 132h24z" />
    <glyph glyph-name="atilde" unicode="&#xe3;" horiz-adv-x="567" 
d="M413 0q-23 0 -23 19q0 5 0.5 8t1.5 8l15 76h-3q-32 -56 -74.5 -89.5t-106.5 -33.5q-39 0 -69.5 14.5t-51.5 39.5t-31.5 59.5t-10.5 74.5q0 69 16.5 131t48 109t78 74.5t106.5 27.5q64 0 103 -29t53 -76h3l18 93h21l-97 -487h85l-4 -19h-78zM223 7q32 0 58 9t52 31
q29 24 55.5 64t37.5 93l28 142q5 25 -0.5 52t-22.5 49.5t-47 37t-75 14.5q-86 0 -141 -59t-74 -158l-7 -35q-3 -17 -4.5 -33.5t-1.5 -37.5q0 -35 8.5 -65.5t26 -53.5t44 -36.5t63.5 -13.5zM419 628q-20 0 -34.5 7.5t-37.5 23.5q-19 13 -33 19t-31 6q-32 0 -69 -33l-11 12
q23 22 43.5 30.5t41.5 8.5q20 0 34.5 -7t37.5 -23q19 -13 33 -19.5t31 -6.5t33.5 8t35.5 25l11 -12q-23 -22 -43.5 -30.5t-41.5 -8.5z" />
    <glyph glyph-name="adieresis" unicode="&#xe4;" horiz-adv-x="567" 
d="M413 0q-23 0 -23 19q0 5 0.5 8t1.5 8l15 76h-3q-32 -56 -74.5 -89.5t-106.5 -33.5q-39 0 -69.5 14.5t-51.5 39.5t-31.5 59.5t-10.5 74.5q0 69 16.5 131t48 109t78 74.5t106.5 27.5q64 0 103 -29t53 -76h3l18 93h21l-97 -487h85l-4 -19h-78zM223 7q32 0 58 9t52 31
q29 24 55.5 64t37.5 93l28 142q5 25 -0.5 52t-22.5 49.5t-47 37t-75 14.5q-86 0 -141 -59t-74 -158l-7 -35q-3 -17 -4.5 -33.5t-1.5 -37.5q0 -35 8.5 -65.5t26 -53.5t44 -36.5t63.5 -13.5zM261 642q-12 0 -16 5.5t-4 11.5t3 15q2 7 6.5 12t16.5 5t16 -5.5t4 -11.5t-3 -15
q-2 -7 -6.5 -12t-16.5 -5zM443 642q-12 0 -16 5.5t-4 11.5t3 15q2 7 6.5 12t16.5 5t16 -5.5t4 -11.5t-3 -15q-2 -7 -6.5 -12t-16.5 -5z" />
    <glyph glyph-name="aring" unicode="&#xe5;" horiz-adv-x="567" 
d="M413 0q-23 0 -23 19q0 5 0.5 8t1.5 8l15 76h-3q-32 -56 -74.5 -89.5t-106.5 -33.5q-39 0 -69.5 14.5t-51.5 39.5t-31.5 59.5t-10.5 74.5q0 69 16.5 131t48 109t78 74.5t106.5 27.5q64 0 103 -29t53 -76h3l18 93h21l-97 -487h85l-4 -19h-78zM223 7q32 0 58 9t52 31
q29 24 55.5 64t37.5 93l28 142q5 25 -0.5 52t-22.5 49.5t-47 37t-75 14.5q-86 0 -141 -59t-74 -158l-7 -35q-3 -17 -4.5 -33.5t-1.5 -37.5q0 -35 8.5 -65.5t26 -53.5t44 -36.5t63.5 -13.5zM339 589q-22 0 -36.5 6.5t-23.5 17t-12.5 23.5t-3.5 25q0 50 28.5 80t76.5 30
q22 0 37 -6.5t24 -17t12.5 -23.5t3.5 -25q0 -50 -29 -80t-77 -30zM343 607q31 0 52.5 17t27.5 49q2 13 3 17.5t1 9.5q0 24 -15.5 38.5t-47.5 14.5q-30 0 -51.5 -17t-27.5 -49q-2 -13 -3 -17.5t-1 -9.5q0 -24 15.5 -38.5t46.5 -14.5z" />
    <glyph glyph-name="ae" unicode="&#xe6;" horiz-adv-x="860" 
d="M204 7q34 0 67 9.5t61 29t47.5 48.5t26.5 68l14 81l-180 -9q-84 -5 -121.5 -28.5t-45.5 -62.5q-4 -18 -4.5 -25.5t-0.5 -15.5q0 -45 35 -70t101 -25zM661 499q-42 0 -77.5 -17t-63.5 -47.5t-46.5 -72t-27.5 -89.5l-2 -11q113 2 182.5 14.5t108 32t51.5 43t13 47.5
q0 45 -32.5 72.5t-105.5 27.5zM202 -12q-74 0 -114.5 29.5t-40.5 85.5q0 75 47.5 109.5t146.5 39.5l183 9l13 68q3 14 4 27.5t1 24.5q0 24 -6.5 45.5t-22 37.5t-41.5 25.5t-65 9.5q-34 0 -60 -5.5t-46 -17.5t-36.5 -30.5t-32.5 -43.5l-17 9q15 25 32.5 45t40 33.5t52 21
t69.5 7.5t69 -10.5t47.5 -28t27 -41.5t9.5 -51h3q31 59 80.5 95t117.5 36q72 0 115 -31.5t43 -87.5q0 -26 -13 -53t-53.5 -49t-115 -36.5t-197.5 -17.5q-2 -14 -4 -27t-2 -26q0 -84 39 -133.5t117 -49.5q62 0 110 33t79 92l19 -7q-40 -72 -92.5 -104.5t-115.5 -32.5
q-69 0 -115 39t-56 111h-3q-8 -34 -28 -61.5t-48.5 -47t-64 -30.5t-75.5 -11z" />
    <glyph glyph-name="ccedilla" unicode="&#xe7;" horiz-adv-x="479" 
d="M301 518q60 0 99.5 -32t50.5 -83l-19 -5q-11 49 -46.5 75t-86.5 26q-77 0 -131.5 -54t-71.5 -148l-9 -49q-3 -18 -4.5 -30.5t-1.5 -31.5q0 -37 8 -69.5t25.5 -57t44 -38.5t64.5 -14q59 0 103 31.5t79 84.5l17 -9q-35 -55 -81 -89t-109 -37l-27 -61l2 -2q7 2 15 2.5
t14 0.5q27 0 42 -14t15 -39q0 -32 -25.5 -54.5t-68.5 -22.5q-28 0 -47.5 9.5t-27.5 22.5l14 13q21 -27 61 -27q32 0 52.5 16t20.5 42q0 17 -11.5 27.5t-40.5 12.5l-37 2l32 72q-39 1 -67.5 17t-48 42t-29 61.5t-9.5 77.5q0 70 15.5 130.5t46 105.5t75.5 70.5t103 25.5z" />
    <glyph glyph-name="egrave" unicode="&#xe8;" horiz-adv-x="505" 
d="M237 -12q-85 0 -130.5 48t-45.5 151q0 69 18 129.5t50.5 105t78 70.5t100.5 26q72 0 115 -33t43 -90q0 -24 -12 -51.5t-51.5 -51t-115 -40t-202.5 -19.5q-1 -8 -2 -22t-1 -22q0 -97 38.5 -139.5t116.5 -42.5q62 0 110 33t79 92l19 -8q-38 -71 -91.5 -103.5t-116.5 -32.5z
M306 499q-42 0 -78 -17t-63.5 -48t-46.5 -73t-28 -92l-3 -17q112 2 182 15t109 33t52.5 45t13.5 50q0 46 -32.5 75t-105.5 29zM252 740l19 11l81 -155l-16 -9z" />
    <glyph glyph-name="eacute" unicode="&#xe9;" horiz-adv-x="505" 
d="M237 -12q-85 0 -130.5 48t-45.5 151q0 69 18 129.5t50.5 105t78 70.5t100.5 26q72 0 115 -33t43 -90q0 -24 -12 -51.5t-51.5 -51t-115 -40t-202.5 -19.5q-1 -8 -2 -22t-1 -22q0 -97 38.5 -139.5t116.5 -42.5q62 0 110 33t79 92l19 -8q-38 -71 -91.5 -103.5t-116.5 -32.5z
M306 499q-42 0 -78 -17t-63.5 -48t-46.5 -73t-28 -92l-3 -17q112 2 182 15t109 33t52.5 45t13.5 50q0 46 -32.5 75t-105.5 29zM305 587l-13 11l143 153l17 -13z" />
    <glyph glyph-name="ecircumflex" unicode="&#xea;" horiz-adv-x="505" 
d="M237 -12q-85 0 -130.5 48t-45.5 151q0 69 18 129.5t50.5 105t78 70.5t100.5 26q72 0 115 -33t43 -90q0 -24 -12 -51.5t-51.5 -51t-115 -40t-202.5 -19.5q-1 -8 -2 -22t-1 -22q0 -97 38.5 -139.5t116.5 -42.5q62 0 110 33t79 92l19 -8q-38 -71 -91.5 -103.5t-116.5 -32.5z
M306 499q-42 0 -78 -17t-63.5 -48t-46.5 -73t-28 -92l-3 -17q112 2 182 15t109 33t52.5 45t13.5 50q0 46 -32.5 75t-105.5 29zM368 743l106 -134l-15 -10l-104 127l-148 -127l-13 12l150 132h24z" />
    <glyph glyph-name="edieresis" unicode="&#xeb;" horiz-adv-x="505" 
d="M237 -12q-85 0 -130.5 48t-45.5 151q0 69 18 129.5t50.5 105t78 70.5t100.5 26q72 0 115 -33t43 -90q0 -24 -12 -51.5t-51.5 -51t-115 -40t-202.5 -19.5q-1 -8 -2 -22t-1 -22q0 -97 38.5 -139.5t116.5 -42.5q62 0 110 33t79 92l19 -8q-38 -71 -91.5 -103.5t-116.5 -32.5z
M306 499q-42 0 -78 -17t-63.5 -48t-46.5 -73t-28 -92l-3 -17q112 2 182 15t109 33t52.5 45t13.5 50q0 46 -32.5 75t-105.5 29zM248 642q-12 0 -16 5.5t-4 11.5t3 15q2 7 6.5 12t16.5 5t16 -5.5t4 -11.5t-3 -15q-2 -7 -6.5 -12t-16.5 -5zM430 642q-12 0 -16 5.5t-4 11.5t3 15
q2 7 6.5 12t16.5 5t16 -5.5t4 -11.5t-3 -15q-2 -7 -6.5 -12t-16.5 -5z" />
    <glyph glyph-name="igrave" unicode="&#xec;" horiz-adv-x="235" 
d="M81 0q-23 0 -23 19q0 5 0.5 8t1.5 8l95 471h21l-98 -487h85l-4 -19h-78zM108 740l19 11l81 -155l-16 -9z" />
    <glyph glyph-name="iacute" unicode="&#xed;" horiz-adv-x="235" 
d="M81 0q-23 0 -23 19q0 5 0.5 8t1.5 8l95 471h21l-98 -487h85l-4 -19h-78zM161 587l-13 11l143 153l17 -13z" />
    <glyph glyph-name="icircumflex" unicode="&#xee;" horiz-adv-x="235" 
d="M81 0q-23 0 -23 19q0 5 0.5 8t1.5 8l95 471h21l-98 -487h85l-4 -19h-78zM224 743l106 -134l-15 -10l-104 127l-148 -127l-13 12l150 132h24z" />
    <glyph glyph-name="idieresis" unicode="&#xef;" horiz-adv-x="235" 
d="M81 0q-23 0 -23 19q0 5 0.5 8t1.5 8l95 471h21l-98 -487h85l-4 -19h-78zM104 642q-12 0 -16 5.5t-4 11.5t3 15q2 7 6.5 12t16.5 5t16 -5.5t4 -11.5t-3 -15q-2 -7 -6.5 -12t-16.5 -5zM286 642q-12 0 -16 5.5t-4 11.5t3 15q2 7 6.5 12t16.5 5t16 -5.5t4 -11.5t-3 -15
q-2 -7 -6.5 -12t-16.5 -5z" />
    <glyph glyph-name="eth" unicode="&#xf0;" horiz-adv-x="560" 
d="M345 660q30 -27 57.5 -61t47.5 -75t32 -90t12 -106q0 -84 -19.5 -147.5t-53.5 -106.5t-80.5 -64.5t-101.5 -21.5q-83 0 -131 50.5t-48 139.5q0 75 19 135.5t52.5 101.5t78.5 63t99 22q53 0 93 -22t61 -65l3 2q-14 71 -49 129t-89 105l-122 -77l-7 14l117 74
q-58 48 -126 80h32q27 -13 55 -30t56 -40l129 82l7 -14zM240 7q84 0 143 53.5t77 152.5l8 44q3 15 3.5 29.5t0.5 27.5q0 81 -44 124t-116 43q-83 0 -142 -52t-78 -150l-8 -44q-3 -15 -3.5 -29.5t-0.5 -27.5q0 -81 44 -126t116 -45z" />
    <glyph glyph-name="ntilde" unicode="&#xf1;" horiz-adv-x="548" 
d="M53 0l101 506h21l-21 -105h3q30 57 72.5 87t105.5 30q64 0 98 -34.5t34 -97.5q0 -15 -2 -32.5t-5 -32.5l-60 -302h85l-4 -19h-78q-23 0 -23 19q0 5 0.5 8t1.5 8l57 285q3 17 5 35t2 28q0 116 -114 116q-34 0 -68.5 -13.5t-64.5 -48.5q-17 -20 -35.5 -50t-27.5 -75
l-62 -312h-21zM424 628q-20 0 -34.5 7.5t-37.5 23.5q-19 13 -33 19t-31 6q-32 0 -69 -33l-11 12q23 22 43.5 30.5t41.5 8.5q20 0 34.5 -7t37.5 -23q19 -13 33 -19.5t31 -6.5t33.5 8t35.5 25l11 -12q-23 -22 -43.5 -30.5t-41.5 -8.5z" />
    <glyph glyph-name="ograve" unicode="&#xf2;" horiz-adv-x="534" 
d="M225 -12q-40 0 -71 14t-52 39t-32 57.5t-11 70.5q0 70 16 133.5t47.5 111.5t78 76t108.5 28q40 0 71 -14t52 -39t32 -58t11 -70q0 -70 -16 -133.5t-47.5 -111.5t-78 -76t-108.5 -28zM227 7q85 0 139.5 58t74.5 160l8 40q3 17 4 34.5t1 37.5q0 33 -8.5 62.5t-26.5 51.5
t-46 35t-66 13q-85 0 -139.5 -58t-74.5 -160l-8 -40q-3 -17 -4 -34.5t-1 -37.5q0 -33 8.5 -62.5t26.5 -51.5t46 -35t66 -13zM249 740l19 11l81 -155l-16 -9z" />
    <glyph glyph-name="oacute" unicode="&#xf3;" horiz-adv-x="534" 
d="M225 -12q-40 0 -71 14t-52 39t-32 57.5t-11 70.5q0 70 16 133.5t47.5 111.5t78 76t108.5 28q40 0 71 -14t52 -39t32 -58t11 -70q0 -70 -16 -133.5t-47.5 -111.5t-78 -76t-108.5 -28zM227 7q85 0 139.5 58t74.5 160l8 40q3 17 4 34.5t1 37.5q0 33 -8.5 62.5t-26.5 51.5
t-46 35t-66 13q-85 0 -139.5 -58t-74.5 -160l-8 -40q-3 -17 -4 -34.5t-1 -37.5q0 -33 8.5 -62.5t26.5 -51.5t46 -35t66 -13zM302 587l-13 11l143 153l17 -13z" />
    <glyph glyph-name="ocircumflex" unicode="&#xf4;" horiz-adv-x="534" 
d="M225 -12q-40 0 -71 14t-52 39t-32 57.5t-11 70.5q0 70 16 133.5t47.5 111.5t78 76t108.5 28q40 0 71 -14t52 -39t32 -58t11 -70q0 -70 -16 -133.5t-47.5 -111.5t-78 -76t-108.5 -28zM227 7q85 0 139.5 58t74.5 160l8 40q3 17 4 34.5t1 37.5q0 33 -8.5 62.5t-26.5 51.5
t-46 35t-66 13q-85 0 -139.5 -58t-74.5 -160l-8 -40q-3 -17 -4 -34.5t-1 -37.5q0 -33 8.5 -62.5t26.5 -51.5t46 -35t66 -13zM365 743l106 -134l-15 -10l-104 127l-148 -127l-13 12l150 132h24z" />
    <glyph glyph-name="otilde" unicode="&#xf5;" horiz-adv-x="534" 
d="M225 -12q-40 0 -71 14t-52 39t-32 57.5t-11 70.5q0 70 16 133.5t47.5 111.5t78 76t108.5 28q40 0 71 -14t52 -39t32 -58t11 -70q0 -70 -16 -133.5t-47.5 -111.5t-78 -76t-108.5 -28zM227 7q85 0 139.5 58t74.5 160l8 40q3 17 4 34.5t1 37.5q0 33 -8.5 62.5t-26.5 51.5
t-46 35t-66 13q-85 0 -139.5 -58t-74.5 -160l-8 -40q-3 -17 -4 -34.5t-1 -37.5q0 -33 8.5 -62.5t26.5 -51.5t46 -35t66 -13zM403 628q-20 0 -34.5 7.5t-37.5 23.5q-19 13 -33 19t-31 6q-32 0 -69 -33l-11 12q23 22 43.5 30.5t41.5 8.5q20 0 34.5 -7t37.5 -23
q19 -13 33 -19.5t31 -6.5t33.5 8t35.5 25l11 -12q-23 -22 -43.5 -30.5t-41.5 -8.5z" />
    <glyph glyph-name="odieresis" unicode="&#xf6;" horiz-adv-x="534" 
d="M225 -12q-40 0 -71 14t-52 39t-32 57.5t-11 70.5q0 70 16 133.5t47.5 111.5t78 76t108.5 28q40 0 71 -14t52 -39t32 -58t11 -70q0 -70 -16 -133.5t-47.5 -111.5t-78 -76t-108.5 -28zM227 7q85 0 139.5 58t74.5 160l8 40q3 17 4 34.5t1 37.5q0 33 -8.5 62.5t-26.5 51.5
t-46 35t-66 13q-85 0 -139.5 -58t-74.5 -160l-8 -40q-3 -17 -4 -34.5t-1 -37.5q0 -33 8.5 -62.5t26.5 -51.5t46 -35t66 -13zM245 642q-12 0 -16 5.5t-4 11.5t3 15q2 7 6.5 12t16.5 5t16 -5.5t4 -11.5t-3 -15q-2 -7 -6.5 -12t-16.5 -5zM427 642q-12 0 -16 5.5t-4 11.5t3 15
q2 7 6.5 12t16.5 5t16 -5.5t4 -11.5t-3 -15q-2 -7 -6.5 -12t-16.5 -5z" />
    <glyph glyph-name="divide" unicode="&#xf7;" 
d="M71 296l4 19h476l-4 -19h-476zM270 81q-17 0 -23 6t-6 13q0 4 1 11t2 11q2 8 8.5 14.5t23.5 6.5q16 0 22 -6t6 -13q0 -4 -1 -11t-2 -11q-2 -8 -8 -14.5t-23 -6.5zM348 468q-17 0 -23 6t-6 13q0 4 1 11t2 11q2 8 8.5 14.5t23.5 6.5q16 0 22 -6t6 -13q0 -4 -1 -11t-2 -11
q-2 -8 -8 -14.5t-23 -6.5z" />
    <glyph glyph-name="oslash" unicode="&#xf8;" horiz-adv-x="534" 
d="M225 -12q-42 0 -72.5 14.5t-51.5 39.5l-58 -68l-14 11l61 72q-31 48 -31 112q0 70 16 133.5t47.5 111.5t78 76t108.5 28q41 0 72 -14t52 -40l58 68l14 -11l-61 -72q31 -48 31 -112q0 -70 -16 -133.5t-47.5 -111.5t-78 -76t-108.5 -28zM80 169q0 -27 5.5 -51.5t17.5 -44.5
l318 376q-18 23 -46.5 36.5t-67.5 13.5q-85 0 -139.5 -58t-74.5 -160l-8 -40q-3 -15 -4 -33.5t-1 -38.5zM227 7q85 0 139.5 58t74.5 160l8 40q3 15 4 33.5t1 38.5q0 55 -23 96l-318 -376q18 -23 46.5 -36.5t67.5 -13.5z" />
    <glyph glyph-name="ugrave" unicode="&#xf9;" horiz-adv-x="548" 
d="M166 506l-64 -320q-3 -17 -5 -35t-2 -28q0 -116 114 -116q34 0 68.5 13.5t64.5 48.5q17 20 35.5 50t27.5 75l62 312h21l-97 -487h85l-4 -19h-78q-23 0 -23 19q0 5 0.5 8t1.5 8l14 70h-3q-30 -57 -72.5 -87t-105.5 -30q-64 0 -98 34.5t-34 97.5q0 15 2 32.5t5 32.5l64 321
h21zM250 740l19 11l81 -155l-16 -9z" />
    <glyph glyph-name="uacute" unicode="&#xfa;" horiz-adv-x="548" 
d="M166 506l-64 -320q-3 -17 -5 -35t-2 -28q0 -116 114 -116q34 0 68.5 13.5t64.5 48.5q17 20 35.5 50t27.5 75l62 312h21l-97 -487h85l-4 -19h-78q-23 0 -23 19q0 5 0.5 8t1.5 8l14 70h-3q-30 -57 -72.5 -87t-105.5 -30q-64 0 -98 34.5t-34 97.5q0 15 2 32.5t5 32.5l64 321
h21zM303 587l-13 11l143 153l17 -13z" />
    <glyph glyph-name="ucircumflex" unicode="&#xfb;" horiz-adv-x="548" 
d="M166 506l-64 -320q-3 -17 -5 -35t-2 -28q0 -116 114 -116q34 0 68.5 13.5t64.5 48.5q17 20 35.5 50t27.5 75l62 312h21l-97 -487h85l-4 -19h-78q-23 0 -23 19q0 5 0.5 8t1.5 8l14 70h-3q-30 -57 -72.5 -87t-105.5 -30q-64 0 -98 34.5t-34 97.5q0 15 2 32.5t5 32.5l64 321
h21zM366 743l106 -134l-15 -10l-104 127l-148 -127l-13 12l150 132h24z" />
    <glyph glyph-name="udieresis" unicode="&#xfc;" horiz-adv-x="548" 
d="M166 506l-64 -320q-3 -17 -5 -35t-2 -28q0 -116 114 -116q34 0 68.5 13.5t64.5 48.5q17 20 35.5 50t27.5 75l62 312h21l-97 -487h85l-4 -19h-78q-23 0 -23 19q0 5 0.5 8t1.5 8l14 70h-3q-30 -57 -72.5 -87t-105.5 -30q-64 0 -98 34.5t-34 97.5q0 15 2 32.5t5 32.5l64 321
h21zM246 642q-12 0 -16 5.5t-4 11.5t3 15q2 7 6.5 12t16.5 5t16 -5.5t4 -11.5t-3 -15q-2 -7 -6.5 -12t-16.5 -5zM428 642q-12 0 -16 5.5t-4 11.5t3 15q2 7 6.5 12t16.5 5t16 -5.5t4 -11.5t-3 -15q-2 -7 -6.5 -12t-16.5 -5z" />
    <glyph glyph-name="yacute" unicode="&#xfd;" horiz-adv-x="460" 
d="M454 506h23l-388 -681q-8 -14 -16 -19.5t-22 -5.5h-75l4 19h84l100 178l-91 509h20l85 -482h3zM264 587l-13 11l143 153l17 -13z" />
    <glyph glyph-name="thorn" unicode="&#xfe;" horiz-adv-x="560" 
d="M201 740h21l-69 -345h3q32 56 74.5 89.5t106.5 33.5q39 0 69.5 -14.5t51.5 -39.5t31.5 -59.5t10.5 -74.5q0 -69 -16.5 -131t-48 -109t-78 -74.5t-106.5 -27.5q-64 0 -103 29t-53 76h-3l-58 -293h-21zM251 7q86 0 140.5 59t74.5 158l7 35q3 17 4.5 33.5t1.5 37.5
q0 35 -8.5 65.5t-26 53.5t-44 36.5t-63.5 13.5q-32 0 -58 -9t-52 -31q-29 -24 -55.5 -64t-37.5 -93l-28 -142q-5 -25 0.5 -52t22.5 -49.5t47 -37t75 -14.5z" />
    <glyph glyph-name="ydieresis" unicode="&#xff;" horiz-adv-x="460" 
d="M454 506h23l-388 -681q-8 -14 -16 -19.5t-22 -5.5h-75l4 19h84l100 178l-91 509h20l85 -482h3zM207 642q-12 0 -16 5.5t-4 11.5t3 15q2 7 6.5 12t16.5 5t16 -5.5t4 -11.5t-3 -15q-2 -7 -6.5 -12t-16.5 -5zM389 642q-12 0 -16 5.5t-4 11.5t3 15q2 7 6.5 12t16.5 5t16 -5.5
t4 -11.5t-3 -15q-2 -7 -6.5 -12t-16.5 -5z" />
    <glyph glyph-name="Amacron" unicode="&#x100;" horiz-adv-x="594" 
d="M497 0l-45 234h-318l-122 -234h-24l366 698h30l135 -698h-22zM367 673h-3l-220 -420h304zM270 856h258l-3 -18h-258z" />
    <glyph glyph-name="amacron" unicode="&#x101;" horiz-adv-x="567" 
d="M413 0q-23 0 -23 19q0 5 0.5 8t1.5 8l15 76h-3q-32 -56 -74.5 -89.5t-106.5 -33.5q-39 0 -69.5 14.5t-51.5 39.5t-31.5 59.5t-10.5 74.5q0 69 16.5 131t48 109t78 74.5t106.5 27.5q64 0 103 -29t53 -76h3l18 93h21l-97 -487h85l-4 -19h-78zM223 7q32 0 58 9t52 31
q29 24 55.5 64t37.5 93l28 142q5 25 -0.5 52t-22.5 49.5t-47 37t-75 14.5q-86 0 -141 -59t-74 -158l-7 -35q-3 -17 -4.5 -33.5t-1.5 -37.5q0 -35 8.5 -65.5t26 -53.5t44 -36.5t63.5 -13.5zM226 676h258l-3 -18h-258z" />
    <glyph glyph-name="Abreve" unicode="&#x102;" horiz-adv-x="594" 
d="M497 0l-45 234h-318l-122 -234h-24l366 698h30l135 -698h-22zM367 673h-3l-220 -420h304zM387 786q-25 0 -42.5 8t-30.5 23t-23 36.5t-19 49.5l16 7l15 -37q15 -37 34 -52.5t50 -15.5q34 0 57 15t50 54l25 36l16 -7q-18 -27 -33.5 -48.5t-32 -37t-36.5 -23.5t-46 -8z" />
    <glyph glyph-name="abreve" unicode="&#x103;" horiz-adv-x="567" 
d="M413 0q-23 0 -23 19q0 5 0.5 8t1.5 8l15 76h-3q-32 -56 -74.5 -89.5t-106.5 -33.5q-39 0 -69.5 14.5t-51.5 39.5t-31.5 59.5t-10.5 74.5q0 69 16.5 131t48 109t78 74.5t106.5 27.5q64 0 103 -29t53 -76h3l18 93h21l-97 -487h85l-4 -19h-78zM223 7q32 0 58 9t52 31
q29 24 55.5 64t37.5 93l28 142q5 25 -0.5 52t-22.5 49.5t-47 37t-75 14.5q-86 0 -141 -59t-74 -158l-7 -35q-3 -17 -4.5 -33.5t-1.5 -37.5q0 -35 8.5 -65.5t26 -53.5t44 -36.5t63.5 -13.5zM344 606q-25 0 -42.5 8t-30.5 23t-23 36.5t-19 49.5l16 7l15 -37q15 -37 34 -52.5
t50 -15.5q34 0 57 15t50 54l25 36l16 -7q-18 -27 -33.5 -48.5t-32 -37t-36.5 -23.5t-46 -8z" />
    <glyph glyph-name="Aogonek" unicode="&#x104;" horiz-adv-x="594" 
d="M354 698h30l135 -698q-39 -22 -67 -38.5t-46 -32t-26.5 -31t-8.5 -34.5q0 -24 14.5 -36t36.5 -12q24 0 40 8t25 17l13 -11q-12 -14 -32 -23t-46 -9q-31 0 -51.5 16t-20.5 50q0 14 6 29t22.5 31.5t44.5 35.5t73 40l-44 234h-318l-122 -234h-24zM367 673h-3l-220 -420h304z
" />
    <glyph glyph-name="aogonek" unicode="&#x105;" horiz-adv-x="567" 
d="M491 0q-39 -22 -67 -38.5t-46 -32t-26.5 -31t-8.5 -34.5q0 -24 14.5 -36t36.5 -12q24 0 40 8t25 17l13 -11q-12 -14 -32 -23t-46 -9q-31 0 -51.5 16t-20.5 50q0 13 6 28t21.5 31.5t42.5 34.5t69 39l-1 3h-47q-23 0 -23 19q0 5 0.5 8t1.5 8l15 76h-3q-32 -56 -74.5 -89.5
t-106.5 -33.5q-39 0 -69.5 14.5t-51.5 39.5t-31.5 59.5t-10.5 74.5q0 69 16.5 131t48 109t78 74.5t106.5 27.5q64 0 103 -29t53 -76h3l18 93h21l-97 -487h85zM223 7q32 0 58 9t52 31q29 24 55.5 64t37.5 93l28 142q5 25 -0.5 52t-22.5 49.5t-47 37t-75 14.5q-86 0 -141 -59
t-74 -158l-7 -35q-3 -17 -4.5 -33.5t-1.5 -37.5q0 -35 8.5 -65.5t26 -53.5t44 -36.5t63.5 -13.5z" />
    <glyph glyph-name="Cacute" unicode="&#x106;" horiz-adv-x="595" 
d="M291 -12q-50 0 -90.5 15t-70 44.5t-45.5 72.5t-16 100q0 49 7.5 105t24.5 110t42.5 104t62.5 88t84.5 60.5t107.5 22.5q84 0 129 -38t62 -103l-21 -5q-8 28 -21 51.5t-33.5 40t-49 25.5t-67.5 9q-53 0 -99 -21.5t-83 -61.5t-63 -96.5t-40 -126.5l-11 -55q-6 -32 -8 -60
t-2 -49q0 -98 51.5 -155t148.5 -57q70 0 119.5 35.5t89.5 107.5l19 -10q-47 -82 -101 -117.5t-127 -35.5zM405 767l-13 11l143 153l17 -13z" />
    <glyph glyph-name="cacute" unicode="&#x107;" horiz-adv-x="479" 
d="M223 -12q-41 0 -71 15t-50.5 41.5t-30.5 62.5t-10 79q0 70 15.5 130.5t46 105.5t75.5 70.5t103 25.5q60 0 99.5 -32t50.5 -83l-19 -5q-11 49 -46.5 75t-86.5 26q-77 0 -131.5 -54t-71.5 -148l-9 -49q-3 -18 -4.5 -30.5t-1.5 -31.5q0 -37 8 -69.5t25.5 -57t44 -38.5
t64.5 -14q59 0 103 31.5t79 84.5l17 -9q-37 -57 -85 -91.5t-114 -34.5zM294 587l-13 11l143 153l17 -13z" />
    <glyph glyph-name="Ccircumflex" unicode="&#x108;" horiz-adv-x="595" 
d="M291 -12q-50 0 -90.5 15t-70 44.5t-45.5 72.5t-16 100q0 49 7.5 105t24.5 110t42.5 104t62.5 88t84.5 60.5t107.5 22.5q84 0 129 -38t62 -103l-21 -5q-8 28 -21 51.5t-33.5 40t-49 25.5t-67.5 9q-53 0 -99 -21.5t-83 -61.5t-63 -96.5t-40 -126.5l-11 -55q-6 -32 -8 -60
t-2 -49q0 -98 51.5 -155t148.5 -57q70 0 119.5 35.5t89.5 107.5l19 -10q-47 -82 -101 -117.5t-127 -35.5zM454 923l106 -134l-15 -10l-104 127l-148 -127l-13 12l150 132h24z" />
    <glyph glyph-name="ccircumflex" unicode="&#x109;" horiz-adv-x="479" 
d="M223 -12q-41 0 -71 15t-50.5 41.5t-30.5 62.5t-10 79q0 70 15.5 130.5t46 105.5t75.5 70.5t103 25.5q60 0 99.5 -32t50.5 -83l-19 -5q-11 49 -46.5 75t-86.5 26q-77 0 -131.5 -54t-71.5 -148l-9 -49q-3 -18 -4.5 -30.5t-1.5 -31.5q0 -37 8 -69.5t25.5 -57t44 -38.5
t64.5 -14q59 0 103 31.5t79 84.5l17 -9q-37 -57 -85 -91.5t-114 -34.5zM357 743l106 -134l-15 -10l-104 127l-148 -127l-13 12l150 132h24z" />
    <glyph glyph-name="Cdotaccent" unicode="&#x10a;" horiz-adv-x="595" 
d="M291 -12q-50 0 -90.5 15t-70 44.5t-45.5 72.5t-16 100q0 49 7.5 105t24.5 110t42.5 104t62.5 88t84.5 60.5t107.5 22.5q84 0 129 -38t62 -103l-21 -5q-8 28 -21 51.5t-33.5 40t-49 25.5t-67.5 9q-53 0 -99 -21.5t-83 -61.5t-63 -96.5t-40 -126.5l-11 -55q-6 -32 -8 -60
t-2 -49q0 -98 51.5 -155t148.5 -57q70 0 119.5 35.5t89.5 107.5l19 -10q-47 -82 -101 -117.5t-127 -35.5zM423 822q-12 0 -16 5.5t-4 11.5t3 15q2 7 6.5 12t16.5 5t16 -5.5t4 -11.5t-3 -15q-2 -7 -6.5 -12t-16.5 -5z" />
    <glyph glyph-name="cdotaccent" unicode="&#x10b;" horiz-adv-x="479" 
d="M223 -12q-41 0 -71 15t-50.5 41.5t-30.5 62.5t-10 79q0 70 15.5 130.5t46 105.5t75.5 70.5t103 25.5q60 0 99.5 -32t50.5 -83l-19 -5q-11 49 -46.5 75t-86.5 26q-77 0 -131.5 -54t-71.5 -148l-9 -49q-3 -18 -4.5 -30.5t-1.5 -31.5q0 -37 8 -69.5t25.5 -57t44 -38.5
t64.5 -14q59 0 103 31.5t79 84.5l17 -9q-37 -57 -85 -91.5t-114 -34.5zM327 642q-12 0 -16 5.5t-4 11.5t3 15q2 7 6.5 12t16.5 5t16 -5.5t4 -11.5t-3 -15q-2 -7 -6.5 -12t-16.5 -5z" />
    <glyph glyph-name="Ccaron" unicode="&#x10c;" horiz-adv-x="595" 
d="M291 -12q-50 0 -90.5 15t-70 44.5t-45.5 72.5t-16 100q0 49 7.5 105t24.5 110t42.5 104t62.5 88t84.5 60.5t107.5 22.5q84 0 129 -38t62 -103l-21 -5q-8 28 -21 51.5t-33.5 40t-49 25.5t-67.5 9q-53 0 -99 -21.5t-83 -61.5t-63 -96.5t-40 -126.5l-11 -55q-6 -32 -8 -60
t-2 -49q0 -98 51.5 -155t148.5 -57q70 0 119.5 35.5t89.5 107.5l19 -10q-47 -82 -101 -117.5t-127 -35.5zM404 783l-106 134l15 10l104 -127l148 127l13 -12l-150 -132h-24z" />
    <glyph glyph-name="ccaron" unicode="&#x10d;" horiz-adv-x="479" 
d="M223 -12q-41 0 -71 15t-50.5 41.5t-30.5 62.5t-10 79q0 70 15.5 130.5t46 105.5t75.5 70.5t103 25.5q60 0 99.5 -32t50.5 -83l-19 -5q-11 49 -46.5 75t-86.5 26q-77 0 -131.5 -54t-71.5 -148l-9 -49q-3 -18 -4.5 -30.5t-1.5 -31.5q0 -37 8 -69.5t25.5 -57t44 -38.5
t64.5 -14q59 0 103 31.5t79 84.5l17 -9q-37 -57 -85 -91.5t-114 -34.5zM305 603l-106 134l15 10l104 -127l148 127l13 -12l-150 -132h-24z" />
    <glyph glyph-name="Dcaron" unicode="&#x10e;" horiz-adv-x="648" 
d="M193 698h185q115 0 173.5 -60.5t58.5 -169.5q0 -85 -19 -169t-59.5 -150.5t-102.5 -107.5t-147 -41h-227zM282 20q59 0 106.5 22.5t83.5 61.5t59.5 90.5t35.5 108.5l11 55q6 32 8 60.5t2 49.5q0 97 -52.5 153.5t-160.5 56.5h-164l-130 -658h201zM373 783l-106 134l15 10
l104 -127l148 127l13 -12l-150 -132h-24z" />
    <glyph glyph-name="dcaron" unicode="&#x10f;" horiz-adv-x="567" 
d="M413 0q-23 0 -23 19q0 5 0.5 8t1.5 8l15 76h-3q-32 -56 -74.5 -89.5t-106.5 -33.5q-39 0 -69.5 14.5t-51.5 39.5t-31.5 59.5t-10.5 74.5q0 69 16.5 131t48 109t78 74.5t106.5 27.5q64 0 103 -29t53 -76h3l65 327h21l-144 -721h85l-4 -19h-78zM223 7q32 0 58 9t52 31
q29 24 55.5 64t37.5 93l28 142q5 25 -0.5 52t-22.5 49.5t-47 37t-75 14.5q-86 0 -141 -59t-74 -158l-7 -35q-3 -17 -4.5 -33.5t-1.5 -37.5q0 -35 8.5 -65.5t26 -53.5t44 -36.5t63.5 -13.5zM606 564h-17l45 176h25z" />
    <glyph glyph-name="Dcroat" unicode="&#x110;" horiz-adv-x="651" 
d="M129 359h-88l4 19h88l63 320h185q115 0 173.5 -60.5t58.5 -169.5q0 -85 -19 -169t-59.5 -150.5t-102.5 -107.5t-147 -41h-227zM285 20q59 0 106.5 22.5t83.5 61.5t59.5 90.5t35.5 108.5l11 55q6 32 8 60.5t2 49.5q0 97 -52.5 153.5t-160.5 56.5h-164l-59 -300h167l-4 -19
h-167l-67 -339h201z" />
    <glyph glyph-name="dcroat" unicode="&#x111;" horiz-adv-x="570" 
d="M413 0q-23 0 -23 19q0 5 0.5 8t1.5 8l15 76h-3q-32 -56 -74.5 -89.5t-106.5 -33.5q-39 0 -69.5 14.5t-51.5 39.5t-31.5 59.5t-10.5 74.5q0 69 16.5 131t48 109t78 74.5t106.5 27.5q64 0 103 -29t53 -76h3l43 216h-163l4 18h163l18 93h21l-19 -93h67l-4 -18h-66l-122 -610
h85l-4 -19h-78zM223 7q32 0 58 9t52 31q29 24 55.5 64t37.5 93l28 142q5 25 -0.5 52t-22.5 49.5t-47 37t-75 14.5q-86 0 -141 -59t-74 -158l-7 -35q-3 -17 -4.5 -33.5t-1.5 -37.5q0 -35 8.5 -65.5t26 -53.5t44 -36.5t63.5 -13.5z" />
    <glyph glyph-name="Emacron" unicode="&#x112;" horiz-adv-x="553" 
d="M54 0l140 698h378l-4 -20h-356l-63 -314h344l-4 -20h-344l-65 -324h356l-4 -20h-378zM281 856h258l-3 -18h-258z" />
    <glyph glyph-name="emacron" unicode="&#x113;" horiz-adv-x="505" 
d="M237 -12q-85 0 -130.5 48t-45.5 151q0 69 18 129.5t50.5 105t78 70.5t100.5 26q72 0 115 -33t43 -90q0 -24 -12 -51.5t-51.5 -51t-115 -40t-202.5 -19.5q-1 -8 -2 -22t-1 -22q0 -97 38.5 -139.5t116.5 -42.5q62 0 110 33t79 92l19 -8q-38 -71 -91.5 -103.5t-116.5 -32.5z
M306 499q-42 0 -78 -17t-63.5 -48t-46.5 -73t-28 -92l-3 -17q112 2 182 15t109 33t52.5 45t13.5 50q0 46 -32.5 75t-105.5 29zM213 676h258l-3 -18h-258z" />
    <glyph glyph-name="Ebreve" unicode="&#x114;" horiz-adv-x="553" 
d="M54 0l140 698h378l-4 -20h-356l-63 -314h344l-4 -20h-344l-65 -324h356l-4 -20h-378zM398 786q-25 0 -42.5 8t-30.5 23t-23 36.5t-19 49.5l16 7l15 -37q15 -37 34 -52.5t50 -15.5q34 0 57 15t50 54l25 36l16 -7q-18 -27 -33.5 -48.5t-32 -37t-36.5 -23.5t-46 -8z" />
    <glyph glyph-name="ebreve" unicode="&#x115;" horiz-adv-x="505" 
d="M237 -12q-85 0 -130.5 48t-45.5 151q0 69 18 129.5t50.5 105t78 70.5t100.5 26q72 0 115 -33t43 -90q0 -24 -12 -51.5t-51.5 -51t-115 -40t-202.5 -19.5q-1 -8 -2 -22t-1 -22q0 -97 38.5 -139.5t116.5 -42.5q62 0 110 33t79 92l19 -8q-38 -71 -91.5 -103.5t-116.5 -32.5z
M306 499q-42 0 -78 -17t-63.5 -48t-46.5 -73t-28 -92l-3 -17q112 2 182 15t109 33t52.5 45t13.5 50q0 46 -32.5 75t-105.5 29zM331 606q-25 0 -42.5 8t-30.5 23t-23 36.5t-19 49.5l16 7l15 -37q15 -37 34 -52.5t50 -15.5q34 0 57 15t50 54l25 36l16 -7q-18 -27 -33.5 -48.5
t-32 -37t-36.5 -23.5t-46 -8z" />
    <glyph glyph-name="Edotaccent" unicode="&#x116;" horiz-adv-x="553" 
d="M54 0l140 698h378l-4 -20h-356l-63 -314h344l-4 -20h-344l-65 -324h356l-4 -20h-378zM405 822q-12 0 -16 5.5t-4 11.5t3 15q2 7 6.5 12t16.5 5t16 -5.5t4 -11.5t-3 -15q-2 -7 -6.5 -12t-16.5 -5z" />
    <glyph glyph-name="edotaccent" unicode="&#x117;" horiz-adv-x="505" 
d="M237 -12q-85 0 -130.5 48t-45.5 151q0 69 18 129.5t50.5 105t78 70.5t100.5 26q72 0 115 -33t43 -90q0 -24 -12 -51.5t-51.5 -51t-115 -40t-202.5 -19.5q-1 -8 -2 -22t-1 -22q0 -97 38.5 -139.5t116.5 -42.5q62 0 110 33t79 92l19 -8q-38 -71 -91.5 -103.5t-116.5 -32.5z
M306 499q-42 0 -78 -17t-63.5 -48t-46.5 -73t-28 -92l-3 -17q112 2 182 15t109 33t52.5 45t13.5 50q0 46 -32.5 75t-105.5 29zM338 642q-12 0 -16 5.5t-4 11.5t3 15q2 7 6.5 12t16.5 5t16 -5.5t4 -11.5t-3 -15q-2 -7 -6.5 -12t-16.5 -5z" />
    <glyph glyph-name="Eogonek" unicode="&#x118;" horiz-adv-x="553" 
d="M194 698h378l-4 -20h-356l-63 -314h344l-4 -20h-344l-65 -324h356l-4 -20q-39 -22 -67 -38.5t-46 -32t-26.5 -31t-8.5 -34.5q0 -24 14.5 -36t36.5 -12q24 0 40 8t25 17l13 -11q-12 -14 -32 -23t-46 -9q-31 0 -51.5 16t-20.5 50q0 13 6 28t21.5 31.5t42.5 34.5t69 39l-1 3
h-347z" />
    <glyph glyph-name="eogonek" unicode="&#x119;" horiz-adv-x="505" 
d="M249 -202q-31 0 -51.5 16t-20.5 50q0 13 4.5 28t16.5 31.5t33 33.5t54 34v3q-24 -6 -48 -6q-85 0 -130.5 48t-45.5 151q0 69 18 129.5t50.5 105t78 70.5t100.5 26q72 0 115 -33t43 -90q0 -24 -12 -51t-51.5 -51t-115 -40.5t-202.5 -19.5q-1 -8 -2 -22t-1 -22
q0 -97 38.5 -139.5t116.5 -42.5q62 0 110 33t79 92l19 -8q-23 -42 -51 -69t-59 -45q-36 -21 -62 -38.5t-42.5 -34.5t-24.5 -34.5t-8 -38.5q0 -24 14.5 -36t36.5 -12q24 0 40 8t25 17l13 -11q-12 -14 -32 -23t-46 -9zM306 499q-42 0 -78 -17t-63.5 -48t-46.5 -73t-28 -92
l-3 -17q112 2 182 15t109 33t52.5 45t13.5 50q0 46 -32.5 75t-105.5 29z" />
    <glyph glyph-name="Ecaron" unicode="&#x11a;" horiz-adv-x="553" 
d="M54 0l140 698h378l-4 -20h-356l-63 -314h344l-4 -20h-344l-65 -324h356l-4 -20h-378zM386 783l-106 134l15 10l104 -127l148 127l13 -12l-150 -132h-24z" />
    <glyph glyph-name="ecaron" unicode="&#x11b;" horiz-adv-x="505" 
d="M237 -12q-85 0 -130.5 48t-45.5 151q0 69 18 129.5t50.5 105t78 70.5t100.5 26q72 0 115 -33t43 -90q0 -24 -12 -51.5t-51.5 -51t-115 -40t-202.5 -19.5q-1 -8 -2 -22t-1 -22q0 -97 38.5 -139.5t116.5 -42.5q62 0 110 33t79 92l19 -8q-38 -71 -91.5 -103.5t-116.5 -32.5z
M306 499q-42 0 -78 -17t-63.5 -48t-46.5 -73t-28 -92l-3 -17q112 2 182 15t109 33t52.5 45t13.5 50q0 46 -32.5 75t-105.5 29zM316 603l-106 134l15 10l104 -127l148 127l13 -12l-150 -132h-24z" />
    <glyph glyph-name="Gcircumflex" unicode="&#x11c;" horiz-adv-x="660" 
d="M525 114h-3q-39 -66 -97 -96t-130 -30q-50 0 -91.5 15t-71.5 44.5t-46.5 72.5t-16.5 100q0 49 7.5 105t24 110t43 104t63.5 88t85.5 60.5t110.5 22.5q91 0 140 -37.5t67 -103.5l-21 -5q-17 58 -59.5 92t-127.5 34q-55 0 -102 -21.5t-84 -61.5t-63.5 -96.5t-40.5 -126.5
l-11 -55q-6 -32 -8 -60t-2 -49q0 -98 52 -155t152 -57q40 0 79.5 11.5t73 35.5t58 61t35.5 89l22 107h-176l4 20h198l-66 -332h-21zM461 923l106 -134l-15 -10l-104 127l-148 -127l-13 12l150 132h24z" />
    <glyph glyph-name="gcircumflex" unicode="&#x11d;" horiz-adv-x="485" 
d="M440 -55q0 -80 -67 -118.5t-190 -38.5q-92 0 -139.5 32.5t-47.5 87.5q0 48 29.5 80t78.5 49v3q-18 5 -28.5 22t-10.5 37q0 37 29.5 59.5t68.5 33.5l1 4q-36 17 -55 48t-19 68q0 48 14.5 86t40 64.5t60.5 41t76 14.5q37 0 66 -12h166l-3 -19h-130q24 -19 36.5 -45
t12.5 -56q0 -48 -14.5 -86t-40 -64.5t-60.5 -41t-76 -14.5q-25 0 -46 6q-58 -15 -82.5 -36.5t-24.5 -50.5q0 -19 13 -32.5t51 -13.5h139q80 0 116 -29t36 -79zM238 199q68 0 110 36.5t53 94.5q5 26 6 38t1 18q0 49 -32.5 81t-94.5 32q-68 0 -110 -36.5t-53 -94.5
q-5 -26 -6 -38t-1 -18q0 -49 32.5 -81t94.5 -32zM418 -56q0 43 -30 66t-104 23h-148q-53 -14 -85.5 -43.5t-32.5 -79.5q0 -27 11.5 -46.5t32.5 -32t49.5 -18.5t62.5 -6h32q46 0 85 8t67 25t44 42.5t16 61.5zM330 743l106 -134l-15 -10l-104 127l-148 -127l-13 12l150 132h24
z" />
    <glyph glyph-name="Gbreve" unicode="&#x11e;" horiz-adv-x="660" 
d="M525 114h-3q-39 -66 -97 -96t-130 -30q-50 0 -91.5 15t-71.5 44.5t-46.5 72.5t-16.5 100q0 49 7.5 105t24 110t43 104t63.5 88t85.5 60.5t110.5 22.5q91 0 140 -37.5t67 -103.5l-21 -5q-17 58 -59.5 92t-127.5 34q-55 0 -102 -21.5t-84 -61.5t-63.5 -96.5t-40.5 -126.5
l-11 -55q-6 -32 -8 -60t-2 -49q0 -98 52 -155t152 -57q40 0 79.5 11.5t73 35.5t58 61t35.5 89l22 107h-176l4 20h198l-66 -332h-21zM423 786q-25 0 -42.5 8t-30.5 23t-23 36.5t-19 49.5l16 7l15 -37q15 -37 34 -52.5t50 -15.5q34 0 57 15t50 54l25 36l16 -7
q-18 -27 -33.5 -48.5t-32 -37t-36.5 -23.5t-46 -8z" />
    <glyph glyph-name="gbreve" unicode="&#x11f;" horiz-adv-x="485" 
d="M440 -55q0 -80 -67 -118.5t-190 -38.5q-92 0 -139.5 32.5t-47.5 87.5q0 48 29.5 80t78.5 49v3q-18 5 -28.5 22t-10.5 37q0 37 29.5 59.5t68.5 33.5l1 4q-36 17 -55 48t-19 68q0 48 14.5 86t40 64.5t60.5 41t76 14.5q37 0 66 -12h166l-3 -19h-130q24 -19 36.5 -45
t12.5 -56q0 -48 -14.5 -86t-40 -64.5t-60.5 -41t-76 -14.5q-25 0 -46 6q-58 -15 -82.5 -36.5t-24.5 -50.5q0 -19 13 -32.5t51 -13.5h139q80 0 116 -29t36 -79zM238 199q68 0 110 36.5t53 94.5q5 26 6 38t1 18q0 49 -32.5 81t-94.5 32q-68 0 -110 -36.5t-53 -94.5
q-5 -26 -6 -38t-1 -18q0 -49 32.5 -81t94.5 -32zM418 -56q0 43 -30 66t-104 23h-148q-53 -14 -85.5 -43.5t-32.5 -79.5q0 -27 11.5 -46.5t32.5 -32t49.5 -18.5t62.5 -6h32q46 0 85 8t67 25t44 42.5t16 61.5zM298 606q-25 0 -42.5 8t-30.5 23t-23 36.5t-19 49.5l16 7l15 -37
q15 -37 34 -52.5t50 -15.5q34 0 57 15t50 54l25 36l16 -7q-18 -27 -33.5 -48.5t-32 -37t-36.5 -23.5t-46 -8z" />
    <glyph glyph-name="Gdotaccent" unicode="&#x120;" horiz-adv-x="660" 
d="M525 114h-3q-39 -66 -97 -96t-130 -30q-50 0 -91.5 15t-71.5 44.5t-46.5 72.5t-16.5 100q0 49 7.5 105t24 110t43 104t63.5 88t85.5 60.5t110.5 22.5q91 0 140 -37.5t67 -103.5l-21 -5q-17 58 -59.5 92t-127.5 34q-55 0 -102 -21.5t-84 -61.5t-63.5 -96.5t-40.5 -126.5
l-11 -55q-6 -32 -8 -60t-2 -49q0 -98 52 -155t152 -57q40 0 79.5 11.5t73 35.5t58 61t35.5 89l22 107h-176l4 20h198l-66 -332h-21zM430 822q-12 0 -16 5.5t-4 11.5t3 15q2 7 6.5 12t16.5 5t16 -5.5t4 -11.5t-3 -15q-2 -7 -6.5 -12t-16.5 -5z" />
    <glyph glyph-name="gdotaccent" unicode="&#x121;" horiz-adv-x="485" 
d="M440 -55q0 -80 -67 -118.5t-190 -38.5q-92 0 -139.5 32.5t-47.5 87.5q0 48 29.5 80t78.5 49v3q-18 5 -28.5 22t-10.5 37q0 37 29.5 59.5t68.5 33.5l1 4q-36 17 -55 48t-19 68q0 48 14.5 86t40 64.5t60.5 41t76 14.5q37 0 66 -12h166l-3 -19h-130q24 -19 36.5 -45
t12.5 -56q0 -48 -14.5 -86t-40 -64.5t-60.5 -41t-76 -14.5q-25 0 -46 6q-58 -15 -82.5 -36.5t-24.5 -50.5q0 -19 13 -32.5t51 -13.5h139q80 0 116 -29t36 -79zM238 199q68 0 110 36.5t53 94.5q5 26 6 38t1 18q0 49 -32.5 81t-94.5 32q-68 0 -110 -36.5t-53 -94.5
q-5 -26 -6 -38t-1 -18q0 -49 32.5 -81t94.5 -32zM418 -56q0 43 -30 66t-104 23h-148q-53 -14 -85.5 -43.5t-32.5 -79.5q0 -27 11.5 -46.5t32.5 -32t49.5 -18.5t62.5 -6h32q46 0 85 8t67 25t44 42.5t16 61.5zM305 642q-12 0 -16 5.5t-4 11.5t3 15q2 7 6.5 12t16.5 5t16 -5.5
t4 -11.5t-3 -15q-2 -7 -6.5 -12t-16.5 -5z" />
    <glyph glyph-name="Gcommaaccent" unicode="&#x122;" horiz-adv-x="660" 
d="M525 114h-3q-39 -66 -97 -96t-130 -30q-50 0 -91.5 15t-71.5 44.5t-46.5 72.5t-16.5 100q0 49 7.5 105t24 110t43 104t63.5 88t85.5 60.5t110.5 22.5q91 0 140 -37.5t67 -103.5l-21 -5q-17 58 -59.5 92t-127.5 34q-55 0 -102 -21.5t-84 -61.5t-63.5 -96.5t-40.5 -126.5
l-11 -55q-6 -32 -8 -60t-2 -49q0 -98 52 -155t152 -57q40 0 79.5 11.5t73 35.5t58 61t35.5 89l22 107h-176l4 20h198l-66 -332h-21zM283 -66q13 0 17 -5.5t4 -10.5q0 -4 -0.5 -8t-1.5 -9q-4 -23 -20.5 -55.5t-39.5 -57.5h-18q23 26 37 52.5t19 44.5q-15 0 -20 5t-5 11t2 16
q2 7 7 12t19 5z" />
    <glyph glyph-name="gcommaaccent" unicode="&#x123;" horiz-adv-x="485" 
d="M440 -55q0 -80 -67 -118.5t-190 -38.5q-92 0 -139.5 32.5t-47.5 87.5q0 48 29.5 80t78.5 49v3q-18 5 -28.5 22t-10.5 37q0 37 29.5 59.5t68.5 33.5l1 4q-36 17 -55 48t-19 68q0 48 14.5 86t40 64.5t60.5 41t76 14.5q37 0 66 -12h166l-3 -19h-130q24 -19 36.5 -45
t12.5 -56q0 -48 -14.5 -86t-40 -64.5t-60.5 -41t-76 -14.5q-25 0 -46 6q-58 -15 -82.5 -36.5t-24.5 -50.5q0 -19 13 -32.5t51 -13.5h139q80 0 116 -29t36 -79zM238 199q68 0 110 36.5t53 94.5q5 26 6 38t1 18q0 49 -32.5 81t-94.5 32q-68 0 -110 -36.5t-53 -94.5
q-5 -26 -6 -38t-1 -18q0 -49 32.5 -81t94.5 -32zM418 -56q0 43 -30 66t-104 23h-148q-53 -14 -85.5 -43.5t-32.5 -79.5q0 -27 11.5 -46.5t32.5 -32t49.5 -18.5t62.5 -6h32q46 0 85 8t67 25t44 42.5t16 61.5zM291 599q-13 0 -17 5.5t-4 10.5q0 4 0.5 8t1.5 9q4 23 20.5 55.5
t39.5 57.5h18q-23 -26 -37 -52.5t-19 -44.5q15 0 20 -5t5 -11t-2 -16q-2 -7 -7 -12t-19 -5z" />
    <glyph glyph-name="Hcircumflex" unicode="&#x124;" horiz-adv-x="680" 
d="M571 344h-426l-69 -344h-22l140 698h22l-67 -334h426l67 334h22l-140 -698h-22zM485 923l106 -134l-15 -10l-104 127l-148 -127l-13 12l150 132h24z" />
    <glyph glyph-name="hcircumflex" unicode="&#x125;" horiz-adv-x="549" 
d="M201 740h21l-67 -339h3q30 57 72.5 87t105.5 30q64 0 98 -34.5t34 -97.5q0 -15 -2 -32.5t-5 -32.5l-60 -302h85l-4 -19h-78q-23 0 -23 19q0 5 0.5 8t1.5 8l57 285q3 17 5 35t2 28q0 116 -114 116q-34 0 -68.5 -13.5t-64.5 -48.5q-17 -20 -35.5 -50t-27.5 -75l-62 -312
h-21zM253 891l106 -134l-15 -10l-104 127l-148 -127l-13 12l150 132h24z" />
    <glyph glyph-name="Hbar" unicode="&#x126;" horiz-adv-x="686" 
d="M574 344h-426l-69 -344h-22l108 537h-83l4 19h83l28 142h22l-28 -142h426l28 142h22l-28 -142h83l-4 -19h-83l-108 -537h-22zM578 364l35 173h-426l-35 -173h426z" />
    <glyph glyph-name="hbar" unicode="&#x127;" horiz-adv-x="552" 
d="M182 629h-67l4 18h67l18 93h21l-18 -93h162l-4 -18h-162l-45 -228h3q30 57 72.5 87t105.5 30q64 0 98 -34.5t34 -97.5q0 -15 -2 -32.5t-5 -32.5l-60 -302h85l-4 -19h-78q-23 0 -23 19q0 5 0.5 8t1.5 8l57 285q3 17 5 35t2 28q0 116 -114 116q-34 0 -68.5 -13.5
t-64.5 -48.5q-17 -20 -35.5 -50t-27.5 -75l-62 -312h-21z" />
    <glyph glyph-name="Itilde" unicode="&#x128;" horiz-adv-x="368" 
d="M15 0l4 19h107l132 660h-107l4 19h236l-4 -19h-107l-132 -660h107l-4 -19h-236zM356 808q-20 0 -34.5 7.5t-37.5 23.5q-19 13 -33 19t-31 6q-32 0 -69 -33l-11 12q23 22 43.5 30.5t41.5 8.5q20 0 34.5 -7t37.5 -23q19 -13 33 -19.5t31 -6.5t33.5 8t35.5 25l11 -12
q-23 -22 -43.5 -30.5t-41.5 -8.5z" />
    <glyph glyph-name="itilde" unicode="&#x129;" horiz-adv-x="235" 
d="M81 0q-23 0 -23 19q0 5 0.5 8t1.5 8l95 471h21l-98 -487h85l-4 -19h-78zM262 628q-20 0 -34.5 7.5t-37.5 23.5q-19 13 -33 19t-31 6q-32 0 -69 -33l-11 12q23 22 43.5 30.5t41.5 8.5q20 0 34.5 -7t37.5 -23q19 -13 33 -19.5t31 -6.5t33.5 8t35.5 25l11 -12
q-23 -22 -43.5 -30.5t-41.5 -8.5z" />
    <glyph glyph-name="Imacron" unicode="&#x12a;" horiz-adv-x="368" 
d="M15 0l4 19h107l132 660h-107l4 19h236l-4 -19h-107l-132 -660h107l-4 -19h-236zM174 856h258l-3 -18h-258z" />
    <glyph glyph-name="imacron" unicode="&#x12b;" horiz-adv-x="235" 
d="M81 0q-23 0 -23 19q0 5 0.5 8t1.5 8l95 471h21l-98 -487h85l-4 -19h-78zM69 676h258l-3 -18h-258z" />
    <glyph glyph-name="Ibreve" unicode="&#x12c;" horiz-adv-x="368" 
d="M15 0l4 19h107l132 660h-107l4 19h236l-4 -19h-107l-132 -660h107l-4 -19h-236zM291 786q-25 0 -42.5 8t-30.5 23t-23 36.5t-19 49.5l16 7l15 -37q15 -37 34 -52.5t50 -15.5q34 0 57 15t50 54l25 36l16 -7q-18 -27 -33.5 -48.5t-32 -37t-36.5 -23.5t-46 -8z" />
    <glyph glyph-name="ibreve" unicode="&#x12d;" horiz-adv-x="235" 
d="M81 0q-23 0 -23 19q0 5 0.5 8t1.5 8l95 471h21l-98 -487h85l-4 -19h-78zM187 606q-25 0 -42.5 8t-30.5 23t-23 36.5t-19 49.5l16 7l15 -37q15 -37 34 -52.5t50 -15.5q34 0 57 15t50 54l25 36l16 -7q-18 -27 -33.5 -48.5t-32 -37t-36.5 -23.5t-46 -8z" />
    <glyph glyph-name="Iogonek" unicode="&#x12e;" horiz-adv-x="368" 
d="M19 19h107l132 660h-107l4 19h236l-4 -19h-107l-132 -660h107l-4 -19q-39 -22 -67 -38.5t-46 -32t-26.5 -31t-8.5 -34.5q0 -24 14.5 -36t36.5 -12q24 0 40 8t25 17l13 -11q-12 -14 -32 -23t-46 -9q-31 0 -51.5 16t-20.5 50q0 13 6 28t21.5 31.5t42.5 34.5t69 39l-1 3
h-205z" />
    <glyph glyph-name="iogonek" unicode="&#x12f;" horiz-adv-x="235" 
d="M159 0q-39 -22 -67 -38.5t-46 -32t-26.5 -31t-8.5 -34.5q0 -24 14.5 -36t36.5 -12q24 0 40 8t25 17l13 -11q-12 -14 -32 -23t-46 -9q-31 0 -51.5 16t-20.5 50q0 13 6 28t21.5 31.5t42.5 34.5t69 39l-1 3h-47q-23 0 -23 19q0 5 0.5 8t1.5 8l95 471h21l-98 -487h85z
M200 673q-11 0 -15.5 5t-4.5 11q0 3 0.5 6t1.5 8q2 9 8 14t19 5q11 0 15.5 -5t4.5 -11q0 -3 -0.5 -6t-1.5 -8q-2 -9 -8 -14t-19 -5z" />
    <glyph glyph-name="Idotaccent" unicode="&#x130;" horiz-adv-x="368" 
d="M15 0l4 19h107l132 660h-107l4 19h236l-4 -19h-107l-132 -660h107l-4 -19h-236zM298 822q-12 0 -16 5.5t-4 11.5t3 15q2 7 6.5 12t16.5 5t16 -5.5t4 -11.5t-3 -15q-2 -7 -6.5 -12t-16.5 -5z" />
    <glyph glyph-name="dotlessi" unicode="&#x131;" horiz-adv-x="235" 
d="M81 0q-23 0 -23 19q0 5 0.5 8t1.5 8l95 471h21l-98 -487h85l-4 -19h-78z" />
    <glyph glyph-name="IJ" unicode="&#x132;" horiz-adv-x="624" 
d="M616 698l-99 -496q-21 -105 -85.5 -159.5t-167.5 -54.5q-88 0 -138 40t-57 106l20 5q7 -68 55 -100t123 -32q91 0 150 50t78 145l95 476h-196l4 20h218zM185 698h22l-82 -408h-22z" />
    <glyph glyph-name="ij" unicode="&#x133;" horiz-adv-x="465" 
d="M200 673q-11 0 -15.5 5t-4.5 11q0 3 0.5 6t1.5 8q2 9 8 14t19 5q11 0 15.5 -5t4.5 -11q0 -3 -0.5 -6t-1.5 -8q-2 -9 -8 -14t-19 -5zM81 0q-23 0 -23 19q0 5 0.5 8t1.5 8l95 471h21l-98 -487h85l-4 -19h-78zM390 506h21l-134 -673q-4 -20 -12 -26.5t-29 -6.5h-72l4 19h85z
M435 673q-11 0 -15.5 5t-4.5 11q0 3 0.5 6t1.5 8q2 9 8 14t19 5q11 0 15.5 -5t4.5 -11q0 -3 -0.5 -6t-1.5 -8q-2 -9 -8 -14t-19 -5z" />
    <glyph glyph-name="Jcircumflex" unicode="&#x134;" horiz-adv-x="455" 
d="M446 698l-103 -520q-18 -92 -70.5 -141t-130.5 -49q-73 0 -112 36.5t-44 93.5l20 5q6 -58 41.5 -86.5t94.5 -28.5q72 0 117.5 45.5t62.5 130.5l99 494h-246l3 20h268zM350 923l106 -134l-15 -10l-104 127l-148 -127l-13 12l150 132h24z" />
    <glyph glyph-name="jcircumflex" unicode="&#x135;" horiz-adv-x="229" 
d="M-68 -181h85l137 687h21l-134 -673q-4 -20 -12 -26.5t-29 -6.5h-72zM224 743l106 -134l-15 -10l-104 127l-148 -127l-13 12l150 132h24z" />
    <glyph glyph-name="Kcommaaccent" unicode="&#x136;" horiz-adv-x="564" 
d="M290 388l-165 -151l-49 -237h-22l140 698h22l-85 -427h3l166 152l304 275h29l-326 -296l190 -402h-23zM250 -66q13 0 17 -5.5t4 -10.5q0 -4 -0.5 -8t-1.5 -9q-4 -23 -20.5 -55.5t-39.5 -57.5h-18q23 26 37 52.5t19 44.5q-15 0 -20 5t-5 11t2 16q2 7 7 12t19 5z" />
    <glyph glyph-name="kcommaaccent" unicode="&#x137;" horiz-adv-x="479" 
d="M201 740h21l-104 -519h4l112 94l219 191h27l-243 -214l141 -273h57l-4 -19h-48q-11 0 -17 5t-12 16l-133 259l-109 -91l-38 -189h-21zM215 -66q13 0 17 -5.5t4 -10.5q0 -4 -0.5 -8t-1.5 -9q-4 -23 -20.5 -55.5t-39.5 -57.5h-18q23 26 37 52.5t19 44.5q-15 0 -20 5t-5 11
t2 16q2 7 7 12t19 5z" />
    <glyph glyph-name="kgreenlandic" unicode="&#x138;" horiz-adv-x="471" 
d="M154 506h21l-59 -296h4l112 94l228 202h27l-252 -225l135 -262h57l-4 -19h-49q-11 0 -17 5t-12 16l-127 247l-108 -90l-36 -178h-21z" />
    <glyph glyph-name="Lacute" unicode="&#x139;" horiz-adv-x="468" 
d="M54 0l140 698h22l-136 -678h325l-4 -20h-347zM221 767l-13 11l143 153l17 -13z" />
    <glyph glyph-name="lacute" unicode="&#x13a;" horiz-adv-x="235" 
d="M81 0q-23 0 -23 19q0 5 0.5 8t1.5 8l141 705h21l-144 -721h85l-4 -19h-78zM200 787l-13 11l143 153l17 -13z" />
    <glyph glyph-name="Lcommaaccent" unicode="&#x13b;" horiz-adv-x="468" 
d="M54 0l140 698h22l-136 -678h325l-4 -20h-347zM219 -66q13 0 17 -5.5t4 -10.5q0 -4 -0.5 -8t-1.5 -9q-4 -23 -20.5 -55.5t-39.5 -57.5h-18q23 26 37 52.5t19 44.5q-15 0 -20 5t-5 11t2 16q2 7 7 12t19 5z" />
    <glyph glyph-name="lcommaaccent" unicode="&#x13c;" horiz-adv-x="235" 
d="M81 0q-23 0 -23 19q0 5 0.5 8t1.5 8l141 705h21l-144 -721h85l-4 -19h-78zM90 -66q13 0 17 -5.5t4 -10.5q0 -4 -0.5 -8t-1.5 -9q-4 -23 -20.5 -55.5t-39.5 -57.5h-18q23 26 37 52.5t19 44.5q-15 0 -20 5t-5 11t2 16q2 7 7 12t19 5z" />
    <glyph glyph-name="Lcaron" unicode="&#x13d;" horiz-adv-x="468" 
d="M54 0l140 698h22l-136 -678h325l-4 -20h-347zM311 564h-17l45 176h25z" />
    <glyph glyph-name="lcaron" unicode="&#x13e;" horiz-adv-x="235" 
d="M81 0q-23 0 -23 19q0 5 0.5 8t1.5 8l141 705h21l-144 -721h85l-4 -19h-78zM281 564h-17l45 176h25z" />
    <glyph glyph-name="Ldot" unicode="&#x13f;" horiz-adv-x="468" 
d="M54 0l140 698h22l-136 -678h325l-4 -20h-347zM345 274q-12 0 -16 5.5t-4 11.5t3 15q2 7 6.5 12t16.5 5t16 -5.5t4 -11.5t-3 -15q-2 -7 -6.5 -12t-16.5 -5z" />
    <glyph glyph-name="ldot" unicode="&#x140;" horiz-adv-x="298" 
d="M81 0q-23 0 -23 19q0 5 0.5 8t1.5 8l141 705h21l-144 -721h85l-4 -19h-78zM255 239q-12 0 -16 5.5t-4 11.5t3 15q2 7 6.5 12t16.5 5t16 -5.5t4 -11.5t-3 -15q-2 -7 -6.5 -12t-16.5 -5z" />
    <glyph glyph-name="Lslash" unicode="&#x141;" horiz-adv-x="471" 
d="M404 0h-347l61 303l-98 -31l1 20l101 32l75 374h22l-74 -367l202 63l-1 -20l-205 -64l-58 -290h325z" />
    <glyph glyph-name="lslash" unicode="&#x142;" horiz-adv-x="242" 
d="M163 0h-78q-23 0 -23 19q0 5 0.5 8t1.5 8l63 316l-73 -24v20l77 25l74 368h21l-72 -361l89 29v-20l-93 -30l-68 -339h85z" />
    <glyph glyph-name="Nacute" unicode="&#x143;" horiz-adv-x="680" 
d="M212 671h-3l-134 -671h-21l140 698h30l282 -671h3l134 671h21l-140 -698h-30zM445 767l-13 11l143 153l17 -13z" />
    <glyph glyph-name="nacute" unicode="&#x144;" horiz-adv-x="548" 
d="M53 0l101 506h21l-21 -105h3q30 57 72.5 87t105.5 30q64 0 98 -34.5t34 -97.5q0 -15 -2 -32.5t-5 -32.5l-60 -302h85l-4 -19h-78q-23 0 -23 19q0 5 0.5 8t1.5 8l57 285q3 17 5 35t2 28q0 116 -114 116q-34 0 -68.5 -13.5t-64.5 -48.5q-17 -20 -35.5 -50t-27.5 -75
l-62 -312h-21zM323 587l-13 11l143 153l17 -13z" />
    <glyph glyph-name="Ncommaaccent" unicode="&#x145;" horiz-adv-x="680" 
d="M212 671h-3l-134 -671h-21l140 698h30l282 -671h3l134 671h21l-140 -698h-30zM284 -66q13 0 17 -5.5t4 -10.5q0 -4 -0.5 -8t-1.5 -9q-4 -23 -20.5 -55.5t-39.5 -57.5h-18q23 26 37 52.5t19 44.5q-15 0 -20 5t-5 11t2 16q2 7 7 12t19 5z" />
    <glyph glyph-name="ncommaaccent" unicode="&#x146;" horiz-adv-x="548" 
d="M53 0l101 506h21l-21 -105h3q30 57 72.5 87t105.5 30q64 0 98 -34.5t34 -97.5q0 -15 -2 -32.5t-5 -32.5l-60 -302h85l-4 -19h-78q-23 0 -23 19q0 5 0.5 8t1.5 8l57 285q3 17 5 35t2 28q0 116 -114 116q-34 0 -68.5 -13.5t-64.5 -48.5q-17 -20 -35.5 -50t-27.5 -75
l-62 -312h-21zM226 -66q13 0 17 -5.5t4 -10.5q0 -4 -0.5 -8t-1.5 -9q-4 -23 -20.5 -55.5t-39.5 -57.5h-18q23 26 37 52.5t19 44.5q-15 0 -20 5t-5 11t2 16q2 7 7 12t19 5z" />
    <glyph glyph-name="Ncaron" unicode="&#x147;" horiz-adv-x="680" 
d="M212 671h-3l-134 -671h-21l140 698h30l282 -671h3l134 671h21l-140 -698h-30zM444 783l-106 134l15 10l104 -127l148 127l13 -12l-150 -132h-24z" />
    <glyph glyph-name="ncaron" unicode="&#x148;" horiz-adv-x="548" 
d="M53 0l101 506h21l-21 -105h3q30 57 72.5 87t105.5 30q64 0 98 -34.5t34 -97.5q0 -15 -2 -32.5t-5 -32.5l-60 -302h85l-4 -19h-78q-23 0 -23 19q0 5 0.5 8t1.5 8l57 285q3 17 5 35t2 28q0 116 -114 116q-34 0 -68.5 -13.5t-64.5 -48.5q-17 -20 -35.5 -50t-27.5 -75
l-62 -312h-21zM334 603l-106 134l15 10l104 -127l148 127l13 -12l-150 -132h-24z" />
    <glyph glyph-name="napostrophe" unicode="&#x149;" horiz-adv-x="788" 
d="M223 750q14 0 19.5 -6t5.5 -13q0 -4 -1 -10t-2 -9q-5 -20 -15 -42.5t-24.5 -44t-31.5 -41t-36 -34.5h-21q45 38 69 76t32 66q-17 0 -22 6t-5 13q0 4 1 9.5t2 8.5q2 8 8 14.5t21 6.5zM293 0l101 506h21l-21 -105h3q30 57 72.5 87t105.5 30q64 0 98 -34.5t34 -97.5
q0 -15 -2 -32.5t-5 -32.5l-60 -302h85l-4 -19h-78q-23 0 -23 19q0 5 0.5 8t1.5 8l57 285q3 17 5 35t2 28q0 116 -114 116q-34 0 -68.5 -13.5t-64.5 -48.5q-17 -20 -35.5 -50t-27.5 -75l-62 -312h-21z" />
    <glyph glyph-name="Eng" unicode="&#x14a;" horiz-adv-x="680" 
d="M54 0l140 698h30l282 -671h3l134 671h21l-174 -869q-6 -29 -35 -29h-77l4 19h85l36 181h-9l-282 671h-3l-134 -671h-21z" />
    <glyph glyph-name="eng" unicode="&#x14b;" horiz-adv-x="548" 
d="M339 -181l100 501q3 17 5 35t2 28q0 116 -114 116q-34 0 -68.5 -13.5t-64.5 -48.5q-17 -20 -35.5 -50t-27.5 -75l-62 -312h-21l101 506h21l-21 -105h3q30 57 72.5 87t105.5 30q64 0 98 -34.5t34 -97.5q0 -15 -2 -32.5t-5 -32.5l-97 -488q-4 -20 -13 -26.5t-30 -6.5h-70
l4 19h85z" />
    <glyph glyph-name="Omacron" unicode="&#x14c;" horiz-adv-x="658" 
d="M291 -12q-50 0 -90.5 15t-70 44.5t-45.5 72.5t-16 100q0 49 7.5 105t24 110t43 104t63 88t85 60.5t109.5 22.5q49 0 90 -15t70.5 -44.5t45.5 -72.5t16 -100q0 -49 -7.5 -105t-24 -110t-43 -104t-63 -88t-85 -60.5t-109.5 -22.5zM291 8q54 0 101 21.5t84 61.5t63.5 96.5
t40.5 126.5l11 55q6 32 8 60t2 49q0 98 -51.5 155t-148.5 57q-54 0 -101 -21.5t-84 -61.5t-63.5 -96.5t-40.5 -126.5l-11 -55q-6 -32 -8 -60t-2 -49q0 -98 51.5 -155t148.5 -57zM322 856h258l-3 -18h-258z" />
    <glyph glyph-name="omacron" unicode="&#x14d;" horiz-adv-x="534" 
d="M225 -12q-40 0 -71 14t-52 39t-32 57.5t-11 70.5q0 70 16 133.5t47.5 111.5t78 76t108.5 28q40 0 71 -14t52 -39t32 -58t11 -70q0 -70 -16 -133.5t-47.5 -111.5t-78 -76t-108.5 -28zM227 7q85 0 139.5 58t74.5 160l8 40q3 17 4 34.5t1 37.5q0 33 -8.5 62.5t-26.5 51.5
t-46 35t-66 13q-85 0 -139.5 -58t-74.5 -160l-8 -40q-3 -17 -4 -34.5t-1 -37.5q0 -33 8.5 -62.5t26.5 -51.5t46 -35t66 -13zM210 676h258l-3 -18h-258z" />
    <glyph glyph-name="Obreve" unicode="&#x14e;" horiz-adv-x="658" 
d="M291 -12q-50 0 -90.5 15t-70 44.5t-45.5 72.5t-16 100q0 49 7.5 105t24 110t43 104t63 88t85 60.5t109.5 22.5q49 0 90 -15t70.5 -44.5t45.5 -72.5t16 -100q0 -49 -7.5 -105t-24 -110t-43 -104t-63 -88t-85 -60.5t-109.5 -22.5zM291 8q54 0 101 21.5t84 61.5t63.5 96.5
t40.5 126.5l11 55q6 32 8 60t2 49q0 98 -51.5 155t-148.5 57q-54 0 -101 -21.5t-84 -61.5t-63.5 -96.5t-40.5 -126.5l-11 -55q-6 -32 -8 -60t-2 -49q0 -98 51.5 -155t148.5 -57zM439 786q-25 0 -42.5 8t-30.5 23t-23 36.5t-19 49.5l16 7l15 -37q15 -37 34 -52.5t50 -15.5
q34 0 57 15t50 54l25 36l16 -7q-18 -27 -33.5 -48.5t-32 -37t-36.5 -23.5t-46 -8z" />
    <glyph glyph-name="obreve" unicode="&#x14f;" horiz-adv-x="534" 
d="M225 -12q-40 0 -71 14t-52 39t-32 57.5t-11 70.5q0 70 16 133.5t47.5 111.5t78 76t108.5 28q40 0 71 -14t52 -39t32 -58t11 -70q0 -70 -16 -133.5t-47.5 -111.5t-78 -76t-108.5 -28zM227 7q85 0 139.5 58t74.5 160l8 40q3 17 4 34.5t1 37.5q0 33 -8.5 62.5t-26.5 51.5
t-46 35t-66 13q-85 0 -139.5 -58t-74.5 -160l-8 -40q-3 -17 -4 -34.5t-1 -37.5q0 -33 8.5 -62.5t26.5 -51.5t46 -35t66 -13zM328 606q-25 0 -42.5 8t-30.5 23t-23 36.5t-19 49.5l16 7l15 -37q15 -37 34 -52.5t50 -15.5q34 0 57 15t50 54l25 36l16 -7q-18 -27 -33.5 -48.5
t-32 -37t-36.5 -23.5t-46 -8z" />
    <glyph glyph-name="Ohungarumlaut" unicode="&#x150;" horiz-adv-x="658" 
d="M291 -12q-50 0 -90.5 15t-70 44.5t-45.5 72.5t-16 100q0 49 7.5 105t24 110t43 104t63 88t85 60.5t109.5 22.5q49 0 90 -15t70.5 -44.5t45.5 -72.5t16 -100q0 -49 -7.5 -105t-24 -110t-43 -104t-63 -88t-85 -60.5t-109.5 -22.5zM291 8q54 0 101 21.5t84 61.5t63.5 96.5
t40.5 126.5l11 55q6 32 8 60t2 49q0 98 -51.5 155t-148.5 57q-54 0 -101 -21.5t-84 -61.5t-63.5 -96.5t-40.5 -126.5l-11 -55q-6 -32 -8 -60t-2 -49q0 -98 51.5 -155t148.5 -57zM347 767l-13 11l143 153l17 -13zM507 767l-13 11l143 153l17 -13z" />
    <glyph glyph-name="ohungarumlaut" unicode="&#x151;" horiz-adv-x="534" 
d="M225 -12q-40 0 -71 14t-52 39t-32 57.5t-11 70.5q0 70 16 133.5t47.5 111.5t78 76t108.5 28q40 0 71 -14t52 -39t32 -58t11 -70q0 -70 -16 -133.5t-47.5 -111.5t-78 -76t-108.5 -28zM227 7q85 0 139.5 58t74.5 160l8 40q3 17 4 34.5t1 37.5q0 33 -8.5 62.5t-26.5 51.5
t-46 35t-66 13q-85 0 -139.5 -58t-74.5 -160l-8 -40q-3 -17 -4 -34.5t-1 -37.5q0 -33 8.5 -62.5t26.5 -51.5t46 -35t66 -13zM240 587l-13 11l143 153l17 -13zM400 587l-13 11l143 153l17 -13z" />
    <glyph glyph-name="OE" unicode="&#x152;" horiz-adv-x="928" 
d="M432 0q-26 -8 -60 -10t-60 -2q-54 0 -99 14.5t-77 43t-49.5 71.5t-17.5 100q0 26 4 72.5t16.5 101.5t36 111.5t63 102.5t97.5 75.5t140 29.5q36 0 76 -3.5t67 -8.5h378l-4 -20h-356l-63 -314h344l-4 -20h-344l-65 -324h356l-4 -20h-375zM312 8h28.5t31.5 1.5t32 4.5t29 8
l132 655q-23 5 -62.5 9t-78.5 4q-63 0 -114 -22t-90 -61t-65 -92t-39 -115l-12 -59q-7 -35 -10 -67.5t-3 -56.5q0 -102 57.5 -155.5t163.5 -53.5z" />
    <glyph glyph-name="oe" unicode="&#x153;" horiz-adv-x="884" 
d="M227 7q85 0 139.5 58t74.5 160l8 40q3 15 4 33.5t1 38.5q0 33 -8.5 62.5t-26.5 51.5t-46 35t-66 13q-85 0 -139.5 -58t-74.5 -160l-8 -40q-3 -15 -4 -33.5t-1 -38.5q0 -33 8.5 -62.5t26.5 -51.5t46 -35t66 -13zM686 499q-42 0 -78 -17t-63.5 -48t-46.5 -73t-28 -92
l-3 -17q112 2 182 15t109 33t52.5 45t13.5 50q0 46 -32.5 75t-105.5 29zM617 -12q-158 0 -173 169h-3q-30 -80 -84 -124.5t-132 -44.5q-40 0 -71 14t-52 39t-32 57.5t-11 70.5q0 70 16 133.5t47.5 111.5t78 76t108.5 28q37 0 66 -12t50 -33.5t33 -51t15 -63.5h3q13 31 33 60
t46.5 51.5t60 35.5t72.5 13q72 0 115 -33t43 -90q0 -23 -12 -50.5t-51.5 -51.5t-115 -40.5t-202.5 -19.5q-1 -7 -2 -19.5t-1 -20.5q0 -97 40 -141.5t115 -44.5q62 0 110 33t79 92l19 -8q-40 -72 -92.5 -104t-115.5 -32z" />
    <glyph glyph-name="Racute" unicode="&#x154;" horiz-adv-x="630" 
d="M76 0h-22l140 698h251q73 0 112 -42t39 -106q0 -109 -56 -168.5t-158 -59.5l125 -322h-23l-125 322h-218zM388 342q78 0 121.5 39.5t55.5 99.5q6 29 7.5 45t1.5 24q0 26 -7.5 49.5t-23.5 41t-41 27.5t-59 10h-232l-66 -336h243zM381 767l-13 11l143 153l17 -13z" />
    <glyph glyph-name="racute" unicode="&#x155;" horiz-adv-x="338" 
d="M53 0l101 506h21l-23 -114h3q13 25 28.5 46t36 36t47 23.5t61.5 8.5h30l-4 -19h-29q-37 0 -69 -15t-57 -41.5t-42 -62t-25 -75.5l-58 -293h-21zM256 587l-13 11l143 153l17 -13z" />
    <glyph glyph-name="Rcommaaccent" unicode="&#x156;" horiz-adv-x="630" 
d="M76 0h-22l140 698h251q73 0 112 -42t39 -106q0 -109 -56 -168.5t-158 -59.5l125 -322h-23l-125 322h-218zM388 342q78 0 121.5 39.5t55.5 99.5q6 29 7.5 45t1.5 24q0 26 -7.5 49.5t-23.5 41t-41 27.5t-59 10h-232l-66 -336h243zM259 -66q13 0 17 -5.5t4 -10.5
q0 -4 -0.5 -8t-1.5 -9q-4 -23 -20.5 -55.5t-39.5 -57.5h-18q23 26 37 52.5t19 44.5q-15 0 -20 5t-5 11t2 16q2 7 7 12t19 5z" />
    <glyph glyph-name="rcommaaccent" unicode="&#x157;" horiz-adv-x="338" 
d="M53 0l101 506h21l-23 -114h3q13 25 28.5 46t36 36t47 23.5t61.5 8.5h30l-4 -19h-29q-37 0 -69 -15t-57 -41.5t-42 -62t-25 -75.5l-58 -293h-21zM51 -66q13 0 17 -5.5t4 -10.5q0 -4 -0.5 -8t-1.5 -9q-4 -23 -20.5 -55.5t-39.5 -57.5h-18q23 26 37 52.5t19 44.5
q-15 0 -20 5t-5 11t2 16q2 7 7 12t19 5z" />
    <glyph glyph-name="Rcaron" unicode="&#x158;" horiz-adv-x="630" 
d="M76 0h-22l140 698h251q73 0 112 -42t39 -106q0 -109 -56 -168.5t-158 -59.5l125 -322h-23l-125 322h-218zM388 342q78 0 121.5 39.5t55.5 99.5q6 29 7.5 45t1.5 24q0 26 -7.5 49.5t-23.5 41t-41 27.5t-59 10h-232l-66 -336h243zM380 783l-106 134l15 10l104 -127l148 127
l13 -12l-150 -132h-24z" />
    <glyph glyph-name="rcaron" unicode="&#x159;" horiz-adv-x="338" 
d="M53 0l101 506h21l-23 -114h3q13 25 28.5 46t36 36t47 23.5t61.5 8.5h30l-4 -19h-29q-37 0 -69 -15t-57 -41.5t-42 -62t-25 -75.5l-58 -293h-21zM267 603l-106 134l15 10l104 -127l148 127l13 -12l-150 -132h-24z" />
    <glyph glyph-name="Sacute" unicode="&#x15a;" horiz-adv-x="536" 
d="M235 -12q-45 0 -80 8t-61 22.5t-45.5 35t-34.5 45.5l18 13q14 -24 31.5 -43.5t41.5 -33t56 -20.5t75 -7q56 0 95.5 16t64 43t36 62.5t11.5 74.5q0 54 -28.5 85t-92.5 48l-86 22q-68 17 -98.5 55.5t-30.5 98.5q0 40 13.5 76t40.5 63t67.5 42.5t95.5 15.5q43 0 75.5 -6.5
t56.5 -19t41.5 -30.5t30.5 -42l-18 -11q-27 49 -70 69t-117 20q-50 0 -86.5 -14.5t-60.5 -38.5t-35.5 -56t-11.5 -68q0 -55 27 -86.5t88 -47.5l83 -22q139 -37 139 -153q0 -44 -13.5 -83.5t-41.5 -69t-72 -46.5t-104 -17zM332 767l-13 11l143 153l17 -13z" />
    <glyph glyph-name="sacute" unicode="&#x15b;" horiz-adv-x="448" 
d="M199 -12q-63 0 -108.5 25t-77.5 73l18 12q57 -91 168 -91q70 0 112.5 34t42.5 97q0 24 -7 40.5t-20 28.5t-32 20t-44 14l-50 13q-26 7 -47 16.5t-36.5 23.5t-24 34.5t-8.5 49.5q0 35 13.5 61t36 43.5t53 26.5t64.5 9q33 0 58 -6.5t44.5 -17.5t34 -25.5t25.5 -29.5
l-16 -14q-21 30 -54 52t-93 22q-66 0 -105.5 -31t-39.5 -90q0 -47 25.5 -69.5t75.5 -35.5l50 -13q25 -7 47 -16t37.5 -22.5t24.5 -33.5t9 -49q0 -38 -13.5 -66t-37.5 -47t-56 -28.5t-69 -9.5zM243 587l-13 11l143 153l17 -13z" />
    <glyph glyph-name="Scircumflex" unicode="&#x15c;" horiz-adv-x="536" 
d="M235 -12q-45 0 -80 8t-61 22.5t-45.5 35t-34.5 45.5l18 13q14 -24 31.5 -43.5t41.5 -33t56 -20.5t75 -7q56 0 95.5 16t64 43t36 62.5t11.5 74.5q0 54 -28.5 85t-92.5 48l-86 22q-68 17 -98.5 55.5t-30.5 98.5q0 40 13.5 76t40.5 63t67.5 42.5t95.5 15.5q43 0 75.5 -6.5
t56.5 -19t41.5 -30.5t30.5 -42l-18 -11q-27 49 -70 69t-117 20q-50 0 -86.5 -14.5t-60.5 -38.5t-35.5 -56t-11.5 -68q0 -55 27 -86.5t88 -47.5l83 -22q139 -37 139 -153q0 -44 -13.5 -83.5t-41.5 -69t-72 -46.5t-104 -17zM381 923l106 -134l-15 -10l-104 127l-148 -127
l-13 12l150 132h24z" />
    <glyph glyph-name="scircumflex" unicode="&#x15d;" horiz-adv-x="448" 
d="M199 -12q-63 0 -108.5 25t-77.5 73l18 12q57 -91 168 -91q70 0 112.5 34t42.5 97q0 24 -7 40.5t-20 28.5t-32 20t-44 14l-50 13q-26 7 -47 16.5t-36.5 23.5t-24 34.5t-8.5 49.5q0 35 13.5 61t36 43.5t53 26.5t64.5 9q33 0 58 -6.5t44.5 -17.5t34 -25.5t25.5 -29.5
l-16 -14q-21 30 -54 52t-93 22q-66 0 -105.5 -31t-39.5 -90q0 -47 25.5 -69.5t75.5 -35.5l50 -13q25 -7 47 -16t37.5 -22.5t24.5 -33.5t9 -49q0 -38 -13.5 -66t-37.5 -47t-56 -28.5t-69 -9.5zM306 743l106 -134l-15 -10l-104 127l-148 -127l-13 12l150 132h24z" />
    <glyph glyph-name="Scedilla" unicode="&#x15e;" horiz-adv-x="536" 
d="M195 -202q-28 0 -47.5 9.5t-27.5 22.5l14 13q21 -27 61 -27q32 0 52.5 16t20.5 42q0 17 -11.5 27.5t-40.5 12.5l-37 2l32 73q-78 4 -123.5 33t-73.5 77l18 13q14 -24 31.5 -43.5t41.5 -33t56 -20.5t75 -7q56 0 95.5 16t64 43t36 62.5t11.5 74.5q0 54 -28.5 85t-92.5 48
l-86 22q-68 17 -98.5 55.5t-30.5 98.5q0 40 13.5 76t40.5 63t67.5 42.5t95.5 15.5q43 0 75.5 -6.5t56.5 -19t41.5 -30.5t30.5 -42l-18 -11q-27 49 -70 69t-117 20q-50 0 -86.5 -14.5t-60.5 -38.5t-35.5 -56t-11.5 -68q0 -55 27 -86.5t88 -47.5l83 -22q139 -37 139 -153
q0 -44 -13.5 -83.5t-41.5 -69t-72 -46.5t-104 -17h-7l-27 -61l2 -2q7 2 15 2.5t14 0.5q27 0 42 -14t15 -39q0 -32 -25.5 -54.5t-68.5 -22.5z" />
    <glyph glyph-name="scedilla" unicode="&#x15f;" horiz-adv-x="448" 
d="M169 -202q-28 0 -47.5 9.5t-27.5 22.5l14 13q21 -27 61 -27q32 0 52.5 16t20.5 42q0 17 -11.5 27.5t-40.5 12.5l-37 2l32 72q-58 3 -100 28t-72 70l18 12q57 -91 168 -91q70 0 112.5 34t42.5 97q0 24 -7 40.5t-20 28.5t-32 20t-44 14l-50 13q-26 7 -47 16.5t-36.5 23.5
t-24 34.5t-8.5 49.5q0 35 13.5 61t36 43.5t53 26.5t64.5 9q33 0 58 -6.5t44.5 -17.5t34 -25.5t25.5 -29.5l-16 -14q-21 30 -54 52t-93 22q-66 0 -105.5 -31t-39.5 -90q0 -47 25.5 -69.5t75.5 -35.5l50 -13q25 -7 47 -16t37.5 -22.5t24.5 -33.5t9 -49q0 -38 -13.5 -66
t-37 -47t-55 -28.5t-67.5 -9.5l-27 -61l2 -2q7 2 15 2.5t14 0.5q27 0 42 -14t15 -39q0 -32 -25.5 -54.5t-68.5 -22.5z" />
    <glyph glyph-name="Scaron" unicode="&#x160;" horiz-adv-x="536" 
d="M235 -12q-45 0 -80 8t-61 22.5t-45.5 35t-34.5 45.5l18 13q14 -24 31.5 -43.5t41.5 -33t56 -20.5t75 -7q56 0 95.5 16t64 43t36 62.5t11.5 74.5q0 54 -28.5 85t-92.5 48l-86 22q-68 17 -98.5 55.5t-30.5 98.5q0 40 13.5 76t40.5 63t67.5 42.5t95.5 15.5q43 0 75.5 -6.5
t56.5 -19t41.5 -30.5t30.5 -42l-18 -11q-27 49 -70 69t-117 20q-50 0 -86.5 -14.5t-60.5 -38.5t-35.5 -56t-11.5 -68q0 -55 27 -86.5t88 -47.5l83 -22q139 -37 139 -153q0 -44 -13.5 -83.5t-41.5 -69t-72 -46.5t-104 -17zM331 783l-106 134l15 10l104 -127l148 127l13 -12
l-150 -132h-24z" />
    <glyph glyph-name="scaron" unicode="&#x161;" horiz-adv-x="448" 
d="M199 -12q-63 0 -108.5 25t-77.5 73l18 12q57 -91 168 -91q70 0 112.5 34t42.5 97q0 24 -7 40.5t-20 28.5t-32 20t-44 14l-50 13q-26 7 -47 16.5t-36.5 23.5t-24 34.5t-8.5 49.5q0 35 13.5 61t36 43.5t53 26.5t64.5 9q33 0 58 -6.5t44.5 -17.5t34 -25.5t25.5 -29.5
l-16 -14q-21 30 -54 52t-93 22q-66 0 -105.5 -31t-39.5 -90q0 -47 25.5 -69.5t75.5 -35.5l50 -13q25 -7 47 -16t37.5 -22.5t24.5 -33.5t9 -49q0 -38 -13.5 -66t-37.5 -47t-56 -28.5t-69 -9.5zM254 603l-106 134l15 10l104 -127l148 127l13 -12l-150 -132h-24z" />
    <glyph glyph-name="uni0162" unicode="&#x162;" horiz-adv-x="548" 
d="M194 -202q-28 0 -47.5 9.5t-27.5 22.5l14 13q21 -27 61 -27q32 0 52.5 16t20.5 42q0 17 -11.5 27.5t-40.5 12.5l-37 2l36 84h-2l136 678h-249l4 20h520l-4 -20h-249l-136 -678h-2l-32 -73l2 -2q7 2 15 2.5t14 0.5q27 0 42 -14t15 -39q0 -32 -25.5 -54.5t-68.5 -22.5z" />
    <glyph glyph-name="uni0163" unicode="&#x163;" horiz-adv-x="302" 
d="M110 -202q-28 0 -47.5 9.5t-27.5 22.5l14 13q21 -27 61 -27q32 0 52.5 16t20.5 42q0 17 -11.5 27.5t-40.5 12.5l-37 2l36 84h-30q-23 0 -23 19q0 5 0.5 8t1.5 8l90 452h-95l4 19h72q14 0 20 5.5t8 19.5l24 119h21l-29 -144h121l-4 -19h-121l-93 -468h113l-4 -19h-58
l-32 -73l2 -2q7 2 15 2.5t14 0.5q27 0 42 -14t15 -39q0 -32 -25.5 -54.5t-68.5 -22.5z" />
    <glyph glyph-name="Tcaron" unicode="&#x164;" horiz-adv-x="548" 
d="M370 678l-136 -678h-22l136 678h-249l4 20h520l-4 -20h-249zM368 783l-106 134l15 10l104 -127l148 127l13 -12l-150 -132h-24z" />
    <glyph glyph-name="tcaron" unicode="&#x165;" horiz-adv-x="302" 
d="M100 0q-23 0 -23 19q0 5 0.5 8t1.5 8l90 452h-95l4 19h72q14 0 20 5.5t8 19.5l24 119h21l-29 -144h121l-4 -19h-121l-93 -468h113l-4 -19h-106zM311 564h-17l45 176h25z" />
    <glyph glyph-name="Tbar" unicode="&#x166;" horiz-adv-x="548" 
d="M307 365l-73 -365h-22l73 365h-188l4 19h188l59 294h-249l4 20h520l-4 -20h-249l-59 -294h187l-4 -19h-187z" />
    <glyph glyph-name="tbar" unicode="&#x167;" horiz-adv-x="308" 
d="M209 0h-106q-23 0 -23 19q0 5 0.5 8t1.5 8l49 245h-69l4 18h68l38 189h-95l4 19h72q14 0 20 5.5t8 19.5l24 119h21l-29 -144h121l-4 -19h-121l-38 -189h102l-4 -18h-101l-52 -261h113z" />
    <glyph glyph-name="Utilde" unicode="&#x168;" horiz-adv-x="639" 
d="M207 698l-85 -427q-9 -45 -13.5 -72.5t-4.5 -50.5q0 -66 40.5 -103t128.5 -37q57 0 97.5 13t69.5 44t48.5 81t34.5 125l86 427h22l-86 -428q-16 -80 -37.5 -134t-53 -87t-75.5 -47t-106 -14q-91 0 -141 40t-50 120q0 28 5.5 57t13.5 71l84 422h22zM491 808
q-20 0 -34.5 7.5t-37.5 23.5q-19 13 -33 19t-31 6q-32 0 -69 -33l-11 12q23 22 43.5 30.5t41.5 8.5q20 0 34.5 -7t37.5 -23q19 -13 33 -19.5t31 -6.5t33.5 8t35.5 25l11 -12q-23 -22 -43.5 -30.5t-41.5 -8.5z" />
    <glyph glyph-name="utilde" unicode="&#x169;" horiz-adv-x="548" 
d="M166 506l-64 -320q-3 -17 -5 -35t-2 -28q0 -116 114 -116q34 0 68.5 13.5t64.5 48.5q17 20 35.5 50t27.5 75l62 312h21l-97 -487h85l-4 -19h-78q-23 0 -23 19q0 5 0.5 8t1.5 8l14 70h-3q-30 -57 -72.5 -87t-105.5 -30q-64 0 -98 34.5t-34 97.5q0 15 2 32.5t5 32.5l64 321
h21zM404 628q-20 0 -34.5 7.5t-37.5 23.5q-19 13 -33 19t-31 6q-32 0 -69 -33l-11 12q23 22 43.5 30.5t41.5 8.5q20 0 34.5 -7t37.5 -23q19 -13 33 -19.5t31 -6.5t33.5 8t35.5 25l11 -12q-23 -22 -43.5 -30.5t-41.5 -8.5z" />
    <glyph glyph-name="Umacron" unicode="&#x16a;" horiz-adv-x="639" 
d="M207 698l-85 -427q-9 -45 -13.5 -72.5t-4.5 -50.5q0 -66 40.5 -103t128.5 -37q57 0 97.5 13t69.5 44t48.5 81t34.5 125l86 427h22l-86 -428q-16 -80 -37.5 -134t-53 -87t-75.5 -47t-106 -14q-91 0 -141 40t-50 120q0 28 5.5 57t13.5 71l84 422h22zM309 856h258l-3 -18
h-258z" />
    <glyph glyph-name="umacron" unicode="&#x16b;" horiz-adv-x="548" 
d="M166 506l-64 -320q-3 -17 -5 -35t-2 -28q0 -116 114 -116q34 0 68.5 13.5t64.5 48.5q17 20 35.5 50t27.5 75l62 312h21l-97 -487h85l-4 -19h-78q-23 0 -23 19q0 5 0.5 8t1.5 8l14 70h-3q-30 -57 -72.5 -87t-105.5 -30q-64 0 -98 34.5t-34 97.5q0 15 2 32.5t5 32.5l64 321
h21zM211 676h258l-3 -18h-258z" />
    <glyph glyph-name="Ubreve" unicode="&#x16c;" horiz-adv-x="639" 
d="M207 698l-85 -427q-9 -45 -13.5 -72.5t-4.5 -50.5q0 -66 40.5 -103t128.5 -37q57 0 97.5 13t69.5 44t48.5 81t34.5 125l86 427h22l-86 -428q-16 -80 -37.5 -134t-53 -87t-75.5 -47t-106 -14q-91 0 -141 40t-50 120q0 28 5.5 57t13.5 71l84 422h22zM426 786q-25 0 -42.5 8
t-30.5 23t-23 36.5t-19 49.5l16 7l15 -37q15 -37 34 -52.5t50 -15.5q34 0 57 15t50 54l25 36l16 -7q-18 -27 -33.5 -48.5t-32 -37t-36.5 -23.5t-46 -8z" />
    <glyph glyph-name="ubreve" unicode="&#x16d;" horiz-adv-x="548" 
d="M166 506l-64 -320q-3 -17 -5 -35t-2 -28q0 -116 114 -116q34 0 68.5 13.5t64.5 48.5q17 20 35.5 50t27.5 75l62 312h21l-97 -487h85l-4 -19h-78q-23 0 -23 19q0 5 0.5 8t1.5 8l14 70h-3q-30 -57 -72.5 -87t-105.5 -30q-64 0 -98 34.5t-34 97.5q0 15 2 32.5t5 32.5l64 321
h21zM329 606q-25 0 -42.5 8t-30.5 23t-23 36.5t-19 49.5l16 7l15 -37q15 -37 34 -52.5t50 -15.5q34 0 57 15t50 54l25 36l16 -7q-18 -27 -33.5 -48.5t-32 -37t-36.5 -23.5t-46 -8z" />
    <glyph glyph-name="Uring" unicode="&#x16e;" horiz-adv-x="639" 
d="M207 698l-85 -427q-9 -45 -13.5 -72.5t-4.5 -50.5q0 -66 40.5 -103t128.5 -37q57 0 97.5 13t69.5 44t48.5 81t34.5 125l86 427h22l-86 -428q-16 -80 -37.5 -134t-53 -87t-75.5 -47t-106 -14q-91 0 -141 40t-50 120q0 28 5.5 57t13.5 71l84 422h22zM427 769
q-22 0 -36.5 6.5t-23.5 17t-12.5 23.5t-3.5 25q0 50 28.5 80t76.5 30q22 0 37 -6.5t24 -17t12.5 -23.5t3.5 -25q0 -50 -29 -80t-77 -30zM431 787q31 0 52.5 17t27.5 49q2 13 3 17.5t1 9.5q0 24 -15.5 38.5t-47.5 14.5q-30 0 -51.5 -17t-27.5 -49q-2 -13 -3 -17.5t-1 -9.5
q0 -24 15.5 -38.5t46.5 -14.5z" />
    <glyph glyph-name="uring" unicode="&#x16f;" horiz-adv-x="548" 
d="M166 506l-64 -320q-3 -17 -5 -35t-2 -28q0 -116 114 -116q34 0 68.5 13.5t64.5 48.5q17 20 35.5 50t27.5 75l62 312h21l-97 -487h85l-4 -19h-78q-23 0 -23 19q0 5 0.5 8t1.5 8l14 70h-3q-30 -57 -72.5 -87t-105.5 -30q-64 0 -98 34.5t-34 97.5q0 15 2 32.5t5 32.5l64 321
h21zM324 589q-22 0 -36.5 6.5t-23.5 17t-12.5 23.5t-3.5 25q0 50 28.5 80t76.5 30q22 0 37 -6.5t24 -17t12.5 -23.5t3.5 -25q0 -50 -29 -80t-77 -30zM328 607q31 0 52.5 17t27.5 49q2 13 3 17.5t1 9.5q0 24 -15.5 38.5t-47.5 14.5q-30 0 -51.5 -17t-27.5 -49
q-2 -13 -3 -17.5t-1 -9.5q0 -24 15.5 -38.5t46.5 -14.5z" />
    <glyph glyph-name="Uhungarumlaut" unicode="&#x170;" horiz-adv-x="639" 
d="M207 698l-85 -427q-9 -45 -13.5 -72.5t-4.5 -50.5q0 -66 40.5 -103t128.5 -37q57 0 97.5 13t69.5 44t48.5 81t34.5 125l86 427h22l-86 -428q-16 -80 -37.5 -134t-53 -87t-75.5 -47t-106 -14q-91 0 -141 40t-50 120q0 28 5.5 57t13.5 71l84 422h22zM334 767l-13 11
l143 153l17 -13zM494 767l-13 11l143 153l17 -13z" />
    <glyph glyph-name="uhungarumlaut" unicode="&#x171;" horiz-adv-x="548" 
d="M166 506l-64 -320q-3 -17 -5 -35t-2 -28q0 -116 114 -116q34 0 68.5 13.5t64.5 48.5q17 20 35.5 50t27.5 75l62 312h21l-97 -487h85l-4 -19h-78q-23 0 -23 19q0 5 0.5 8t1.5 8l14 70h-3q-30 -57 -72.5 -87t-105.5 -30q-64 0 -98 34.5t-34 97.5q0 15 2 32.5t5 32.5l64 321
h21zM241 587l-13 11l143 153l17 -13zM401 587l-13 11l143 153l17 -13z" />
    <glyph glyph-name="Uogonek" unicode="&#x172;" horiz-adv-x="639" 
d="M207 698l-85 -427q-9 -45 -13.5 -72.5t-4.5 -50.5q0 -66 41 -103t129 -37q57 0 97.5 13t69 44t48 81t34.5 125l86 427h22l-86 -428q-12 -59 -26.5 -103.5t-33.5 -77t-43.5 -53.5t-56.5 -33q-73 -26 -116.5 -63.5t-43.5 -75.5q0 -24 14.5 -36t36.5 -12q24 0 40 8t25 17
l13 -11q-12 -14 -32 -23t-46 -9q-31 0 -51.5 16t-20.5 50q0 13 5 28t18 31t36.5 32.5t60.5 32.5l-1 3q-24 -3 -51 -3q-91 0 -140.5 40t-49.5 120q0 28 5.5 57t13.5 71l84 422h22z" />
    <glyph glyph-name="uogonek" unicode="&#x173;" horiz-adv-x="548" 
d="M166 506l-64 -320q-3 -17 -5 -35t-2 -28q0 -116 114 -116q34 0 68.5 13.5t64.5 48.5q17 20 35.5 50t27.5 75l62 312h21l-97 -487h85l-4 -19q-39 -22 -67 -38.5t-46 -32t-26.5 -31t-8.5 -34.5q0 -24 14.5 -36t36.5 -12q24 0 40 8t25 17l13 -11q-12 -14 -32 -23t-46 -9
q-31 0 -51.5 16t-20.5 50q0 13 6 28t21.5 31.5t42.5 34.5t69 39l-1 3h-47q-23 0 -23 19q0 5 0.5 8t1.5 8l14 70h-3q-30 -57 -72.5 -87t-105.5 -30q-64 0 -98 34.5t-34 97.5q0 15 2 32.5t5 32.5l64 321h21z" />
    <glyph glyph-name="Wcircumflex" unicode="&#x174;" horiz-adv-x="864" 
d="M161 0l-40 698h22l38 -667h3l323 667h31l51 -667h3l313 667h24l-329 -698h-31l-50 668h-3l-324 -668h-31zM578 923l106 -134l-15 -10l-104 127l-148 -127l-13 12l150 132h24z" />
    <glyph glyph-name="wcircumflex" unicode="&#x175;" horiz-adv-x="718" 
d="M78 506h20l48 -479h3l245 479h22l51 -479h2l241 479h22l-256 -506h-26l-49 472h-3l-242 -472h-26zM462 743l106 -134l-15 -10l-104 127l-148 -127l-13 12l150 132h24z" />
    <glyph glyph-name="Ycircumflex" unicode="&#x176;" horiz-adv-x="540" 
d="M208 0l59 294l-158 404h23l148 -378h3l300 378h26l-320 -404l-59 -294h-22zM415 923l106 -134l-15 -10l-104 127l-148 -127l-13 12l150 132h24z" />
    <glyph glyph-name="ycircumflex" unicode="&#x177;" horiz-adv-x="460" 
d="M454 506h23l-388 -681q-8 -14 -16 -19.5t-22 -5.5h-75l4 19h84l100 178l-91 509h20l85 -482h3zM327 743l106 -134l-15 -10l-104 127l-148 -127l-13 12l150 132h24z" />
    <glyph glyph-name="Ydieresis" unicode="&#x178;" horiz-adv-x="540" 
d="M208 0l59 294l-158 404h23l148 -378h3l300 378h26l-320 -404l-59 -294h-22zM294 819q-12 0 -16 5.5t-4 11.5t3 15q2 7 6.5 12t16.5 5t16 -5.5t4 -11.5t-3 -15q-2 -7 -6.5 -12t-16.5 -5zM476 819q-12 0 -16 5.5t-4 11.5t3 15q2 7 6.5 12t16.5 5t16 -5.5t4 -11.5t-3 -15
q-2 -7 -6.5 -12t-16.5 -5z" />
    <glyph glyph-name="Zacute" unicode="&#x179;" horiz-adv-x="543" 
d="M462 0h-484l5 22l567 656h-413l4 20h440l-5 -22l-567 -656h457zM367 767l-13 11l143 153l17 -13z" />
    <glyph glyph-name="zacute" unicode="&#x17a;" horiz-adv-x="430" 
d="M-1 0l4 20l399 467h-310l4 19h334l-4 -20l-398 -467h322l-4 -19h-347zM252 587l-13 11l143 153l17 -13z" />
    <glyph glyph-name="Zdotaccent" unicode="&#x17b;" horiz-adv-x="543" 
d="M462 0h-484l5 22l567 656h-413l4 20h440l-5 -22l-567 -656h457zM385 822q-12 0 -16 5.5t-4 11.5t3 15q2 7 6.5 12t16.5 5t16 -5.5t4 -11.5t-3 -15q-2 -7 -6.5 -12t-16.5 -5z" />
    <glyph glyph-name="zdotaccent" unicode="&#x17c;" horiz-adv-x="430" 
d="M-1 0l4 20l399 467h-310l4 19h334l-4 -20l-398 -467h322l-4 -19h-347zM285 642q-12 0 -16 5.5t-4 11.5t3 15q2 7 6.5 12t16.5 5t16 -5.5t4 -11.5t-3 -15q-2 -7 -6.5 -12t-16.5 -5z" />
    <glyph glyph-name="Zcaron" unicode="&#x17d;" horiz-adv-x="543" 
d="M462 0h-484l5 22l567 656h-413l4 20h440l-5 -22l-567 -656h457zM366 783l-106 134l15 10l104 -127l148 127l13 -12l-150 -132h-24z" />
    <glyph glyph-name="zcaron" unicode="&#x17e;" horiz-adv-x="430" 
d="M-1 0l4 20l399 467h-310l4 19h334l-4 -20l-398 -467h322l-4 -19h-347zM263 603l-106 134l15 10l104 -127l148 127l13 -12l-150 -132h-24z" />
    <glyph glyph-name="uni017F" unicode="&#x17f;" horiz-adv-x="247" 
d="M61 -167q-4 -20 -11 -26.5t-28 -6.5h-84l4 19h95l132 668h-100l4 19h100l39 201q4 20 11 26.5t28 6.5h94l-4 -19h-105z" />
    <glyph glyph-name="uni018F" unicode="&#x18f;" horiz-adv-x="658" 
d="M291 -12q-50 0 -90.5 15t-70 44.5t-45.5 72.5t-16 100q0 28 2 55t7 57l3 19h506q10 45 12 75.5t2 51.5q0 98 -51.5 155t-148.5 57q-81 0 -144.5 -47t-103.5 -131l-18 11q19 40 45 74t59 59t73 39.5t89 14.5t90 -15t70.5 -44.5t45.5 -72.5t16 -100q0 -49 -7.5 -105
t-24 -110t-43 -104t-63 -88t-85 -60.5t-109.5 -22.5zM291 8q54 0 101.5 22t85.5 63t64.5 101t40.5 137h-482q-5 -34 -7.5 -62t-2.5 -49q0 -98 51.5 -155t148.5 -57z" />
    <glyph glyph-name="florin" unicode="&#x192;" horiz-adv-x="488" 
d="M-78 -115h178l127 426h-173l6 19h173l100 335q6 19 13 26t28 7h175l-6 -19h-185l-104 -349h210l-6 -19h-210l-123 -412q-6 -19 -13 -26t-28 -7h-168z" />
    <glyph glyph-name="Ohorn" unicode="&#x1a0;" horiz-adv-x="658" 
d="M657 811l-19 -102q-6 -29 -35 -29h-80q48 -28 74 -79t26 -123q0 -49 -7.5 -105t-24 -110t-43 -104t-63 -88t-85 -60.5t-109.5 -22.5q-50 0 -90.5 15t-70 44.5t-45.5 72.5t-16 100q0 49 7.5 105t24 110t43 104t63 88t85 60.5t109.5 22.5q24 0 43 -3t39 -9h132l22 113h20z
M291 8q54 0 101 21.5t84 61.5t63.5 96.5t40.5 126.5l11 55q6 32 8 60t2 49q0 98 -51.5 155t-148.5 57q-54 0 -101 -21.5t-84 -61.5t-63.5 -96.5t-40.5 -126.5l-11 -55q-6 -32 -8 -60t-2 -49q0 -98 51.5 -155t148.5 -57z" />
    <glyph glyph-name="ohorn" unicode="&#x1a1;" horiz-adv-x="534" 
d="M225 -12q-40 0 -71 14t-52 39t-32 57.5t-11 70.5q0 70 16 133.5t47.5 111.5t78 76t108.5 28q36 0 66 -12h100l21 111h20l-18 -100q-6 -29 -35 -29h-56q34 -24 51 -63.5t17 -87.5q0 -70 -16 -133.5t-47.5 -111.5t-78 -76t-108.5 -28zM227 7q85 0 139.5 58t74.5 160l8 40
q3 15 4 33.5t1 38.5q0 33 -8.5 62.5t-26.5 51.5t-46 35t-66 13q-85 0 -139.5 -58t-74.5 -160l-8 -40q-3 -15 -4 -33.5t-1 -38.5q0 -33 8.5 -62.5t26.5 -51.5t46 -35t66 -13z" />
    <glyph glyph-name="Uhorn" unicode="&#x1af;" horiz-adv-x="639" 
d="M207 698l-85 -427q-9 -45 -13.5 -72.5t-4.5 -50.5q0 -66 40.5 -103t128.5 -37q57 0 97.5 13t69.5 44t48.5 81t34.5 125l86 427h80l22 111h20l-19 -100q-6 -29 -35 -29h-50l-82 -410q-16 -80 -37.5 -134t-53.5 -87t-76.5 -47t-106.5 -14q-91 0 -139.5 40t-48.5 120
q0 28 5 57t13 71l84 422h22z" />
    <glyph glyph-name="uhorn" unicode="&#x1b0;" horiz-adv-x="547" 
d="M394 0q-23 0 -23 19q0 5 0.5 8t1.5 8l14 70h-3q-30 -57 -72.5 -87t-105.5 -30q-64 0 -98 34.5t-34 97.5q0 15 2 32.5t5 32.5l64 321h21l-64 -320q-3 -17 -5 -35t-2 -28q0 -116 114 -116q34 0 68.5 13.5t64.5 48.5q17 20 35.5 50t27.5 75l62 312h80l22 111h20l-19 -100
q-6 -29 -35 -29h-51l-93 -469h85l-4 -19h-78z" />
    <glyph glyph-name="uni01CD" unicode="&#x1cd;" horiz-adv-x="594" 
d="M497 0l-45 234h-318l-122 -234h-24l366 698h30l135 -698h-22zM367 673h-3l-220 -420h304zM375 783l-106 134l15 10l104 -127l148 127l13 -12l-150 -132h-24z" />
    <glyph glyph-name="uni01CE" unicode="&#x1ce;" horiz-adv-x="567" 
d="M413 0q-23 0 -23 19q0 5 0.5 8t1.5 8l15 76h-3q-32 -56 -74.5 -89.5t-106.5 -33.5q-39 0 -69.5 14.5t-51.5 39.5t-31.5 59.5t-10.5 74.5q0 69 16.5 131t48 109t78 74.5t106.5 27.5q64 0 103 -29t53 -76h3l18 93h21l-97 -487h85l-4 -19h-78zM223 7q32 0 58 9t52 31
q29 24 55.5 64t37.5 93l28 142q5 25 -0.5 52t-22.5 49.5t-47 37t-75 14.5q-86 0 -141 -59t-74 -158l-7 -35q-3 -17 -4.5 -33.5t-1.5 -37.5q0 -35 8.5 -65.5t26 -53.5t44 -36.5t63.5 -13.5zM329 603l-106 134l15 10l104 -127l148 127l13 -12l-150 -132h-24z" />
    <glyph glyph-name="uni01CF" unicode="&#x1cf;" horiz-adv-x="368" 
d="M15 0l4 19h107l132 660h-107l4 19h236l-4 -19h-107l-132 -660h107l-4 -19h-236zM279 783l-106 134l15 10l104 -127l148 127l13 -12l-150 -132h-24z" />
    <glyph glyph-name="uni01D0" unicode="&#x1d0;" horiz-adv-x="235" 
d="M81 0q-23 0 -23 19q0 5 0.5 8t1.5 8l95 471h21l-98 -487h85l-4 -19h-78zM172 603l-106 134l15 10l104 -127l148 127l13 -12l-150 -132h-24z" />
    <glyph glyph-name="uni01D1" unicode="&#x1d1;" horiz-adv-x="658" 
d="M291 -12q-50 0 -90.5 15t-70 44.5t-45.5 72.5t-16 100q0 49 7.5 105t24 110t43 104t63 88t85 60.5t109.5 22.5q49 0 90 -15t70.5 -44.5t45.5 -72.5t16 -100q0 -49 -7.5 -105t-24 -110t-43 -104t-63 -88t-85 -60.5t-109.5 -22.5zM291 8q54 0 101 21.5t84 61.5t63.5 96.5
t40.5 126.5l11 55q6 32 8 60t2 49q0 98 -51.5 155t-148.5 57q-54 0 -101 -21.5t-84 -61.5t-63.5 -96.5t-40.5 -126.5l-11 -55q-6 -32 -8 -60t-2 -49q0 -98 51.5 -155t148.5 -57zM427 783l-106 134l15 10l104 -127l148 127l13 -12l-150 -132h-24z" />
    <glyph glyph-name="uni01D2" unicode="&#x1d2;" horiz-adv-x="534" 
d="M225 -12q-40 0 -71 14t-52 39t-32 57.5t-11 70.5q0 70 16 133.5t47.5 111.5t78 76t108.5 28q40 0 71 -14t52 -39t32 -58t11 -70q0 -70 -16 -133.5t-47.5 -111.5t-78 -76t-108.5 -28zM227 7q85 0 139.5 58t74.5 160l8 40q3 17 4 34.5t1 37.5q0 33 -8.5 62.5t-26.5 51.5
t-46 35t-66 13q-85 0 -139.5 -58t-74.5 -160l-8 -40q-3 -17 -4 -34.5t-1 -37.5q0 -33 8.5 -62.5t26.5 -51.5t46 -35t66 -13zM313 603l-106 134l15 10l104 -127l148 127l13 -12l-150 -132h-24z" />
    <glyph glyph-name="uni01D3" unicode="&#x1d3;" horiz-adv-x="639" 
d="M207 698l-85 -427q-9 -45 -13.5 -72.5t-4.5 -50.5q0 -66 40.5 -103t128.5 -37q57 0 97.5 13t69.5 44t48.5 81t34.5 125l86 427h22l-86 -428q-16 -80 -37.5 -134t-53 -87t-75.5 -47t-106 -14q-91 0 -141 40t-50 120q0 28 5.5 57t13.5 71l84 422h22zM414 783l-106 134
l15 10l104 -127l148 127l13 -12l-150 -132h-24z" />
    <glyph glyph-name="uni01D4" unicode="&#x1d4;" horiz-adv-x="548" 
d="M166 506l-64 -320q-3 -17 -5 -35t-2 -28q0 -116 114 -116q34 0 68.5 13.5t64.5 48.5q17 20 35.5 50t27.5 75l62 312h21l-97 -487h85l-4 -19h-78q-23 0 -23 19q0 5 0.5 8t1.5 8l14 70h-3q-30 -57 -72.5 -87t-105.5 -30q-64 0 -98 34.5t-34 97.5q0 15 2 32.5t5 32.5l64 321
h21zM319 603l-106 134l15 10l104 -127l148 127l13 -12l-150 -132h-24z" />
    <glyph glyph-name="uni01D5" unicode="&#x1d5;" horiz-adv-x="639" 
d="M207 698l-85 -427q-9 -45 -13.5 -72.5t-4.5 -50.5q0 -66 40.5 -103t128.5 -37q57 0 97.5 13t69.5 44t48.5 81t34.5 125l86 427h22l-86 -428q-16 -80 -37.5 -134t-53 -87t-75.5 -47t-106 -14q-91 0 -141 40t-50 120q0 28 5.5 57t13.5 71l84 422h22zM344 976h235l-3 -18
h-235zM339 814q-12 0 -16 5.5t-4 11.5t3 15q2 7 6.5 12t16.5 5t16 -5.5t4 -11.5t-3 -15q-2 -7 -6.5 -12t-16.5 -5zM521 814q-12 0 -16 5.5t-4 11.5t3 15q2 7 6.5 12t16.5 5t16 -5.5t4 -11.5t-3 -15q-2 -7 -6.5 -12t-16.5 -5z" />
    <glyph glyph-name="uni01D6" unicode="&#x1d6;" horiz-adv-x="548" 
d="M166 506l-64 -320q-3 -17 -5 -35t-2 -28q0 -116 114 -116q34 0 68.5 13.5t64.5 48.5q17 20 35.5 50t27.5 75l62 312h21l-97 -487h85l-4 -19h-78q-23 0 -23 19q0 5 0.5 8t1.5 8l14 70h-3q-30 -57 -72.5 -87t-105.5 -30q-64 0 -98 34.5t-34 97.5q0 15 2 32.5t5 32.5l64 321
h21zM253 796h235l-3 -18h-235zM249 634q-12 0 -16 5.5t-4 11.5t3 15q2 7 6.5 12t16.5 5t16 -5.5t4 -11.5t-3 -15q-2 -7 -6.5 -12t-16.5 -5zM431 634q-12 0 -16 5.5t-4 11.5t3 15q2 7 6.5 12t16.5 5t16 -5.5t4 -11.5t-3 -15q-2 -7 -6.5 -12t-16.5 -5z" />
    <glyph glyph-name="uni01D7" unicode="&#x1d7;" horiz-adv-x="639" 
d="M207 698l-85 -427q-9 -45 -13.5 -72.5t-4.5 -50.5q0 -66 40.5 -103t128.5 -37q57 0 97.5 13t69.5 44t48.5 81t34.5 125l86 427h22l-86 -428q-16 -80 -37.5 -134t-53 -87t-75.5 -47t-106 -14q-91 0 -141 40t-50 120q0 28 5.5 57t13.5 71l84 422h22zM434 877l-13 11
l143 153l17 -13zM339 814q-12 0 -16 5.5t-4 11.5t3 15q2 7 6.5 12t16.5 5t16 -5.5t4 -11.5t-3 -15q-2 -7 -6.5 -12t-16.5 -5zM521 814q-12 0 -16 5.5t-4 11.5t3 15q2 7 6.5 12t16.5 5t16 -5.5t4 -11.5t-3 -15q-2 -7 -6.5 -12t-16.5 -5z" />
    <glyph glyph-name="uni01D8" unicode="&#x1d8;" horiz-adv-x="548" 
d="M166 506l-64 -320q-3 -17 -5 -35t-2 -28q0 -116 114 -116q34 0 68.5 13.5t64.5 48.5q17 20 35.5 50t27.5 75l62 312h21l-97 -487h85l-4 -19h-78q-23 0 -23 19q0 5 0.5 8t1.5 8l14 70h-3q-30 -57 -72.5 -87t-105.5 -30q-64 0 -98 34.5t-34 97.5q0 15 2 32.5t5 32.5l64 321
h21zM344 697l-13 11l143 153l17 -13zM249 634q-12 0 -16 5.5t-4 11.5t3 15q2 7 6.5 12t16.5 5t16 -5.5t4 -11.5t-3 -15q-2 -7 -6.5 -12t-16.5 -5zM431 634q-12 0 -16 5.5t-4 11.5t3 15q2 7 6.5 12t16.5 5t16 -5.5t4 -11.5t-3 -15q-2 -7 -6.5 -12t-16.5 -5z" />
    <glyph glyph-name="uni01D9" unicode="&#x1d9;" horiz-adv-x="639" 
d="M207 698l-85 -427q-9 -45 -13.5 -72.5t-4.5 -50.5q0 -66 40.5 -103t128.5 -37q57 0 97.5 13t69.5 44t48.5 81t34.5 125l86 427h22l-86 -428q-16 -80 -37.5 -134t-53 -87t-75.5 -47t-106 -14q-91 0 -141 40t-50 120q0 28 5.5 57t13.5 71l84 422h22zM433 884l-106 134
l15 10l104 -127l148 127l13 -12l-150 -132h-24zM339 814q-12 0 -16 5.5t-4 11.5t3 15q2 7 6.5 12t16.5 5t16 -5.5t4 -11.5t-3 -15q-2 -7 -6.5 -12t-16.5 -5zM521 814q-12 0 -16 5.5t-4 11.5t3 15q2 7 6.5 12t16.5 5t16 -5.5t4 -11.5t-3 -15q-2 -7 -6.5 -12t-16.5 -5z" />
    <glyph glyph-name="uni01DA" unicode="&#x1da;" horiz-adv-x="548" 
d="M166 506l-64 -320q-3 -17 -5 -35t-2 -28q0 -116 114 -116q34 0 68.5 13.5t64.5 48.5q17 20 35.5 50t27.5 75l62 312h21l-97 -487h85l-4 -19h-78q-23 0 -23 19q0 5 0.5 8t1.5 8l14 70h-3q-30 -57 -72.5 -87t-105.5 -30q-64 0 -98 34.5t-34 97.5q0 15 2 32.5t5 32.5l64 321
h21zM343 704l-106 134l15 10l104 -127l148 127l13 -12l-150 -132h-24zM249 634q-12 0 -16 5.5t-4 11.5t3 15q2 7 6.5 12t16.5 5t16 -5.5t4 -11.5t-3 -15q-2 -7 -6.5 -12t-16.5 -5zM431 634q-12 0 -16 5.5t-4 11.5t3 15q2 7 6.5 12t16.5 5t16 -5.5t4 -11.5t-3 -15
q-2 -7 -6.5 -12t-16.5 -5z" />
    <glyph glyph-name="uni01DB" unicode="&#x1db;" horiz-adv-x="639" 
d="M207 698l-85 -427q-9 -45 -13.5 -72.5t-4.5 -50.5q0 -66 40.5 -103t128.5 -37q57 0 97.5 13t69.5 44t48.5 81t34.5 125l86 427h22l-86 -428q-16 -80 -37.5 -134t-53 -87t-75.5 -47t-106 -14q-91 0 -141 40t-50 120q0 28 5.5 57t13.5 71l84 422h22zM353 1030l19 11
l81 -155l-16 -9zM339 814q-12 0 -16 5.5t-4 11.5t3 15q2 7 6.5 12t16.5 5t16 -5.5t4 -11.5t-3 -15q-2 -7 -6.5 -12t-16.5 -5zM521 814q-12 0 -16 5.5t-4 11.5t3 15q2 7 6.5 12t16.5 5t16 -5.5t4 -11.5t-3 -15q-2 -7 -6.5 -12t-16.5 -5z" />
    <glyph glyph-name="uni01DC" unicode="&#x1dc;" horiz-adv-x="548" 
d="M166 506l-64 -320q-3 -17 -5 -35t-2 -28q0 -116 114 -116q34 0 68.5 13.5t64.5 48.5q17 20 35.5 50t27.5 75l62 312h21l-97 -487h85l-4 -19h-78q-23 0 -23 19q0 5 0.5 8t1.5 8l14 70h-3q-30 -57 -72.5 -87t-105.5 -30q-64 0 -98 34.5t-34 97.5q0 15 2 32.5t5 32.5l64 321
h21zM263 850l19 11l81 -155l-16 -9zM249 634q-12 0 -16 5.5t-4 11.5t3 15q2 7 6.5 12t16.5 5t16 -5.5t4 -11.5t-3 -15q-2 -7 -6.5 -12t-16.5 -5zM431 634q-12 0 -16 5.5t-4 11.5t3 15q2 7 6.5 12t16.5 5t16 -5.5t4 -11.5t-3 -15q-2 -7 -6.5 -12t-16.5 -5z" />
    <glyph glyph-name="Aringacute" unicode="&#x1fa;" horiz-adv-x="594" 
d="M497 0l-45 234h-318l-122 -234h-24l366 698h30l135 -698h-22zM367 673h-3l-220 -420h304zM424 979l-13 11l92 99l15 -13zM388 769q-22 0 -36.5 6.5t-23.5 17t-12.5 23.5t-3.5 25q0 50 28.5 80t76.5 30q22 0 37 -6.5t24 -17t12.5 -23.5t3.5 -25q0 -50 -29 -80t-77 -30z
M392 787q31 0 52.5 17t27.5 49q2 13 3 17.5t1 9.5q0 24 -15.5 38.5t-47.5 14.5q-30 0 -51.5 -17t-27.5 -49q-2 -13 -3 -17.5t-1 -9.5q0 -24 15.5 -38.5t46.5 -14.5z" />
    <glyph glyph-name="aringacute" unicode="&#x1fb;" horiz-adv-x="567" 
d="M413 0q-23 0 -23 19q0 5 0.5 8t1.5 8l15 76h-3q-32 -56 -74.5 -89.5t-106.5 -33.5q-39 0 -69.5 14.5t-51.5 39.5t-31.5 59.5t-10.5 74.5q0 69 16.5 131t48 109t78 74.5t106.5 27.5q64 0 103 -29t53 -76h3l18 93h21l-97 -487h85l-4 -19h-78zM223 7q32 0 58 9t52 31
q29 24 55.5 64t37.5 93l28 142q5 25 -0.5 52t-22.5 49.5t-47 37t-75 14.5q-86 0 -141 -59t-74 -158l-7 -35q-3 -17 -4.5 -33.5t-1.5 -37.5q0 -35 8.5 -65.5t26 -53.5t44 -36.5t63.5 -13.5zM373 799l-13 10l96 102l17 -14zM339 589q-22 0 -36.5 6.5t-23.5 17t-12.5 23.5
t-3.5 25q0 50 28.5 80t76.5 30q22 0 37 -6.5t24 -17t12.5 -23.5t3.5 -25q0 -50 -29 -80t-77 -30zM343 607q31 0 52.5 17t27.5 49q2 13 3 17.5t1 9.5q0 24 -15.5 38.5t-47.5 14.5q-30 0 -51.5 -17t-27.5 -49q-2 -13 -3 -17.5t-1 -9.5q0 -24 15.5 -38.5t46.5 -14.5z" />
    <glyph glyph-name="AEacute" unicode="&#x1fc;" horiz-adv-x="884" 
d="M432 234h-252l-176 -234h-25l523 698h401l-4 -20h-356l-63 -314h344l-4 -20h-344l-65 -324h356l-4 -20h-378zM511 678l-317 -425h242l85 425h-10zM657 767l-13 11l143 153l17 -13z" />
    <glyph glyph-name="aeacute" unicode="&#x1fd;" horiz-adv-x="860" 
d="M204 7q34 0 67 9.5t61 29t47.5 48.5t26.5 68l14 81l-180 -9q-84 -5 -121.5 -28.5t-45.5 -62.5q-4 -18 -4.5 -25.5t-0.5 -15.5q0 -45 35 -70t101 -25zM661 499q-42 0 -77.5 -17t-63.5 -47.5t-46.5 -72t-27.5 -89.5l-2 -11q113 2 182.5 14.5t108 32t51.5 43t13 47.5
q0 45 -32.5 72.5t-105.5 27.5zM202 -12q-74 0 -114.5 29.5t-40.5 85.5q0 75 47.5 109.5t146.5 39.5l183 9l13 68q3 14 4 27.5t1 24.5q0 24 -6.5 45.5t-22 37.5t-41.5 25.5t-65 9.5q-34 0 -60 -5.5t-46 -17.5t-36.5 -30.5t-32.5 -43.5l-17 9q15 25 32.5 45t40 33.5t52 21
t69.5 7.5t69 -10.5t47.5 -28t27 -41.5t9.5 -51h3q31 59 80.5 95t117.5 36q72 0 115 -31.5t43 -87.5q0 -26 -13 -53t-53.5 -49t-115 -36.5t-197.5 -17.5q-2 -14 -4 -27t-2 -26q0 -84 39 -133.5t117 -49.5q62 0 110 33t79 92l19 -7q-40 -72 -92.5 -104.5t-115.5 -32.5
q-69 0 -115 39t-56 111h-3q-8 -34 -28 -61.5t-48.5 -47t-64 -30.5t-75.5 -11zM483 587l-13 11l143 153l17 -13z" />
    <glyph glyph-name="Oslashacute" unicode="&#x1fe;" horiz-adv-x="658" 
d="M291 -12q-59 0 -105 20.5t-75 62.5l-93 -104l-15 12l97 109q-31 54 -31 132q0 49 7.5 105t24.5 110t43 104t63 88t85 60.5t109 22.5q59 0 105 -20.5t75 -62.5l93 104l15 -12l-97 -109q31 -54 31 -132q0 -49 -7.5 -105t-24 -110t-43 -104t-63 -88t-85 -60.5t-109.5 -22.5z
M101 329q-6 -32 -8 -60t-2 -49q0 -67 24 -115l452 506q-25 38 -67 58.5t-99 20.5q-54 0 -101 -21.5t-84 -61.5t-63.5 -96.5t-40.5 -126.5zM591 369q6 32 8 60t2 49q0 67 -24 115l-452 -506q25 -38 67 -58.5t99 -20.5q54 0 101 21.5t84 61.5t63.5 96.5t40.5 126.5zM420 767
l-13 11l143 153l17 -13z" />
    <glyph glyph-name="oslashacute" unicode="&#x1ff;" horiz-adv-x="534" 
d="M225 -12q-42 0 -72.5 14.5t-51.5 39.5l-58 -68l-14 11l61 72q-31 48 -31 112q0 70 16 133.5t47.5 111.5t78 76t108.5 28q41 0 72 -14t52 -40l58 68l14 -11l-61 -72q31 -48 31 -112q0 -70 -16 -133.5t-47.5 -111.5t-78 -76t-108.5 -28zM80 169q0 -27 5.5 -51.5t17.5 -44.5
l318 376q-18 23 -46.5 36.5t-67.5 13.5q-85 0 -139.5 -58t-74.5 -160l-8 -40q-3 -15 -4 -33.5t-1 -38.5zM227 7q85 0 139.5 58t74.5 160l8 40q3 15 4 33.5t1 38.5q0 55 -23 96l-318 -376q18 -23 46.5 -36.5t67.5 -13.5zM304 587l-13 11l143 153l17 -13z" />
    <glyph glyph-name="Scommaaccent" unicode="&#x218;" horiz-adv-x="536" 
d="M235 -12q-45 0 -80 8t-61 22.5t-45.5 35t-34.5 45.5l18 13q14 -24 31.5 -43.5t41.5 -33t56 -20.5t75 -7q56 0 95.5 16t64 43t36 62.5t11.5 74.5q0 54 -28.5 85t-92.5 48l-86 22q-68 17 -98.5 55.5t-30.5 98.5q0 40 13.5 76t40.5 63t67.5 42.5t95.5 15.5q43 0 75.5 -6.5
t56.5 -19t41.5 -30.5t30.5 -42l-18 -11q-27 49 -70 69t-117 20q-50 0 -86.5 -14.5t-60.5 -38.5t-35.5 -56t-11.5 -68q0 -55 27 -86.5t88 -47.5l83 -22q139 -37 139 -153q0 -44 -13.5 -83.5t-41.5 -69t-72 -46.5t-104 -17zM211 -66q13 0 17 -5.5t4 -10.5q0 -4 -0.5 -8
t-1.5 -9q-4 -23 -20.5 -55.5t-39.5 -57.5h-18q23 26 37 52.5t19 44.5q-15 0 -20 5t-5 11t2 16q2 7 7 12t19 5z" />
    <glyph glyph-name="scommaaccent" unicode="&#x219;" horiz-adv-x="448" 
d="M199 -12q-63 0 -108.5 25t-77.5 73l18 12q57 -91 168 -91q70 0 112.5 34t42.5 97q0 24 -7 40.5t-20 28.5t-32 20t-44 14l-50 13q-26 7 -47 16.5t-36.5 23.5t-24 34.5t-8.5 49.5q0 35 13.5 61t36 43.5t53 26.5t64.5 9q33 0 58 -6.5t44.5 -17.5t34 -25.5t25.5 -29.5
l-16 -14q-21 30 -54 52t-93 22q-66 0 -105.5 -31t-39.5 -90q0 -47 25.5 -69.5t75.5 -35.5l50 -13q25 -7 47 -16t37.5 -22.5t24.5 -33.5t9 -49q0 -38 -13.5 -66t-37.5 -47t-56 -28.5t-69 -9.5zM185 -66q13 0 17 -5.5t4 -10.5q0 -4 -0.5 -8t-1.5 -9q-4 -23 -20.5 -55.5
t-39.5 -57.5h-18q23 26 37 52.5t19 44.5q-15 0 -20 5t-5 11t2 16q2 7 7 12t19 5z" />
    <glyph glyph-name="uni021A" unicode="&#x21a;" horiz-adv-x="548" 
d="M370 678l-136 -678h-22l136 678h-249l4 20h520l-4 -20h-249zM211 -66q13 0 17 -5.5t4 -10.5q0 -4 -0.5 -8t-1.5 -9q-4 -23 -20.5 -55.5t-39.5 -57.5h-18q23 26 37 52.5t19 44.5q-15 0 -20 5t-5 11t2 16q2 7 7 12t19 5z" />
    <glyph glyph-name="uni021B" unicode="&#x21b;" horiz-adv-x="302" 
d="M100 0q-23 0 -23 19q0 5 0.5 8t1.5 8l90 452h-95l4 19h72q14 0 20 5.5t8 19.5l24 119h21l-29 -144h121l-4 -19h-121l-93 -468h113l-4 -19h-106zM126 -66q13 0 17 -5.5t4 -10.5q0 -4 -0.5 -8t-1.5 -9q-4 -23 -20.5 -55.5t-39.5 -57.5h-18q23 26 37 52.5t19 44.5
q-15 0 -20 5t-5 11t2 16q2 7 7 12t19 5z" />
    <glyph glyph-name="uni0237" unicode="&#x237;" horiz-adv-x="229" 
d="M-68 -181h85l137 687h21l-134 -673q-4 -20 -12 -26.5t-29 -6.5h-72z" />
    <glyph glyph-name="uni0259" unicode="&#x259;" horiz-adv-x="505" 
d="M197 -12q-72 0 -115 33t-43 90q0 24 12 51.5t51.5 51t115 40t202.5 19.5q1 8 2 22t1 22q0 97 -38.5 139.5t-116.5 42.5q-62 0 -110 -33t-79 -92l-19 8q38 71 91.5 103.5t116.5 32.5q85 0 130.5 -48t45.5 -151q0 -69 -18 -129.5t-50.5 -105t-78 -70.5t-100.5 -26zM199 7
q42 0 78 17t63.5 48t46.5 73t28 92l3 17q-113 -2 -182.5 -15t-108.5 -33t-52.5 -45t-13.5 -50q0 -46 32.5 -75t105.5 -29z" />
    <glyph glyph-name="uni02BB" unicode="&#x2bb;" 
d="M312 599q-13 0 -17 5.5t-4 10.5q0 4 0.5 8t1.5 9q4 23 20.5 55.5t39.5 57.5h18q-23 -26 -37 -52.5t-19 -44.5q15 0 20 -5t5 -11t-2 -16q-2 -7 -7 -12t-19 -5z" />
    <glyph glyph-name="uni02BC" unicode="&#x2bc;" 
d="M287 564h-17l45 176h25z" />
    <glyph glyph-name="circumflex" unicode="&#x2c6;" 
d="M351 743l106 -134l-15 -10l-104 127l-148 -127l-13 12l150 132h24z" />
    <glyph glyph-name="caron" unicode="&#x2c7;" 
d="M299 603l-106 134l15 10l104 -127l148 127l13 -12l-150 -132h-24z" />
    <glyph glyph-name="breve" unicode="&#x2d8;" 
d="M314 606q-25 0 -42.5 8t-30.5 23t-23 36.5t-19 49.5l16 7l15 -37q15 -37 34 -52.5t50 -15.5q34 0 57 15t50 54l25 36l16 -7q-18 -27 -33.5 -48.5t-32 -37t-36.5 -23.5t-46 -8z" />
    <glyph glyph-name="dotaccent" unicode="&#x2d9;" 
d="M321 642q-12 0 -16 5.5t-4 11.5t3 15q2 7 6.5 12t16.5 5t16 -5.5t4 -11.5t-3 -15q-2 -7 -6.5 -12t-16.5 -5z" />
    <glyph glyph-name="ring" unicode="&#x2da;" 
d="M309 589q-22 0 -36.5 6.5t-23.5 17t-12.5 23.5t-3.5 25q0 50 28.5 80t76.5 30q22 0 37 -6.5t24 -17t12.5 -23.5t3.5 -25q0 -50 -29 -80t-77 -30zM313 607q31 0 52.5 17t27.5 49q2 13 3 17.5t1 9.5q0 24 -15.5 38.5t-47.5 14.5q-30 0 -51.5 -17t-27.5 -49q-2 -13 -3 -17.5
t-1 -9.5q0 -24 15.5 -38.5t46.5 -14.5z" />
    <glyph glyph-name="ogonek" unicode="&#x2db;" 
d="M206 -202q-31 0 -51.5 16t-20.5 50q0 14 6 29t22 32t43.5 35.5t71.5 39.5l-3 12l25 4l4 -16q-39 -22 -67 -38.5t-46 -32t-26.5 -31t-8.5 -34.5q0 -24 14.5 -36t36.5 -12q24 0 40 8t25 17l13 -11q-12 -14 -32 -23t-46 -9z" />
    <glyph glyph-name="tilde" unicode="&#x2dc;" 
d="M389 628q-20 0 -34.5 7.5t-37.5 23.5q-19 13 -33 19t-31 6q-32 0 -69 -33l-11 12q23 22 43.5 30.5t41.5 8.5q20 0 34.5 -7t37.5 -23q19 -13 33 -19.5t31 -6.5t33.5 8t35.5 25l11 -12q-23 -22 -43.5 -30.5t-41.5 -8.5z" />
    <glyph glyph-name="hungarumlaut" unicode="&#x2dd;" 
d="M226 587l-13 11l143 153l17 -13zM386 587l-13 11l143 153l17 -13z" />
    <glyph glyph-name="uni0300" unicode="&#x300;" horiz-adv-x="0" 
d="M-64 740l19 11l81 -155l-16 -9z" />
    <glyph glyph-name="uni0301" unicode="&#x301;" horiz-adv-x="0" 
d="M-11 587l-13 11l143 153l17 -13z" />
    <glyph glyph-name="uni0302" unicode="&#x302;" horiz-adv-x="0" 
d="M52 743l106 -134l-15 -10l-104 127l-148 -127l-13 12l150 132h24z" />
    <glyph glyph-name="uni0303" unicode="&#x303;" horiz-adv-x="0" 
d="M90 628q-20 0 -34.5 7.5t-37.5 23.5q-19 13 -33 19t-31 6q-32 0 -69 -33l-11 12q23 22 43.5 30.5t41.5 8.5q20 0 34.5 -7t37.5 -23q19 -13 33 -19.5t31 -6.5t33.5 8t35.5 25l11 -12q-23 -22 -43.5 -30.5t-41.5 -8.5z" />
    <glyph glyph-name="uni0304" unicode="&#x304;" horiz-adv-x="0" 
d="M-103 676h258l-3 -18h-258z" />
    <glyph glyph-name="uni0306" unicode="&#x306;" horiz-adv-x="0" 
d="M15 606q-25 0 -42.5 8t-30.5 23t-23 36.5t-19 49.5l16 7l15 -37q15 -37 34 -52.5t50 -15.5q34 0 57 15t50 54l25 36l16 -7q-18 -27 -33.5 -48.5t-32 -37t-36.5 -23.5t-46 -8z" />
    <glyph glyph-name="uni0307" unicode="&#x307;" horiz-adv-x="0" 
d="M22 642q-12 0 -16 5.5t-4 11.5t3 15q2 7 6.5 12t16.5 5t16 -5.5t4 -11.5t-3 -15q-2 -7 -6.5 -12t-16.5 -5z" />
    <glyph glyph-name="uni0308" unicode="&#x308;" horiz-adv-x="0" 
d="M-68 642q-12 0 -16 5.5t-4 11.5t3 15q2 7 6.5 12t16.5 5t16 -5.5t4 -11.5t-3 -15q-2 -7 -6.5 -12t-16.5 -5zM114 642q-12 0 -16 5.5t-4 11.5t3 15q2 7 6.5 12t16.5 5t16 -5.5t4 -11.5t-3 -15q-2 -7 -6.5 -12t-16.5 -5z" />
    <glyph glyph-name="uni0309" unicode="&#x309;" horiz-adv-x="0" 
d="M-31 737h133q14 0 19 -4t5 -11q0 -3 -1 -6.5t-5 -9.5t-11.5 -15t-20.5 -24l-69 -82l-15 9l102 125h-140z" />
    <glyph glyph-name="uni030A" unicode="&#x30a;" horiz-adv-x="0" 
d="M10 589q-22 0 -36.5 6.5t-23.5 17t-12.5 23.5t-3.5 25q0 50 28.5 80t76.5 30q22 0 37 -6.5t24 -17t12.5 -23.5t3.5 -25q0 -50 -29 -80t-77 -30zM14 607q31 0 52.5 17t27.5 49q2 13 3 17.5t1 9.5q0 24 -15.5 38.5t-47.5 14.5q-30 0 -51.5 -17t-27.5 -49q-2 -13 -3 -17.5
t-1 -9.5q0 -24 15.5 -38.5t46.5 -14.5z" />
    <glyph glyph-name="uni030B" unicode="&#x30b;" horiz-adv-x="0" 
d="M-73 587l-13 11l143 153l17 -13zM87 587l-13 11l143 153l17 -13z" />
    <glyph glyph-name="uni030C" unicode="&#x30c;" horiz-adv-x="0" 
d="M0 603l-106 134l15 10l104 -127l148 127l13 -12l-150 -132h-24z" />
    <glyph glyph-name="uni0312" unicode="&#x312;" horiz-adv-x="0" 
d="M13 599q-13 0 -17 5.5t-4 10.5q0 4 0.5 8t1.5 9q4 23 20.5 55.5t39.5 57.5h18q-23 -26 -37 -52.5t-19 -44.5q15 0 20 -5t5 -11t-2 -16q-2 -7 -7 -12t-19 -5z" />
    <glyph glyph-name="uni0315" unicode="&#x315;" horiz-adv-x="0" 
d="M-12 564h-17l45 176h25z" />
    <glyph glyph-name="uni031B" unicode="&#x31b;" horiz-adv-x="0" 
d="M43 517q-6 -29 -35 -29h-71l3 18h80l22 113h20z" />
    <glyph glyph-name="uni0323" unicode="&#x323;" horiz-adv-x="0" 
d="M-22 -134q-12 0 -16 5.5t-4 11.5t3 15q2 7 6.5 12t16.5 5t16 -5.5t4 -11.5t-3 -15q-2 -7 -6.5 -12t-16.5 -5z" />
    <glyph glyph-name="uni0326" unicode="&#x326;" horiz-adv-x="0" 
d="M-13 -66q13 0 17 -5.5t4 -10.5q0 -4 -0.5 -8t-1.5 -9q-4 -23 -20.5 -55.5t-39.5 -57.5h-18q23 26 37 52.5t19 44.5q-15 0 -20 5t-5 11t2 16q2 7 7 12t19 5z" />
    <glyph glyph-name="uni0327" unicode="&#x327;" horiz-adv-x="0" 
d="M-28 -202q-28 0 -47.5 9.5t-27.5 22.5l14 13q21 -27 61 -27q32 0 52.5 16t20.5 42q0 17 -11.5 27.5t-40.5 12.5l-37 2l38 87h18l-34 -76l2 -2q7 2 15 2.5t14 0.5q27 0 42 -14t15 -39q0 -32 -25.5 -54.5t-68.5 -22.5z" />
    <glyph glyph-name="uni0328" unicode="&#x328;" horiz-adv-x="0" 
d="M-96 -202q-31 0 -51.5 16t-20.5 50q0 14 6 29t22 32t43.5 35.5t71.5 39.5l-3 12l25 4l4 -16q-39 -22 -67 -38.5t-46 -32t-26.5 -31t-8.5 -34.5q0 -24 14.5 -36t36.5 -12q24 0 40 8t25 17l13 -11q-12 -14 -32 -23t-46 -9z" />
    <glyph glyph-name="uni037E" unicode="&#x37e;" horiz-adv-x="260" 
d="M87 53q14 0 19.5 -6t5.5 -13q0 -4 -1 -10t-2 -9q-5 -20 -15 -42.5t-24.5 -44t-31.5 -41t-36 -34.5h-21q45 38 69 76t32 66q-17 0 -22 6t-5 13q0 4 1 9.5t2 8.5q2 8 8 14.5t21 6.5zM174 453q-15 0 -20.5 6t-5.5 13q0 4 1 9.5t2 8.5q2 8 8 14.5t21 6.5q14 0 19.5 -6
t5.5 -13q0 -4 -1 -9.5t-2 -8.5q-2 -8 -7.5 -14.5t-20.5 -6.5z" />
    <glyph glyph-name="tonos" unicode="&#x384;" horiz-adv-x="576" 
d="M364 587l-15 7l97 157l18 -9z" />
    <glyph glyph-name="dieresistonos" unicode="&#x385;" horiz-adv-x="576" 
d="M335 587l-15 7l97 157l18 -9zM286 642q-12 0 -16 5.5t-4 11.5t3 15q2 7 6.5 12t16.5 5t16 -5.5t4 -11.5t-3 -15q-2 -7 -6.5 -12t-16.5 -5zM460 642q-12 0 -16 5.5t-4 11.5t3 15q2 7 6.5 12t16.5 5t16 -5.5t4 -11.5t-3 -15q-2 -7 -6.5 -12t-16.5 -5z" />
    <glyph glyph-name="Alphatonos" unicode="&#x386;" horiz-adv-x="594" 
d="M497 0l-45 234h-318l-122 -234h-24l366 698h30l135 -698h-22zM367 673h-3l-220 -420h304zM168 587l-15 7l97 157l18 -9z" />
    <glyph glyph-name="anoteleia" unicode="&#x387;" horiz-adv-x="260" 
d="M174 453q-15 0 -20.5 6t-5.5 13q0 4 1 9.5t2 8.5q2 8 8 14.5t21 6.5q14 0 19.5 -6t5.5 -13q0 -4 -1 -9.5t-2 -8.5q-2 -8 -7.5 -14.5t-20.5 -6.5z" />
    <glyph glyph-name="Epsilontonos" unicode="&#x388;" horiz-adv-x="575" 
d="M76 0l140 698h378l-4 -20h-356l-63 -314h344l-4 -20h-344l-65 -324h356l-4 -20h-378zM63 587l-15 7l97 157l18 -9z" />
    <glyph glyph-name="Etatonos" unicode="&#x389;" horiz-adv-x="702" 
d="M593 344h-426l-69 -344h-22l140 698h22l-67 -334h426l67 334h22l-140 -698h-22zM63 587l-15 7l97 157l18 -9z" />
    <glyph glyph-name="Iotatonos" unicode="&#x38a;" horiz-adv-x="419" 
d="M66 0l4 19h107l132 660h-107l4 19h236l-4 -19h-107l-132 -660h107l-4 -19h-236zM63 587l-15 7l97 157l18 -9z" />
    <glyph glyph-name="Omicrontonos" unicode="&#x38c;" horiz-adv-x="668" 
d="M301 -12q-50 0 -90.5 15t-70 44.5t-45.5 72.5t-16 100q0 49 7.5 105t24 110t43 104t63 88t85 60.5t109.5 22.5q49 0 90 -15t70.5 -44.5t45.5 -72.5t16 -100q0 -49 -7.5 -105t-24 -110t-43 -104t-63 -88t-85 -60.5t-109.5 -22.5zM301 8q54 0 101 21.5t84 61.5t63.5 96.5
t40.5 126.5l11 55q6 32 8 60t2 49q0 98 -51.5 155t-148.5 57q-54 0 -101 -21.5t-84 -61.5t-63.5 -96.5t-40.5 -126.5l-11 -55q-6 -32 -8 -60t-2 -49q0 -98 51.5 -155t148.5 -57zM63 587l-15 7l97 157l18 -9z" />
    <glyph glyph-name="Upsilontonos" unicode="&#x38e;" horiz-adv-x="619" 
d="M287 0l59 294l-158 404h23l148 -378h3l300 378h26l-320 -404l-59 -294h-22zM63 587l-15 7l97 157l18 -9z" />
    <glyph glyph-name="Omegatonos" unicode="&#x38f;" horiz-adv-x="684" 
d="M36 20h172l4 21q-22 17 -43 37.5t-37 47.5t-26 62.5t-10 83.5q0 43 6.5 92t21.5 97.5t39 93.5t60 79.5t84 55t111 20.5q105 0 162.5 -55.5t57.5 -162.5q0 -88 -17.5 -160t-49.5 -128t-77 -97t-100 -67l-4 -20h170l-3 -20h-192l9 49q81 37 141 107.5t80 170.5l12 62
q5 26 7 52.5t2 50.5q0 97 -51 147.5t-147 50.5q-105 0 -180.5 -70t-101.5 -204l-12 -62q-3 -17 -4.5 -39t-1.5 -43q0 -45 9 -79t24.5 -60.5t37 -46.5t46.5 -37l-10 -49h-192zM63 587l-15 7l97 157l18 -9z" />
    <glyph glyph-name="iotadieresistonos" unicode="&#x390;" horiz-adv-x="253" 
d="M187 0h-106q-23 0 -23 19q0 5 0.5 8t1.5 8l95 471h21l-98 -487h113zM170 587l-15 7l97 157l18 -9zM121 642q-12 0 -16 5.5t-4 11.5t3 15q2 7 6.5 12t16.5 5t16 -5.5t4 -11.5t-3 -15q-2 -7 -6.5 -12t-16.5 -5zM295 642q-12 0 -16 5.5t-4 11.5t3 15q2 7 6.5 12t16.5 5
t16 -5.5t4 -11.5t-3 -15q-2 -7 -6.5 -12t-16.5 -5z" />
    <glyph glyph-name="Alpha" unicode="&#x391;" horiz-adv-x="594" 
d="M497 0l-45 234h-318l-122 -234h-24l366 698h30l135 -698h-22zM367 673h-3l-220 -420h304z" />
    <glyph glyph-name="Beta" unicode="&#x392;" horiz-adv-x="606" 
d="M193 698h221q72 0 111 -35.5t39 -101.5q0 -31 -6 -61.5t-21.5 -57t-41.5 -45.5t-66 -27v-3q50 -11 76 -49.5t26 -89.5q0 -109 -56 -168.5t-154 -59.5h-266zM323 20q78 0 121.5 39.5t55.5 99.5q6 29 7.5 45t1.5 24q0 26 -7.5 49.5t-24 41.5t-41.5 28.5t-59 10.5h-229
l-67 -338h242zM367 378q71 0 113 31t53 86q6 32 7.5 45.5t1.5 21.5q0 53 -30 84.5t-99 31.5h-202l-59 -300h215z" />
    <glyph glyph-name="Gamma" unicode="&#x393;" horiz-adv-x="486" 
d="M194 698h340l-4 -20h-318l-136 -678h-22z" />
    <glyph glyph-name="uni0394" unicode="&#x394;" horiz-adv-x="594" 
d="M-1 21l355 677h30l131 -676l-4 -22h-516zM367 673h-3l-342 -653h471z" />
    <glyph glyph-name="Epsilon" unicode="&#x395;" horiz-adv-x="553" 
d="M54 0l140 698h378l-4 -20h-356l-63 -314h344l-4 -20h-344l-65 -324h356l-4 -20h-378z" />
    <glyph glyph-name="Zeta" unicode="&#x396;" horiz-adv-x="543" 
d="M462 0h-484l5 22l567 656h-413l4 20h440l-5 -22l-567 -656h457z" />
    <glyph glyph-name="Eta" unicode="&#x397;" horiz-adv-x="680" 
d="M571 344h-426l-69 -344h-22l140 698h22l-67 -334h426l67 334h22l-140 -698h-22z" />
    <glyph glyph-name="Theta" unicode="&#x398;" horiz-adv-x="658" 
d="M291 -12q-50 0 -90.5 15t-70 44.5t-45.5 72.5t-16 100q0 49 7.5 105t24 110t43 104t63 88t85 60.5t109.5 22.5q49 0 90 -15t70.5 -44.5t45.5 -72.5t16 -100q0 -49 -7.5 -105t-24 -110t-43 -104t-63 -88t-85 -60.5t-109.5 -22.5zM291 8q54 0 101 21.5t84 61.5t63.5 96.5
t40.5 126.5l11 55q6 32 8 60t2 49q0 98 -51.5 155t-148.5 57q-54 0 -101 -21.5t-84 -61.5t-63.5 -96.5t-40.5 -126.5l-11 -55q-6 -32 -8 -60t-2 -49q0 -98 51.5 -155t148.5 -57zM185 344l4 20h320l-4 -20h-320z" />
    <glyph glyph-name="Iota" unicode="&#x399;" horiz-adv-x="368" 
d="M15 0l4 19h107l132 660h-107l4 19h236l-4 -19h-107l-132 -660h107l-4 -19h-236z" />
    <glyph glyph-name="Kappa" unicode="&#x39a;" horiz-adv-x="564" 
d="M290 388l-165 -151l-49 -237h-22l140 698h22l-85 -427h3l166 152l304 275h29l-326 -296l190 -402h-23z" />
    <glyph glyph-name="Lambda" unicode="&#x39b;" horiz-adv-x="594" 
d="M384 698l135 -698h-22l-130 673h-3l-352 -673h-24l366 698h30z" />
    <glyph glyph-name="Mu" unicode="&#x39c;" horiz-adv-x="780" 
d="M738 673h-3l-349 -437l-173 437h-3l-135 -673h-21l140 698h32l166 -420h3l334 420h35l-140 -698h-21z" />
    <glyph glyph-name="Nu" unicode="&#x39d;" horiz-adv-x="680" 
d="M212 671h-3l-134 -671h-21l140 698h30l282 -671h3l134 671h21l-140 -698h-30z" />
    <glyph glyph-name="Xi" unicode="&#x39e;" horiz-adv-x="548" 
d="M158 698h409l-4 -20h-409zM120 364h352l-4 -20h-352zM22 20h409l-4 -20h-409z" />
    <glyph glyph-name="Omicron" unicode="&#x39f;" horiz-adv-x="658" 
d="M291 -12q-50 0 -90.5 15t-70 44.5t-45.5 72.5t-16 100q0 49 7.5 105t24 110t43 104t63 88t85 60.5t109.5 22.5q49 0 90 -15t70.5 -44.5t45.5 -72.5t16 -100q0 -49 -7.5 -105t-24 -110t-43 -104t-63 -88t-85 -60.5t-109.5 -22.5zM291 8q54 0 101 21.5t84 61.5t63.5 96.5
t40.5 126.5l11 55q6 32 8 60t2 49q0 98 -51.5 155t-148.5 57q-54 0 -101 -21.5t-84 -61.5t-63.5 -96.5t-40.5 -126.5l-11 -55q-6 -32 -8 -60t-2 -49q0 -98 51.5 -155t148.5 -57z" />
    <glyph glyph-name="Pi" unicode="&#x3a0;" horiz-adv-x="665" 
d="M194 698h455l-140 -698h-22l136 678h-411l-136 -678h-22z" />
    <glyph glyph-name="Rho" unicode="&#x3a1;" horiz-adv-x="582" 
d="M54 0l140 698h251q73 0 112 -42t39 -106q0 -109 -56 -168.5t-154 -59.5h-245l-65 -322h-22zM145 342h243q78 0 121.5 39.5t55.5 99.5q6 29 7.5 45t1.5 24q0 26 -7.5 49.5t-23.5 41t-41 27.5t-59 10h-232z" />
    <glyph glyph-name="Sigma" unicode="&#x3a3;" horiz-adv-x="560" 
d="M3 0l5 22l331 333l-195 321l5 22h427l-4 -20h-406l198 -326l-330 -332h406l-4 -20h-433z" />
    <glyph glyph-name="Tau" unicode="&#x3a4;" horiz-adv-x="548" 
d="M370 678l-136 -678h-22l136 678h-249l4 20h520l-4 -20h-249z" />
    <glyph glyph-name="Upsilon" unicode="&#x3a5;" horiz-adv-x="540" 
d="M208 0l59 294l-158 404h23l148 -378h3l300 378h26l-320 -404l-59 -294h-22z" />
    <glyph glyph-name="Phi" unicode="&#x3a6;" horiz-adv-x="809" 
d="M350 37h-33q-59 0 -104 18t-75.5 51t-46 80t-15.5 104q0 82 25 151.5t72 120.5t114 80t152 29h38l11 54h22l-11 -54h33q59 0 104 -18t75.5 -51t46 -80t15.5 -104q0 -82 -25 -151.5t-72 -120.5t-114 -80t-152 -29h-38l-13 -66h-22zM473 651h-35q-75 0 -132 -23t-97 -58.5
t-63.5 -77.5t-30.5 -80l-9 -45q-3 -15 -4.5 -26t-2.5 -19.5t-1 -16v-15.5q0 -107 56 -170t166 -63h34zM411 57q75 0 132 23t97 58t63 77.5t31 80.5l9 45q3 15 4.5 26t2.5 19.5t1 16v15.5q0 53 -14 96t-42 73.5t-69.5 47t-96.5 16.5h-34l-119 -594h35z" />
    <glyph glyph-name="Chi" unicode="&#x3a7;" horiz-adv-x="552" 
d="M473 0h-24l-157 336h-3l-290 -336h-28l308 356l-161 342h24l152 -323h3l277 323h28l-296 -343z" />
    <glyph glyph-name="Psi" unicode="&#x3a8;" horiz-adv-x="705" 
d="M332 208q-106 0 -163 44t-57 128q0 27 3 56t12 73l38 189h22l-39 -194q-8 -36 -11 -64t-3 -60q0 -72 48.5 -112t153.5 -40l94 470h22l-94 -470q64 0 112.5 12.5t84 41.5t58.5 77.5t38 120.5l44 218h22l-44 -218q-16 -80 -42.5 -132.5t-65 -83.5t-91 -43.5t-120.5 -12.5
l-42 -208h-22z" />
    <glyph glyph-name="uni03A9" unicode="&#x3a9;" horiz-adv-x="676" 
d="M28 20h172l4 21q-22 17 -43 37.5t-37 47.5t-26 62.5t-10 83.5q0 43 6.5 92t21.5 97.5t39 93.5t60 79.5t84 55t111 20.5q105 0 162.5 -55.5t57.5 -162.5q0 -88 -17.5 -160t-49.5 -128t-77 -97t-100 -67l-4 -20h170l-3 -20h-192l9 49q81 37 141 107.5t80 170.5l12 62
q5 26 7 52.5t2 50.5q0 97 -51 147.5t-147 50.5q-105 0 -180.5 -70t-101.5 -204l-12 -62q-3 -17 -4.5 -39t-1.5 -43q0 -45 9 -79t24.5 -60.5t37 -46.5t46.5 -37l-10 -49h-192z" />
    <glyph glyph-name="Iotadieresis" unicode="&#x3aa;" horiz-adv-x="368" 
d="M15 0l4 19h107l132 660h-107l4 19h236l-4 -19h-107l-132 -660h107l-4 -19h-236zM208 819q-12 0 -16 5.5t-4 11.5t3 15q2 7 6.5 12t16.5 5t16 -5.5t4 -11.5t-3 -15q-2 -7 -6.5 -12t-16.5 -5zM390 819q-12 0 -16 5.5t-4 11.5t3 15q2 7 6.5 12t16.5 5t16 -5.5t4 -11.5
t-3 -15q-2 -7 -6.5 -12t-16.5 -5z" />
    <glyph glyph-name="Upsilondieresis" unicode="&#x3ab;" horiz-adv-x="540" 
d="M208 0l59 294l-158 404h23l148 -378h3l300 378h26l-320 -404l-59 -294h-22zM294 819q-12 0 -16 5.5t-4 11.5t3 15q2 7 6.5 12t16.5 5t16 -5.5t4 -11.5t-3 -15q-2 -7 -6.5 -12t-16.5 -5zM476 819q-12 0 -16 5.5t-4 11.5t3 15q2 7 6.5 12t16.5 5t16 -5.5t4 -11.5t-3 -15
q-2 -7 -6.5 -12t-16.5 -5z" />
    <glyph glyph-name="alphatonos" unicode="&#x3ac;" horiz-adv-x="624" 
d="M535 0h-58q-23 0 -23 19l-10 207h-3q-34 -76 -62.5 -122.5t-55.5 -72t-55 -34.5t-59 -9q-66 0 -107.5 49t-41.5 139q0 69 17 131t48.5 109t76 74.5t99.5 27.5q35 0 62.5 -11t46.5 -38t29.5 -73t12.5 -116h3l33 66l87 160h25l-140 -254l14 -233h65zM209 7q27 0 50.5 7
t46.5 27.5t47.5 58t55.5 99.5l27 54l-3 54q-3 54 -12.5 90.5t-26 59t-39.5 32.5t-54 10q-38 0 -71.5 -15.5t-60.5 -43.5t-46 -68.5t-29 -89.5l-7 -35q-3 -17 -4.5 -33.5t-1.5 -37.5q0 -87 36.5 -128t91.5 -41zM357 587l-15 7l97 157l18 -9z" />
    <glyph glyph-name="epsilontonos" unicode="&#x3ad;" horiz-adv-x="513" 
d="M427 75q-36 -42 -81 -64.5t-120 -22.5q-45 0 -76.5 10.5t-51.5 28t-29 40.5t-9 48q0 66 42 103.5t114 43.5v2q-42 13 -64 41.5t-22 66.5q0 73 48.5 109.5t133.5 36.5q64 0 106.5 -17.5t68.5 -49.5l-16 -13q-24 30 -63 45.5t-97 15.5q-39 0 -66.5 -7t-46 -20t-29 -30
t-15.5 -38q-3 -14 -3 -32q0 -49 34.5 -75.5t88.5 -26.5h89l-4 -19h-97q-33 0 -63 -6t-53.5 -18t-39.5 -30.5t-21 -43.5q-3 -14 -3.5 -23t-0.5 -15q0 -50 35 -79t110 -29q68 0 110.5 19.5t75.5 60.5zM322 587l-15 7l97 157l18 -9z" />
    <glyph glyph-name="etatonos" unicode="&#x3ae;" horiz-adv-x="569" 
d="M74 0l97 487h-85l4 19h78q23 0 23 -19q0 -5 -0.5 -8t-1.5 -8l-14 -70h3q30 57 72.5 87t105.5 30q64 0 98 -34.5t34 -97.5q0 -15 -2 -32.5t-5 -32.5l-104 -521h-21l104 520q3 17 5 35t2 28q0 116 -114 116q-34 0 -68.5 -13.5t-64.5 -48.5q-17 -20 -35.5 -50t-27.5 -75
l-62 -312h-21zM372 587l-15 7l97 157l18 -9z" />
    <glyph glyph-name="iotatonos" unicode="&#x3af;" horiz-adv-x="253" 
d="M187 0h-106q-23 0 -23 19q0 5 0.5 8t1.5 8l95 471h21l-98 -487h113zM194 587l-15 7l97 157l18 -9z" />
    <glyph glyph-name="upsilondieresistonos" unicode="&#x3b0;" horiz-adv-x="533" 
d="M109 221q-4 -18 -6.5 -40.5t-2.5 -45.5q0 -128 125 -128q37 0 66 9t50.5 32t38 62.5t28.5 100.5l59 295h21l-59 -296q-12 -62 -29.5 -104.5t-42.5 -68.5t-58 -37.5t-76 -11.5q-71 0 -107.5 39t-36.5 108q0 21 2.5 44.5t7.5 46.5l56 280h21zM318 587l-15 7l97 157l18 -9z
M269 642q-12 0 -16 5.5t-4 11.5t3 15q2 7 6.5 12t16.5 5t16 -5.5t4 -11.5t-3 -15q-2 -7 -6.5 -12t-16.5 -5zM443 642q-12 0 -16 5.5t-4 11.5t3 15q2 7 6.5 12t16.5 5t16 -5.5t4 -11.5t-3 -15q-2 -7 -6.5 -12t-16.5 -5z" />
    <glyph glyph-name="alpha" unicode="&#x3b1;" horiz-adv-x="624" 
d="M535 0h-58q-23 0 -23 19l-10 207h-3q-34 -76 -62.5 -122.5t-55.5 -72t-55 -34.5t-59 -9q-66 0 -107.5 49t-41.5 139q0 69 17 131t48.5 109t76 74.5t99.5 27.5q35 0 62.5 -11t46.5 -38t29.5 -73t12.5 -116h3l33 66l87 160h25l-140 -254l14 -233h65zM209 7q27 0 50.5 7
t46.5 27.5t47.5 58t55.5 99.5l27 54l-3 54q-3 54 -12.5 90.5t-26 59t-39.5 32.5t-54 10q-38 0 -71.5 -15.5t-60.5 -43.5t-46 -68.5t-29 -89.5l-7 -35q-3 -17 -4.5 -33.5t-1.5 -37.5q0 -87 36.5 -128t91.5 -41z" />
    <glyph glyph-name="beta" unicode="&#x3b2;" horiz-adv-x="547" 
d="M157 521q10 52 29 95t46 73t63 46.5t82 16.5q39 0 66 -11t43.5 -29.5t24 -42.5t7.5 -49q0 -43 -12.5 -78.5t-33.5 -63t-48 -46t-55 -25.5v-3q54 -9 84 -48.5t30 -92.5q0 -62 -17.5 -112.5t-48 -86.5t-73 -56t-91.5 -20q-66 0 -105 29t-53 76h-3l-58 -293h-21zM237 415h84
q33 0 60.5 12t49 31.5t36 45t22.5 53.5q5 17 6.5 33t1.5 30q0 51 -28 82t-94 31q-32 0 -62.5 -11t-56.5 -36.5t-46 -66t-32 -98.5l-72 -361q-5 -25 0.5 -52t22.5 -49.5t47.5 -37t76.5 -14.5q44 0 79 15.5t60.5 42t41.5 61.5t22 73q6 36 6 64t-9 52t-27 42t-45 28.5t-63 10.5
h-85z" />
    <glyph glyph-name="gamma" unicode="&#x3b3;" horiz-adv-x="460" 
d="M166 0l-80 487h-45l4 19h38q20 0 23 -16l37 -228l38 -235h3q97 124 164.5 244.5t105.5 234.5h23q-42 -119 -113.5 -247t-176.5 -259l-40 -200h-21z" />
    <glyph glyph-name="delta" unicode="&#x3b4;" horiz-adv-x="533" 
d="M281 721l-54 3v-1l114 -133q43 -50 69 -88t40.5 -69.5t19.5 -60t5 -59.5q0 -52 -14 -109t-44 -105t-77.5 -79.5t-114.5 -31.5q-40 0 -71 14t-52 39t-32 57.5t-11 70.5q0 76 22 138t64 106.5t101.5 68.5t134.5 24v4q-11 16 -25 32.5t-30 36.5l-118 140l4 21h325l-4 -19
h-252zM454 313q0 22 -2 42.5t-9 41.5t-19 44.5t-31 51.5q-75 0 -128.5 -21.5t-90 -56t-57 -77t-28.5 -85.5q-5 -28 -7 -46t-2 -38q0 -33 8.5 -62.5t26.5 -51.5t46 -35t66 -13q80 0 136.5 54.5t79.5 163.5q7 32 9 49.5t2 38.5z" />
    <glyph glyph-name="epsilon" unicode="&#x3b5;" horiz-adv-x="513" 
d="M427 75q-36 -42 -81 -64.5t-120 -22.5q-45 0 -76.5 10.5t-51.5 28t-29 40.5t-9 48q0 66 42 103.5t114 43.5v2q-42 13 -64 41.5t-22 66.5q0 73 48.5 109.5t133.5 36.5q64 0 106.5 -17.5t68.5 -49.5l-16 -13q-24 30 -63 45.5t-97 15.5q-39 0 -66.5 -7t-46 -20t-29 -30
t-15.5 -38q-3 -14 -3 -32q0 -49 34.5 -75.5t88.5 -26.5h89l-4 -19h-97q-33 0 -63 -6t-53.5 -18t-39.5 -30.5t-21 -43.5q-3 -14 -3.5 -23t-0.5 -15q0 -50 35 -79t110 -29q68 0 110.5 19.5t75.5 60.5z" />
    <glyph glyph-name="zeta" unicode="&#x3b6;" horiz-adv-x="417" 
d="M176 740h317l-4 -20l-298 -296q-34 -34 -56 -63t-35 -56t-18 -53t-5 -53q0 -33 9.5 -59t29.5 -47t52.5 -37t77.5 -30l62 -19q17 -5 17 -17q0 -6 -7 -21l-61 -129l-17 8l66 139l-62 19q-51 16 -87 34t-58.5 41t-32.5 52t-10 65q0 30 6 59t21 59t40.5 62.5t64.5 70.5
l279 274v1l-54 -3h-241z" />
    <glyph glyph-name="eta" unicode="&#x3b7;" horiz-adv-x="569" 
d="M74 0l97 487h-85l4 19h78q23 0 23 -19q0 -5 -0.5 -8t-1.5 -8l-14 -70h3q30 57 72.5 87t105.5 30q64 0 98 -34.5t34 -97.5q0 -15 -2 -32.5t-5 -32.5l-104 -521h-21l104 520q3 17 5 35t2 28q0 116 -114 116q-34 0 -68.5 -13.5t-64.5 -48.5q-17 -20 -35.5 -50t-27.5 -75
l-62 -312h-21z" />
    <glyph glyph-name="theta" unicode="&#x3b8;" horiz-adv-x="546" 
d="M95 390q23 0 23 -19q0 -5 -0.5 -8t-1.5 -8l-14 -69q-8 -36 -11.5 -66.5t-3.5 -60.5q0 -80 34.5 -116t103.5 -36q42 0 78.5 17.5t67 58t55.5 107t45 163.5l11 55h-127q-92 0 -139 34.5t-47 106.5q0 16 2.5 34.5t8.5 38t16.5 39t27.5 36.5q27 27 62.5 41t74.5 14
q77 0 118 -42.5t41 -128.5q0 -68 -11.5 -147.5t-32 -154.5t-48.5 -136.5t-61 -94.5q-32 -32 -67.5 -46t-74.5 -14q-77 0 -118 42.5t-41 128.5q0 30 3.5 60t11.5 68l17 84h-60l4 19h53zM190 549q0 -66 40 -94t125 -28h131q5 32 9 72t4 82q0 80 -34.5 116t-103.5 36
q-65 0 -109.5 -36t-56.5 -98q-5 -25 -5 -50z" />
    <glyph glyph-name="iota" unicode="&#x3b9;" horiz-adv-x="253" 
d="M187 0h-106q-23 0 -23 19q0 5 0.5 8t1.5 8l95 471h21l-98 -487h113z" />
    <glyph glyph-name="kappa" unicode="&#x3ba;" horiz-adv-x="481" 
d="M222 277l-112 -99l-36 -178h-21l101 506h21l-59 -296h4l105 94l201 190q13 12 32 12h40l-4 -19h-47l-209 -197l173 -290h-24z" />
    <glyph glyph-name="lambda" unicode="&#x3bb;" horiz-adv-x="440" 
d="M223 721h-66l4 19h59q20 0 23 -16l98 -705h45l-4 -19h-38q-20 0 -23 16l-63 458h-3l-262 -474h-23l283 508z" />
    <glyph glyph-name="uni03BC" unicode="&#x3bc;" horiz-adv-x="558" 
d="M14 -200l141 706h21l-64 -320q-3 -17 -5 -35t-2 -28q0 -116 114 -116q34 0 68.5 13.5t64.5 48.5q17 20 35.5 50t27.5 75l62 312h21l-97 -487h85l-4 -19h-78q-23 0 -23 19q0 5 0.5 8t1.5 8l14 70h-3q-30 -57 -72.5 -87t-105.5 -30q-54 0 -86 24.5t-42 67.5h-2l-20 -124
l-31 -156h-21z" />
    <glyph glyph-name="nu" unicode="&#x3bd;" horiz-adv-x="460" 
d="M163 0l-77 487h-45l4 19h38q20 0 23 -16l39 -252l34 -214h3q99 125 166.5 246.5t105.5 235.5h23q-42 -119 -113.5 -247t-174.5 -259h-26z" />
    <glyph glyph-name="xi" unicode="&#x3be;" horiz-adv-x="446" 
d="M388 721q-39 0 -72 -11t-59 -30t-43.5 -45.5t-23.5 -57.5q-5 -23 -5 -43q0 -59 32.5 -89t80.5 -30h81l-4 -19h-82q-44 0 -79 -12t-61.5 -32.5t-43.5 -48t-23 -59.5q-3 -17 -4.5 -28.5t-1.5 -23.5q0 -61 41 -99.5t135 -66.5l62 -19q17 -5 17 -17q0 -6 -7 -21l-61 -129
l-17 8l66 139l-62 19q-51 16 -88 34t-61 40t-35 49.5t-11 62.5q0 86 49.5 145t141.5 70v2q-44 17 -65 46.5t-21 78.5q0 63 36.5 114.5t105.5 69.5v3h-127l4 19h317l-4 -19h-108z" />
    <glyph glyph-name="omicron" unicode="&#x3bf;" horiz-adv-x="534" 
d="M225 -12q-40 0 -71 14t-52 39t-32 57.5t-11 70.5q0 70 16 133.5t47.5 111.5t78 76t108.5 28q40 0 71 -14t52 -39t32 -58t11 -70q0 -70 -16 -133.5t-47.5 -111.5t-78 -76t-108.5 -28zM227 7q85 0 139.5 58t74.5 160l8 40q3 17 4 34.5t1 37.5q0 33 -8.5 62.5t-26.5 51.5
t-46 35t-66 13q-85 0 -139.5 -58t-74.5 -160l-8 -40q-3 -17 -4 -34.5t-1 -37.5q0 -33 8.5 -62.5t26.5 -51.5t46 -35t66 -13z" />
    <glyph glyph-name="pi" unicode="&#x3c0;" horiz-adv-x="562" 
d="M380 0q-23 0 -23 19q0 5 2 15l91 453h-261l-97 -487h-21l97 487h-94l4 19h500l-4 -19h-103l-94 -468h76l-4 -19h-69z" />
    <glyph glyph-name="rho" unicode="&#x3c1;" horiz-adv-x="536" 
d="M86 287q10 52 29 95t47 73t66 46.5t88 16.5q38 0 68 -14t50.5 -39t31 -58t10.5 -70q0 -70 -16 -133t-47 -111t-78 -76.5t-108 -28.5q-64 0 -103 29t-53 76h-3l-58 -293h-21zM227 7q86 0 140.5 59t74.5 158l8 41q3 17 4 34.5t1 37.5q0 33 -8.5 62.5t-25.5 51.5t-44 35
t-63 13t-68.5 -11t-59.5 -36.5t-47 -66t-32 -98.5l-25 -127q-5 -25 0.5 -52t22.5 -49.5t47 -37t75 -14.5z" />
    <glyph glyph-name="sigma1" unicode="&#x3c2;" horiz-adv-x="466" 
d="M323 -13l-62 19q-57 18 -95.5 37.5t-61.5 44.5t-33 56t-10 72q0 55 14.5 109.5t44 97t74 69t104.5 26.5t99.5 -32t50.5 -83l-19 -5q-11 49 -46.5 75t-86.5 26q-74 0 -126.5 -49t-72.5 -134q-8 -36 -11.5 -59t-3.5 -41q0 -38 9.5 -66.5t31 -51t56 -40t84.5 -32.5l62 -19
q17 -5 17 -17q0 -6 -7 -21l-61 -129l-17 8z" />
    <glyph glyph-name="sigma" unicode="&#x3c3;" horiz-adv-x="542" 
d="M399 487v-3q36 -30 55 -72.5t19 -95.5q0 -62 -15.5 -121t-46.5 -105t-77.5 -74t-108.5 -28q-40 0 -71 14t-52 39t-32 57.5t-11 70.5q0 71 18 132.5t52 107t83 71.5t112 26h227l-4 -19h-148zM322 487q-89 0 -150 -58t-81 -160l-6 -28q-3 -17 -4 -34.5t-1 -37.5
q0 -33 8.5 -62.5t26.5 -51.5t46 -35t66 -13q85 0 139.5 58t74.5 160l4 19q4 17 5.5 36t1.5 36q0 52 -16 92t-58 79h-56z" />
    <glyph glyph-name="tau" unicode="&#x3c4;" horiz-adv-x="455" 
d="M187 0q-23 0 -23 19q0 5 0.5 8t1.5 8l91 452h-179l4 19h389l-4 -19h-189l-94 -468h119l-4 -19h-112z" />
    <glyph glyph-name="upsilon" unicode="&#x3c5;" horiz-adv-x="533" 
d="M109 221q-4 -18 -6.5 -40.5t-2.5 -45.5q0 -128 125 -128q37 0 66 9t50.5 32t38 62.5t28.5 100.5l59 295h21l-59 -296q-12 -62 -29.5 -104.5t-42.5 -68.5t-58 -37.5t-76 -11.5q-71 0 -107.5 39t-36.5 108q0 21 2.5 44.5t7.5 46.5l56 280h21z" />
    <glyph glyph-name="phi" unicode="&#x3c6;" horiz-adv-x="682" 
d="M259 -12q-51 0 -88.5 13t-62 36t-36.5 55.5t-12 70.5q0 46 10 100t32.5 104.5t57 91t84.5 59.5l8 -17q-61 -23 -100.5 -85t-55.5 -139l-9 -43q-2 -11 -4 -31t-2 -40q0 -75 44.5 -115.5t137.5 -40.5l56 275q12 58 28 102.5t38 74t51 44.5t67 15q54 0 82.5 -34t28.5 -106
q0 -86 -20.5 -157.5t-61.5 -123.5t-104 -80.5t-148 -28.5l-37 -188h-21zM284 7q52 0 99 13t86 41.5t67 74.5t42 112l5 24q5 27 7.5 55t2.5 55q0 67 -25 92t-67 25q-27 0 -50.5 -9.5t-44 -34.5t-37 -67t-29.5 -106z" />
    <glyph glyph-name="chi" unicode="&#x3c7;" horiz-adv-x="446" 
d="M100 506q19 0 23 -15l81 -308h2l230 323h25l-246 -343l87 -344h45l-4 -19h-38q-20 0 -23 16l-81 327h-2l-236 -343h-25l252 363l-87 324h-45l4 19h38z" />
    <glyph glyph-name="psi" unicode="&#x3c8;" horiz-adv-x="666" 
d="M229 -200l37 188q-52 0 -87.5 13t-57.5 36.5t-32 54.5t-10 67q0 21 2.5 44.5t7.5 46.5l51 256h21l-52 -261q-4 -18 -6.5 -40.5t-2.5 -45.5q0 -35 9 -63.5t29 -48t52.5 -30t79.5 -10.5l141 703h21l-141 -703q47 0 87.5 8.5t73 33.5t56.5 69.5t38 116.5l54 271h21l-54 -273
q-14 -71 -38 -118t-58.5 -75t-80 -40t-103.5 -12l-37 -188h-21z" />
    <glyph glyph-name="omega" unicode="&#x3c9;" horiz-adv-x="705" 
d="M361 224q-5 -27 -7 -50t-2 -50q0 -65 25.5 -91t65.5 -26q25 0 49 10.5t44.5 34.5t37 62.5t27.5 93.5l6 31q3 17 6 46t3 56q0 51 -16.5 93t-54.5 69l12 15q41 -29 60.5 -74t19.5 -105q0 -61 -11.5 -123.5t-35 -113t-60 -82.5t-86.5 -32q-53 0 -81.5 32.5t-28.5 107.5h-3
q-27 -78 -63.5 -109t-89.5 -31t-81.5 34t-28.5 106q0 59 11 120t33.5 114.5t58 95t85.5 60.5l8 -17q-61 -23 -100.5 -85t-55.5 -139l-9 -43q-5 -27 -7.5 -55t-2.5 -55q0 -34 6.5 -56.5t18.5 -36t28.5 -19t37.5 -5.5q25 0 48.5 9.5t44 34.5t37.5 66.5t30 106.5l25 125h21z
" />
    <glyph glyph-name="iotadieresis" unicode="&#x3ca;" horiz-adv-x="253" 
d="M187 0h-106q-23 0 -23 19q0 5 0.5 8t1.5 8l95 471h21l-98 -487h113zM107 642q-12 0 -16 5.5t-4 11.5t3 15q2 7 6.5 12t16.5 5t16 -5.5t4 -11.5t-3 -15q-2 -7 -6.5 -12t-16.5 -5zM289 642q-12 0 -16 5.5t-4 11.5t3 15q2 7 6.5 12t16.5 5t16 -5.5t4 -11.5t-3 -15
q-2 -7 -6.5 -12t-16.5 -5z" />
    <glyph glyph-name="upsilondieresis" unicode="&#x3cb;" horiz-adv-x="533" 
d="M109 221q-4 -18 -6.5 -40.5t-2.5 -45.5q0 -128 125 -128q37 0 66 9t50.5 32t38 62.5t28.5 100.5l59 295h21l-59 -296q-12 -62 -29.5 -104.5t-42.5 -68.5t-58 -37.5t-76 -11.5q-71 0 -107.5 39t-36.5 108q0 21 2.5 44.5t7.5 46.5l56 280h21zM256 642q-12 0 -16 5.5
t-4 11.5t3 15q2 7 6.5 12t16.5 5t16 -5.5t4 -11.5t-3 -15q-2 -7 -6.5 -12t-16.5 -5zM438 642q-12 0 -16 5.5t-4 11.5t3 15q2 7 6.5 12t16.5 5t16 -5.5t4 -11.5t-3 -15q-2 -7 -6.5 -12t-16.5 -5z" />
    <glyph glyph-name="omicrontonos" unicode="&#x3cc;" horiz-adv-x="534" 
d="M225 -12q-40 0 -71 14t-52 39t-32 57.5t-11 70.5q0 70 16 133.5t47.5 111.5t78 76t108.5 28q40 0 71 -14t52 -39t32 -58t11 -70q0 -70 -16 -133.5t-47.5 -111.5t-78 -76t-108.5 -28zM227 7q85 0 139.5 58t74.5 160l8 40q3 17 4 34.5t1 37.5q0 33 -8.5 62.5t-26.5 51.5
t-46 35t-66 13q-85 0 -139.5 -58t-74.5 -160l-8 -40q-3 -17 -4 -34.5t-1 -37.5q0 -33 8.5 -62.5t26.5 -51.5t46 -35t66 -13zM333 587l-15 7l97 157l18 -9z" />
    <glyph glyph-name="upsilontonos" unicode="&#x3cd;" horiz-adv-x="533" 
d="M109 221q-4 -18 -6.5 -40.5t-2.5 -45.5q0 -128 125 -128q37 0 66 9t50.5 32t38 62.5t28.5 100.5l59 295h21l-59 -296q-12 -62 -29.5 -104.5t-42.5 -68.5t-58 -37.5t-76 -11.5q-71 0 -107.5 39t-36.5 108q0 21 2.5 44.5t7.5 46.5l56 280h21zM344 587l-15 7l97 157l18 -9z
" />
    <glyph glyph-name="omegatonos" unicode="&#x3ce;" horiz-adv-x="705" 
d="M361 224q-5 -27 -7 -50t-2 -50q0 -65 25.5 -91t65.5 -26q25 0 49 10.5t44.5 34.5t37 62.5t27.5 93.5l6 31q3 17 6 46t3 56q0 51 -16.5 93t-54.5 69l12 15q41 -29 60.5 -74t19.5 -105q0 -61 -11.5 -123.5t-35 -113t-60 -82.5t-86.5 -32q-53 0 -81.5 32.5t-28.5 107.5h-3
q-27 -78 -63.5 -109t-89.5 -31t-81.5 34t-28.5 106q0 59 11 120t33.5 114.5t58 95t85.5 60.5l8 -17q-61 -23 -100.5 -85t-55.5 -139l-9 -43q-5 -27 -7.5 -55t-2.5 -55q0 -34 6.5 -56.5t18.5 -36t28.5 -19t37.5 -5.5q25 0 48.5 9.5t44 34.5t37.5 66.5t30 106.5l25 125h21z
M422 587l-15 7l97 157l18 -9z" />
    <glyph glyph-name="uni0400" unicode="&#x400;" horiz-adv-x="553" 
d="M54 0l140 698h378l-4 -20h-356l-63 -314h344l-4 -20h-344l-65 -324h356l-4 -20h-378zM314 921l19 11l81 -155l-16 -9z" />
    <glyph glyph-name="uni0401" unicode="&#x401;" horiz-adv-x="553" 
d="M54 0l140 698h378l-4 -20h-356l-63 -314h344l-4 -20h-344l-65 -324h356l-4 -20h-378zM315 819q-12 0 -16 5.5t-4 11.5t3 15q2 7 6.5 12t16.5 5t16 -5.5t4 -11.5t-3 -15q-2 -7 -6.5 -12t-16.5 -5zM497 819q-12 0 -16 5.5t-4 11.5t3 15q2 7 6.5 12t16.5 5t16 -5.5t4 -11.5
t-3 -15q-2 -7 -6.5 -12t-16.5 -5z" />
    <glyph glyph-name="uni0402" unicode="&#x402;" horiz-adv-x="755" 
d="M426 -144h84q19 7 36.5 19.5t32.5 34t27 53t21 77.5l15 75q8 45 13.5 75.5t5.5 57.5q0 75 -42.5 114t-137.5 39q-47 0 -87.5 -7t-85.5 -22l-74 -372h-22l136 678h-249l4 20h520l-4 -20h-249l-58 -286h2q38 14 81 21.5t90 7.5q103 0 150.5 -44.5t47.5 -128.5q0 -29 -5 -59
t-15 -79l-15 -75q-11 -56 -27 -94t-37 -61t-45 -33.5t-51 -10.5h-66z" />
    <glyph glyph-name="uni0403" unicode="&#x403;" horiz-adv-x="486" 
d="M194 698h340l-4 -20h-318l-136 -678h-22zM361 767l-13 11l143 153l17 -13z" />
    <glyph glyph-name="uni0404" unicode="&#x404;" horiz-adv-x="595" 
d="M291 -12q-50 0 -90.5 15t-70 44.5t-45.5 72.5t-16 100q0 49 7.5 105t24.5 110t42.5 104t62.5 88t84.5 60.5t107.5 22.5q84 0 129 -38t62 -103l-21 -5q-8 28 -21 51.5t-33.5 40t-49 25.5t-67.5 9q-53 0 -99 -21.5t-83 -61.5t-63 -96.5t-40 -126.5l-4 -20h332l-4 -20h-332
l-3 -15q-6 -32 -8 -60t-2 -49q0 -98 51.5 -155t148.5 -57q70 0 119.5 35.5t89.5 107.5l19 -10q-47 -82 -101 -117.5t-127 -35.5z" />
    <glyph glyph-name="uni0405" unicode="&#x405;" horiz-adv-x="536" 
d="M235 -12q-45 0 -80 8t-61 22.5t-45.5 35t-34.5 45.5l18 13q14 -24 31.5 -43.5t41.5 -33t56 -20.5t75 -7q56 0 95.5 16t64 43t36 62.5t11.5 74.5q0 54 -28.5 85t-92.5 48l-86 22q-68 17 -98.5 55.5t-30.5 98.5q0 40 13.5 76t40.5 63t67.5 42.5t95.5 15.5q43 0 75.5 -6.5
t56.5 -19t41.5 -30.5t30.5 -42l-18 -11q-27 49 -70 69t-117 20q-50 0 -86.5 -14.5t-60.5 -38.5t-35.5 -56t-11.5 -68q0 -55 27 -86.5t88 -47.5l83 -22q139 -37 139 -153q0 -44 -13.5 -83.5t-41.5 -69t-72 -46.5t-104 -17z" />
    <glyph glyph-name="uni0406" unicode="&#x406;" horiz-adv-x="368" 
d="M15 0l4 19h107l132 660h-107l4 19h236l-4 -19h-107l-132 -660h107l-4 -19h-236z" />
    <glyph glyph-name="uni0407" unicode="&#x407;" horiz-adv-x="368" 
d="M15 0l4 19h107l132 660h-107l4 19h236l-4 -19h-107l-132 -660h107l-4 -19h-236zM208 819q-12 0 -16 5.5t-4 11.5t3 15q2 7 6.5 12t16.5 5t16 -5.5t4 -11.5t-3 -15q-2 -7 -6.5 -12t-16.5 -5zM390 819q-12 0 -16 5.5t-4 11.5t3 15q2 7 6.5 12t16.5 5t16 -5.5t4 -11.5
t-3 -15q-2 -7 -6.5 -12t-16.5 -5z" />
    <glyph glyph-name="uni0408" unicode="&#x408;" horiz-adv-x="455" 
d="M446 698l-103 -520q-18 -92 -70.5 -141t-130.5 -49q-73 0 -112 36.5t-44 93.5l20 5q6 -58 41.5 -86.5t94.5 -28.5q72 0 117.5 45.5t62.5 130.5l99 494h-246l3 20h268z" />
    <glyph glyph-name="uni0409" unicode="&#x409;" horiz-adv-x="967" 
d="M-36 20h63q54 35 109 157t98 336l37 185h321l-61 -303h208q81 0 119.5 -43.5t38.5 -110.5q0 -115 -58 -178t-161 -63h-248l136 678h-277l-33 -165q-40 -199 -89 -317t-97 -166q-18 -18 -32.5 -24t-32.5 -6h-45zM680 20q41 0 73 11t55 31t38 47.5t21 60.5q5 26 6.5 41.5
t1.5 29.5q0 28 -7.5 52.5t-24 42.5t-42.5 28.5t-64 10.5h-210l-71 -355h224z" />
    <glyph glyph-name="uni040A" unicode="&#x40a;" horiz-adv-x="1014" 
d="M194 698h22l-64 -320h401l64 320h22l-64 -320h208q81 0 119.5 -43t38.5 -110q0 -115 -56.5 -170t-159.5 -55h-248l72 358h-401l-72 -358h-22zM727 20q84 0 128 36.5t58 105.5q4 20 5 34.5t1 28.5q0 28 -7.5 52.5t-24 42.5t-42.5 28t-64 10h-210l-68 -338h224z" />
    <glyph glyph-name="uni040B" unicode="&#x40b;" horiz-adv-x="765" 
d="M348 678h-249l4 20h520l-4 -20h-249l-58 -286h2q38 14 82 21.5t94 7.5q106 0 154.5 -44.5t48.5 -128.5q0 -29 -5 -59t-15 -79l-22 -110h-22l23 115q9 45 14 75.5t5 57.5q0 75 -43 114t-142 39q-50 0 -91.5 -7t-86.5 -22l-74 -372h-22z" />
    <glyph glyph-name="uni040C" unicode="&#x40c;" horiz-adv-x="607" 
d="M193 698h22l-67 -334h158l245 315q8 11 16.5 15t22.5 4h49l-4 -20h-59l-228 -293q-11 -15 -20.5 -22t-20.5 -9l-1 -2q10 -2 15.5 -7t10.5 -17l123 -308h59l-4 -20h-49q-11 0 -18 4.5t-12 16.5l-129 323h-158l-69 -344h-22zM365 767l-13 11l143 153l17 -13z" />
    <glyph glyph-name="uni040D" unicode="&#x40d;" horiz-adv-x="680" 
d="M194 698h21l-105 -524l-29 -134h3l87 104l474 554h19l-140 -698h-21l105 524l29 134h-3l-87 -104l-474 -554h-19zM355 921l19 11l81 -155l-16 -9z" />
    <glyph glyph-name="uni040E" unicode="&#x40e;" horiz-adv-x="556" 
d="M96 19h91l79 131l-150 548h22l91 -333l51 -188h2l106 176l206 345h23l-405 -676q-8 -13 -17 -17.5t-23 -4.5h-80zM371 786q-38 0 -58.5 18t-32.5 51l-16 45l16 7l23 -65q12 -20 27.5 -29t41.5 -9t45 9t42 29l47 65l15 -8l-33 -44q-25 -33 -52 -51t-65 -18z" />
    <glyph glyph-name="uni040F" unicode="&#x40f;" horiz-adv-x="665" 
d="M270 0h-216l140 698h22l-136 -678h411l136 678h22l-140 -698h-217l-30 -150h-22z" />
    <glyph glyph-name="uni0410" unicode="&#x410;" horiz-adv-x="594" 
d="M497 0l-45 234h-318l-122 -234h-24l366 698h30l135 -698h-22zM367 673h-3l-220 -420h304z" />
    <glyph glyph-name="uni0411" unicode="&#x411;" horiz-adv-x="597" 
d="M194 698h351l-4 -20h-329l-57 -283h209q81 0 119.5 -43.5t38.5 -110.5q0 -115 -58 -178t-161 -63h-249zM305 20q41 0 73 11t55 31t38 47.5t21 60.5q5 26 6.5 41.5t1.5 29.5q0 28 -7.5 52.5t-24 42.5t-42.5 28.5t-64 10.5h-211l-71 -355h225z" />
    <glyph glyph-name="uni0412" unicode="&#x412;" horiz-adv-x="606" 
d="M193 698h221q72 0 111 -35.5t39 -101.5q0 -31 -6 -61.5t-21.5 -57t-41.5 -45.5t-66 -27v-3q50 -11 76 -49.5t26 -89.5q0 -109 -56 -168.5t-154 -59.5h-266zM323 20q78 0 121.5 39.5t55.5 99.5q6 29 7.5 45t1.5 24q0 26 -7.5 49.5t-24 41.5t-41.5 28.5t-59 10.5h-229
l-67 -338h242zM367 378q71 0 113 31t53 86q6 32 7.5 45.5t1.5 21.5q0 53 -30 84.5t-99 31.5h-202l-59 -300h215z" />
    <glyph glyph-name="uni0413" unicode="&#x413;" horiz-adv-x="486" 
d="M194 698h340l-4 -20h-318l-136 -678h-22z" />
    <glyph glyph-name="uni0414" unicode="&#x414;" horiz-adv-x="659" 
d="M-27 20h68q28 32 54.5 75t51 102t47 136.5t42.5 178.5l37 186h345l-136 -678h85l-34 -170h-22l30 150h-550l-30 -150h-22zM460 20l132 658h-301l-33 -165q-20 -99 -41.5 -176.5t-45.5 -136.5t-49.5 -102.5t-52.5 -74.5l-1 -3h392z" />
    <glyph glyph-name="uni0415" unicode="&#x415;" horiz-adv-x="553" 
d="M54 0l140 698h378l-4 -20h-356l-63 -314h344l-4 -20h-344l-65 -324h356l-4 -20h-378z" />
    <glyph glyph-name="uni0416" unicode="&#x416;" horiz-adv-x="867" 
d="M-21 20h57l227 310q9 12 16 16t20 6v2q-17 3 -25 29l-93 295h-59l4 20h49q21 0 28 -22l100 -312h131l67 334h22l-67 -334h131l221 310q10 14 19 19t23 5h49l-4 -20h-59l-209 -293q-12 -17 -19.5 -23t-19.5 -8l-1 -2q9 -2 14.5 -7.5t10.5 -20.5l104 -304h59l-4 -20h-49
q-22 0 -29 22l-110 322h-131l-69 -344h-22l69 344h-131l-238 -325q-8 -11 -16.5 -15t-22.5 -4h-47z" />
    <glyph glyph-name="uni0417" unicode="&#x417;" horiz-adv-x="556" 
d="M240 -12q-156 0 -218 107l18 12q30 -51 78 -75t123 -24q42 0 78 10t63.5 29t45.5 44.5t24 57.5q4 20 5.5 34.5t1.5 21.5q0 62 -39 100.5t-118 38.5h-110l4 20h109q81 0 133.5 39t66.5 107q6 30 6 47q0 62 -42 97.5t-114 35.5q-74 0 -120.5 -23.5t-77.5 -76.5l-18 9
q29 54 82.5 82.5t136.5 28.5q37 0 69.5 -10.5t55.5 -30t36.5 -48t13.5 -64.5q0 -42 -13 -77t-36 -61t-54.5 -42.5t-67.5 -22.5l-1 -3q52 -7 86 -46t34 -100q0 -53 -17.5 -93t-49.5 -68t-76.5 -42t-97.5 -14z" />
    <glyph glyph-name="uni0418" unicode="&#x418;" horiz-adv-x="680" 
d="M194 698h21l-105 -524l-29 -134h3l87 104l474 554h19l-140 -698h-21l105 524l29 134h-3l-87 -104l-474 -554h-19z" />
    <glyph glyph-name="uni0419" unicode="&#x419;" horiz-adv-x="680" 
d="M194 698h21l-105 -524l-29 -134h3l87 104l474 554h19l-140 -698h-21l105 524l29 134h-3l-87 -104l-474 -554h-19zM439 786q-38 0 -58.5 18t-32.5 51l-16 45l16 7l23 -65q12 -20 27.5 -29t41.5 -9t45 9t42 29l47 65l15 -8l-33 -44q-25 -33 -52 -51t-65 -18z" />
    <glyph glyph-name="uni041A" unicode="&#x41a;" horiz-adv-x="607" 
d="M193 698h22l-67 -334h158l245 315q8 11 16.5 15t22.5 4h49l-4 -20h-59l-228 -293q-11 -15 -20.5 -22t-20.5 -9l-1 -2q10 -2 15.5 -7t10.5 -17l123 -308h59l-4 -20h-49q-11 0 -18 4.5t-12 16.5l-129 323h-158l-69 -344h-22z" />
    <glyph glyph-name="uni041B" unicode="&#x41b;" horiz-adv-x="632" 
d="M-36 20h63q54 35 109 157t98 336l37 185h345l-140 -698h-22l136 678h-301l-33 -165q-40 -199 -89 -317t-97 -166q-18 -18 -32.5 -24t-32.5 -6h-45z" />
    <glyph glyph-name="uni041C" unicode="&#x41c;" horiz-adv-x="780" 
d="M738 673h-3l-349 -437l-173 437h-3l-135 -673h-21l140 698h32l166 -420h3l334 420h35l-140 -698h-21z" />
    <glyph glyph-name="uni041D" unicode="&#x41d;" horiz-adv-x="680" 
d="M571 344h-426l-69 -344h-22l140 698h22l-67 -334h426l67 334h22l-140 -698h-22z" />
    <glyph glyph-name="uni041E" unicode="&#x41e;" horiz-adv-x="658" 
d="M291 -12q-50 0 -90.5 15t-70 44.5t-45.5 72.5t-16 100q0 49 7.5 105t24 110t43 104t63 88t85 60.5t109.5 22.5q49 0 90 -15t70.5 -44.5t45.5 -72.5t16 -100q0 -49 -7.5 -105t-24 -110t-43 -104t-63 -88t-85 -60.5t-109.5 -22.5zM291 8q54 0 101 21.5t84 61.5t63.5 96.5
t40.5 126.5l11 55q6 32 8 60t2 49q0 98 -51.5 155t-148.5 57q-54 0 -101 -21.5t-84 -61.5t-63.5 -96.5t-40.5 -126.5l-11 -55q-6 -32 -8 -60t-2 -49q0 -98 51.5 -155t148.5 -57z" />
    <glyph glyph-name="uni041F" unicode="&#x41f;" horiz-adv-x="665" 
d="M194 698h455l-140 -698h-22l136 678h-411l-136 -678h-22z" />
    <glyph glyph-name="uni0420" unicode="&#x420;" horiz-adv-x="582" 
d="M54 0l140 698h251q73 0 112 -42t39 -106q0 -109 -56 -168.5t-154 -59.5h-245l-65 -322h-22zM145 342h243q78 0 121.5 39.5t55.5 99.5q6 29 7.5 45t1.5 24q0 26 -7.5 49.5t-23.5 41t-41 27.5t-59 10h-232z" />
    <glyph glyph-name="uni0421" unicode="&#x421;" horiz-adv-x="595" 
d="M291 -12q-50 0 -90.5 15t-70 44.5t-45.5 72.5t-16 100q0 49 7.5 105t24.5 110t42.5 104t62.5 88t84.5 60.5t107.5 22.5q84 0 129 -38t62 -103l-21 -5q-8 28 -21 51.5t-33.5 40t-49 25.5t-67.5 9q-53 0 -99 -21.5t-83 -61.5t-63 -96.5t-40 -126.5l-11 -55q-6 -32 -8 -60
t-2 -49q0 -98 51.5 -155t148.5 -57q70 0 119.5 35.5t89.5 107.5l19 -10q-47 -82 -101 -117.5t-127 -35.5z" />
    <glyph glyph-name="uni0422" unicode="&#x422;" horiz-adv-x="548" 
d="M370 678l-136 -678h-22l136 678h-249l4 20h520l-4 -20h-249z" />
    <glyph glyph-name="uni0423" unicode="&#x423;" horiz-adv-x="556" 
d="M96 19h91l79 131l-150 548h22l91 -333l51 -188h2l106 176l206 345h23l-405 -676q-8 -13 -17 -17.5t-23 -4.5h-80z" />
    <glyph glyph-name="uni0424" unicode="&#x424;" horiz-adv-x="817" 
d="M359 61h-49q-52 0 -94.5 16t-73 45.5t-47 70.5t-16.5 91q0 77 21.5 141.5t64 111t106.5 72.5t149 26h54l18 90h22l-18 -90h49q52 0 94.5 -16t73 -45.5t47 -70.5t16.5 -91q0 -77 -21.5 -141.5t-64.5 -111t-106.5 -72.5t-148.5 -26h-54l-18 -90h-22zM363 81l107 534h-51
q-68 0 -120.5 -18t-90 -47.5t-60 -67t-30.5 -76.5l-9 -45q-3 -15 -4.5 -26t-2.5 -19.5t-1 -16v-15.5q0 -46 15.5 -83.5t43 -64t66.5 -41t87 -14.5h50zM436 81q68 0 120.5 18t90 47.5t60 67t30.5 76.5l9 45q3 15 4.5 26t2.5 19.5t1 16v15.5q0 46 -15.5 83.5t-43 64t-66.5 41
t-87 14.5h-50l-107 -534h51z" />
    <glyph glyph-name="uni0425" unicode="&#x425;" horiz-adv-x="552" 
d="M473 0h-24l-157 336h-3l-290 -336h-28l308 356l-161 342h24l152 -323h3l277 323h28l-296 -343z" />
    <glyph glyph-name="uni0426" unicode="&#x426;" horiz-adv-x="690" 
d="M572 0h-518l140 698h22l-136 -678h411l136 678h22l-136 -678h85l-34 -170h-22z" />
    <glyph glyph-name="uni0427" unicode="&#x427;" horiz-adv-x="607" 
d="M491 306h-2q-38 -14 -82 -21.5t-94 -7.5q-106 0 -154.5 44.5t-48.5 128.5q0 29 5 59t15 79l22 110h22l-23 -115q-9 -45 -14 -75.5t-5 -57.5q0 -75 43 -114t142 -39q50 0 91.5 7t86.5 22l74 372h22l-140 -698h-22z" />
    <glyph glyph-name="uni0428" unicode="&#x428;" horiz-adv-x="888" 
d="M194 698h22l-136 -678h306l136 678h22l-136 -678h306l136 678h22l-140 -698h-678z" />
    <glyph glyph-name="uni0429" unicode="&#x429;" horiz-adv-x="913" 
d="M793 0h-739l140 698h22l-136 -678h306l136 678h22l-136 -678h306l136 678h22l-136 -678h82l-34 -170h-21z" />
    <glyph glyph-name="uni042A" unicode="&#x42a;" horiz-adv-x="706" 
d="M304 678h-205l4 20h227l-61 -303h209q81 0 119.5 -43.5t38.5 -110.5q0 -115 -58 -178t-161 -63h-249zM419 20q41 0 73 11t55 31t38 47.5t21 60.5q5 26 6.5 41.5t1.5 29.5q0 28 -7.5 52.5t-24 42.5t-42.5 28.5t-64 10.5h-211l-71 -355h225z" />
    <glyph glyph-name="uni042B" unicode="&#x42b;" horiz-adv-x="804" 
d="M194 698h22l-61 -303h208q81 0 119.5 -43.5t38.5 -110.5q0 -115 -58 -178t-161 -63h-248zM304 20q41 0 73 11t55 31t38 47.5t21 60.5q5 26 6.5 41.5t1.5 29.5q0 28 -7.5 52.5t-24 42.5t-42.5 28.5t-64 10.5h-210l-71 -355h224zM766 698h22l-140 -698h-22z" />
    <glyph glyph-name="uni042C" unicode="&#x42c;" horiz-adv-x="602" 
d="M195 698h22l-61 -303h218q81 0 119.5 -43.5t38.5 -110.5q0 -115 -58 -178t-161 -63h-258zM315 20q41 0 73 11t55 31t38 47.5t21 60.5q5 26 6.5 41.5t1.5 29.5q0 28 -7.5 52.5t-24 42.5t-42.5 28.5t-64 10.5h-220l-71 -355h234z" />
    <glyph glyph-name="uni042D" unicode="&#x42d;" horiz-adv-x="595" 
d="M195 364h332l1 5q6 32 8 60t2 49q0 98 -51.5 155t-148.5 57q-68 0 -115 -31.5t-83 -94.5l-19 10q39 68 92 102t125 34q49 0 90 -15t70.5 -44.5t45.5 -72.5t16 -100q0 -49 -7.5 -105t-24.5 -110t-42.5 -104t-62.5 -88t-84.5 -60.5t-107.5 -22.5q-88 0 -135 39t-64 120
l21 5q15 -72 56 -108t123 -36q53 0 99 21.5t83 61.5t63 96.5t40 126.5l6 30h-332z" />
    <glyph glyph-name="uni042E" unicode="&#x42e;" horiz-adv-x="884" 
d="M521 -12q-49 0 -89 15t-68.5 44.5t-44.5 72.5t-16 100q0 29 2.5 60.5t7.5 63.5h-168l-69 -344h-22l140 698h22l-67 -334h168q12 64 36.5 126t62.5 111t91.5 79t123.5 30q49 0 89 -15t68.5 -44.5t44.5 -72.5t16 -100q0 -49 -7.5 -105t-24 -110t-42 -104t-62 -88
t-84.5 -60.5t-108 -22.5zM521 8q54 0 100 21.5t82.5 61.5t62.5 96.5t40 126.5l11 55q6 32 8 60t2 49q0 98 -50 155t-146 57q-54 0 -100 -21.5t-82.5 -61.5t-62.5 -96.5t-40 -126.5l-11 -55q-6 -32 -8 -60t-2 -49q0 -98 50 -155t146 -57z" />
    <glyph glyph-name="uni042F" unicode="&#x42f;" horiz-adv-x="610" 
d="M-20 20h59l197 269q13 18 19.5 23t15.5 7l1 3h-6q-77 0 -113.5 41.5t-36.5 105.5q0 109 55 169t153 60h270l-140 -698h-22l64 322h-210l-222 -303q-8 -11 -16.5 -15t-22.5 -4h-49zM322 678q-77 0 -120.5 -40t-55.5 -102q-5 -24 -6.5 -39t-1.5 -28q0 -27 7 -50t22.5 -40
t40.5 -27t61 -10h231l68 336h-246z" />
    <glyph glyph-name="uni0430" unicode="&#x430;" horiz-adv-x="567" 
d="M413 0q-23 0 -23 19q0 5 0.5 8t1.5 8l15 76h-3q-32 -56 -74.5 -89.5t-106.5 -33.5q-39 0 -69.5 14.5t-51.5 39.5t-31.5 59.5t-10.5 74.5q0 69 16.5 131t48 109t78 74.5t106.5 27.5q64 0 103 -29t53 -76h3l18 93h21l-97 -487h85l-4 -19h-78zM223 7q32 0 58 9t52 31
q29 24 55.5 64t37.5 93l28 142q5 25 -0.5 52t-22.5 49.5t-47 37t-75 14.5q-86 0 -141 -59t-74 -158l-7 -35q-3 -17 -4.5 -33.5t-1.5 -37.5q0 -35 8.5 -65.5t26 -53.5t44 -36.5t63.5 -13.5z" />
    <glyph glyph-name="uni0431" unicode="&#x431;" horiz-adv-x="536" 
d="M227 -12q-40 0 -71 14t-52 39t-32 57.5t-11 70.5q0 37 6 82t16.5 92.5t25.5 95.5t33.5 90.5t39 77.5t43.5 58q31 31 71.5 47t100.5 21l139 11l-4 -18l-137 -11q-48 -4 -87.5 -18t-73.5 -50.5t-64 -101.5t-60 -170h3q59 131 198 131q40 0 71 -13.5t52 -36.5t32 -55.5
t11 -69.5q0 -70 -16 -132.5t-47.5 -109t-78 -74t-108.5 -27.5zM229 7q85 0 139.5 55t74.5 157l8 40q3 17 4 34.5t1 37.5q0 33 -8.5 61.5t-26.5 49.5t-46 33t-66 12q-85 0 -139.5 -54.5t-74.5 -151.5l-8 -40q-3 -17 -4 -34.5t-1 -37.5q0 -33 8.5 -62.5t26.5 -51.5t46 -35
t66 -13z" />
    <glyph glyph-name="uni0432" unicode="&#x432;" horiz-adv-x="509" 
d="M154 506h186q53 0 81 -25.5t28 -73.5q0 -60 -27 -97t-72 -48v-2q36 -8 55.5 -32.5t19.5 -62.5q0 -80 -39.5 -122.5t-112.5 -42.5h-220zM273 19q57 0 86.5 27t38.5 71q5 22 5.5 32t0.5 16q0 37 -21 61t-72 24h-187l-46 -231h195zM304 269q47 0 78.5 25t39.5 65
q4 19 5 29.5t1 18.5q0 37 -20.5 58.5t-67.5 21.5h-169l-43 -218h176z" />
    <glyph glyph-name="uni0433" unicode="&#x433;" horiz-adv-x="416" 
d="M154 506h276l-4 -19h-255l-97 -487h-21z" />
    <glyph glyph-name="uni0434" unicode="&#x434;" horiz-adv-x="551" 
d="M225 -12q-40 0 -71 14t-52 39t-32 57.5t-11 70.5q0 67 15.5 128t46.5 107.5t77.5 74t108.5 27.5q72 0 110.5 -35.5t49.5 -89.5h3v76q0 85 -15 140t-44 84q-27 27 -61 39.5t-82 12.5q-24 0 -40 -1t-31 -3l4 19q12 2 28.5 3t40.5 1q97 0 154 -57q32 -32 49 -88t17 -148
q0 -122 -18 -211t-52 -146.5t-83.5 -85.5t-111.5 -28zM227 7q89 0 142.5 58.5t74.5 160.5l7 34q3 15 4.5 31.5t1.5 31.5q0 74 -37 119t-115 45q-85 0 -139.5 -58t-74.5 -158l-6 -30q-3 -17 -4 -34.5t-1 -37.5q0 -33 8.5 -62.5t26.5 -51.5t46 -35t66 -13z" />
    <glyph glyph-name="uni0435" unicode="&#x435;" horiz-adv-x="505" 
d="M237 -12q-85 0 -130.5 48t-45.5 151q0 69 18 129.5t50.5 105t78 70.5t100.5 26q72 0 115 -33t43 -90q0 -24 -12 -51.5t-51.5 -51t-115 -40t-202.5 -19.5q-1 -8 -2 -22t-1 -22q0 -97 38.5 -139.5t116.5 -42.5q62 0 110 33t79 92l19 -8q-38 -71 -91.5 -103.5t-116.5 -32.5z
M306 499q-42 0 -78 -17t-63.5 -48t-46.5 -73t-28 -92l-3 -17q112 2 182 15t109 33t52.5 45t13.5 50q0 46 -32.5 75t-105.5 29z" />
    <glyph glyph-name="uni0436" unicode="&#x436;" horiz-adv-x="717" 
d="M-6 19h82q12 9 25 26t26.5 46.5t26.5 72.5t25 104q8 37 12 68.5t4 66.5q0 33 -5.5 53t-14.5 31h-74l4 19h51q32 0 46 -25t14 -78q0 -30 -3.5 -61.5t-10.5 -66.5h151l46 231h21l-47 -231h151q15 69 29.5 113.5t30.5 70.5t33.5 36.5t38.5 10.5h57l-4 -19h-76
q-11 -8 -22 -22t-22 -39t-22 -63t-23 -95q-8 -37 -12 -73.5t-4 -71.5q0 -44 7 -68.5t16 -35.5h78l-4 -19h-55q-32 0 -47.5 27.5t-15.5 95.5q0 32 3.5 65.5t9.5 67.5h-151l-51 -256h-21l52 256h-151q-16 -71 -32 -120t-33.5 -79t-36.5 -43.5t-41 -13.5h-65z" />
    <glyph glyph-name="uni0437" unicode="&#x437;" horiz-adv-x="470" 
d="M201 -12q-74 0 -119 36.5t-56 93.5l19 5q12 -55 52.5 -85.5t105.5 -30.5q59 0 102 25.5t56 82.5q4 17 4 36q0 48 -34 74t-97 26h-92l4 19h90q61 0 105 23.5t55 73.5q3 14 3.5 23t0.5 15q0 40 -30 67t-99 27q-57 0 -95.5 -21t-69.5 -69l-17 9q30 47 73 73.5t111 26.5
q74 0 111 -31t37 -82q0 -62 -35 -98.5t-95 -45.5v-2q41 -9 68 -33.5t27 -74.5q0 -73 -49.5 -118t-135.5 -45z" />
    <glyph glyph-name="uni0438" unicode="&#x438;" horiz-adv-x="548" 
d="M166 506l-64 -320q-3 -17 -5 -35t-2 -28q0 -116 114 -116q34 0 68.5 13.5t64.5 48.5q17 20 35.5 50t27.5 75l62 312h21l-97 -487h85l-4 -19h-78q-23 0 -23 19q0 5 0.5 8t1.5 8l14 70h-3q-30 -57 -72.5 -87t-105.5 -30q-64 0 -98 34.5t-34 97.5q0 15 2 32.5t5 32.5l64 321
h21z" />
    <glyph glyph-name="uni0439" unicode="&#x439;" horiz-adv-x="548" 
d="M166 506l-64 -320q-3 -17 -5 -35t-2 -28q0 -116 114 -116q34 0 68.5 13.5t64.5 48.5q17 20 35.5 50t27.5 75l62 312h21l-97 -487h85l-4 -19h-78q-23 0 -23 19q0 5 0.5 8t1.5 8l14 70h-3q-30 -57 -72.5 -87t-105.5 -30q-64 0 -98 34.5t-34 97.5q0 15 2 32.5t5 32.5l64 321
h21zM334 606q-38 0 -58.5 18t-32.5 51l-16 45l16 7l23 -65q12 -20 27.5 -29t41.5 -9t45 9t42 29l47 65l15 -8l-33 -44q-25 -33 -52 -51t-65 -18z" />
    <glyph glyph-name="uni043A" unicode="&#x43a;" horiz-adv-x="502" 
d="M154 506h21l-46 -231h102l184 211q11 12 19.5 16t20.5 4h47l-4 -19h-57l-171 -196q-11 -14 -18 -18t-18 -6l-1 -3q11 -2 17.5 -9t13.5 -24l92 -212h57l-4 -19h-37q-17 0 -27 6t-17 22l-99 228h-104l-51 -256h-21z" />
    <glyph glyph-name="uni043B" unicode="&#x43b;" horiz-adv-x="525" 
d="M-44 19h57q50 50 89.5 133t63.5 204l30 150h276l-101 -506h-21l97 487h-234l-26 -131q-23 -119 -63 -206t-85 -132q-11 -11 -20 -14.5t-25 -3.5h-42z" />
    <glyph glyph-name="uni043C" unicode="&#x43c;" horiz-adv-x="659" 
d="M154 506h33l125 -329h2l257 329h35l-101 -506h-21l97 486h-3l-73 -93l-199 -255l-94 249l-38 99h-3l-97 -486h-21z" />
    <glyph glyph-name="uni043D" unicode="&#x43d;" horiz-adv-x="550" 
d="M154 506h21l-46 -231h301l46 231h21l-101 -506h-21l51 256h-301l-51 -256h-21z" />
    <glyph glyph-name="uni043E" unicode="&#x43e;" horiz-adv-x="534" 
d="M225 -12q-40 0 -71 14t-52 39t-32 57.5t-11 70.5q0 70 16 133.5t47.5 111.5t78 76t108.5 28q40 0 71 -14t52 -39t32 -58t11 -70q0 -70 -16 -133.5t-47.5 -111.5t-78 -76t-108.5 -28zM227 7q85 0 139.5 58t74.5 160l8 40q3 17 4 34.5t1 37.5q0 33 -8.5 62.5t-26.5 51.5
t-46 35t-66 13q-85 0 -139.5 -58t-74.5 -160l-8 -40q-3 -17 -4 -34.5t-1 -37.5q0 -33 8.5 -62.5t26.5 -51.5t46 -35t66 -13z" />
    <glyph glyph-name="uni043F" unicode="&#x43f;" horiz-adv-x="548" 
d="M53 0l101 506h21l-21 -105h3q30 57 72.5 87t105.5 30q64 0 98 -34.5t34 -97.5q0 -15 -2 -32.5t-5 -32.5l-60 -302h85l-4 -19h-78q-23 0 -23 19q0 5 0.5 8t1.5 8l57 285q3 17 5 35t2 28q0 116 -114 116q-34 0 -68.5 -13.5t-64.5 -48.5q-17 -20 -35.5 -50t-27.5 -75
l-62 -312h-21z" />
    <glyph glyph-name="uni0440" unicode="&#x440;" horiz-adv-x="561" 
d="M155 506h21l-22 -111h3q32 56 74.5 89.5t106.5 33.5q39 0 69.5 -14.5t51.5 -39.5t31.5 -59.5t10.5 -74.5q0 -69 -16.5 -131t-48 -109t-78 -74.5t-106.5 -27.5q-64 0 -103 29t-53 76h-3l-58 -293h-21zM252 7q86 0 140.5 59t74.5 158l7 35q3 17 4.5 33.5t1.5 37.5
q0 35 -8.5 65.5t-26 53.5t-44 36.5t-63.5 13.5q-32 0 -58 -9t-52 -31q-29 -24 -55.5 -64t-37.5 -93l-28 -142q-5 -25 0.5 -52t22.5 -49.5t47 -37t75 -14.5z" />
    <glyph glyph-name="uni0441" unicode="&#x441;" horiz-adv-x="479" 
d="M223 -12q-41 0 -71 15t-50.5 41.5t-30.5 62.5t-10 79q0 70 15.5 130.5t46 105.5t75.5 70.5t103 25.5q60 0 99.5 -32t50.5 -83l-19 -5q-11 49 -46.5 75t-86.5 26q-77 0 -131.5 -54t-71.5 -148l-9 -49q-3 -18 -4.5 -30.5t-1.5 -31.5q0 -37 8 -69.5t25.5 -57t44 -38.5
t64.5 -14q59 0 103 31.5t79 84.5l17 -9q-37 -57 -85 -91.5t-114 -34.5z" />
    <glyph glyph-name="uni0442" unicode="&#x442;" horiz-adv-x="452" 
d="M262 487h-184l4 19h389l-4 -19h-184l-97 -487h-21z" />
    <glyph glyph-name="uni0443" unicode="&#x443;" horiz-adv-x="460" 
d="M454 506h23l-388 -681q-8 -14 -16 -19.5t-22 -5.5h-75l4 19h84l100 178l-91 509h20l85 -482h3z" />
    <glyph glyph-name="uni0444" unicode="&#x444;" horiz-adv-x="740" 
d="M323 71h-3q-21 -36 -54 -59.5t-80 -23.5q-30 0 -53 11.5t-38.5 31.5t-23.5 47t-8 58q0 74 15 143t43.5 122t69.5 85t94 32q45 0 72.5 -22t35.5 -61h3l55 275h21l-55 -275h3q21 36 54 59.5t80 23.5q30 0 53 -11.5t38.5 -31.5t23.5 -47t8 -58q0 -74 -15 -143t-43.5 -122
t-69.5 -85t-94 -32q-45 0 -72.5 22t-35.5 61h-3l-54 -271h-21zM186 7q32 0 56.5 10.5t47.5 33.5q17 17 28.5 37.5t16.5 41.5l49 243q5 25 1.5 48t-16.5 40.5t-34 27.5t-50 10t-57.5 -13.5t-53 -41t-43.5 -69.5t-31 -100l-9 -44q-3 -17 -5 -45.5t-2 -49.5q0 -27 6 -50.5
t18.5 -41t32 -27.5t45.5 -10zM455 7q29 0 57.5 13.5t53 41t43.5 69.5t31 100l9 44q3 17 5 45.5t2 49.5q0 54 -25 91.5t-77 37.5q-32 0 -56.5 -10.5t-47.5 -33.5q-17 -17 -28.5 -37.5t-16.5 -41.5l-49 -243q-5 -26 -1.5 -48.5t16.5 -40t34 -27.5t50 -10z" />
    <glyph glyph-name="uni0445" unicode="&#x445;" horiz-adv-x="473" 
d="M-4 0l225 257l-133 249h22l127 -235h3l206 235h27l-224 -253l132 -253h-22l-126 239h-3l-207 -239h-27z" />
    <glyph glyph-name="uni0446" unicode="&#x446;" horiz-adv-x="568" 
d="M451 0h-57q-23 0 -23 19q0 5 0.5 8t1.5 8l14 70h-3q-30 -57 -72.5 -87t-105.5 -30q-64 0 -98 34.5t-34 97.5q0 15 2 32.5t5 32.5l64 321h21l-64 -320q-3 -17 -5 -35t-2 -28q0 -116 114 -116q34 0 68.5 13.5t64.5 48.5q17 20 35.5 50t27.5 75l62 312h21l-97 -487h85
l-32 -159h-21z" />
    <glyph glyph-name="uni0447" unicode="&#x447;" horiz-adv-x="504" 
d="M386 288h-3q-33 -50 -75 -71.5t-99 -21.5q-67 0 -101 30t-34 78q0 17 2 34.5t5 32.5l27 136h21l-27 -135q-3 -17 -5 -35t-2 -33q0 -42 30 -65.5t87 -23.5q48 0 82.5 16.5t57 40.5t34.5 51t17 49l27 135h21l-101 -506h-21z" />
    <glyph glyph-name="uni0448" unicode="&#x448;" horiz-adv-x="816" 
d="M193 -12q-57 0 -88 34.5t-31 97.5q0 15 2 32.5t5 32.5l64 321h21l-64 -320q-3 -17 -5 -35t-2 -28q0 -58 26 -87t75 -29q30 0 63 14t60 46q19 22 34 49.5t23 70.5l64 319h21l-64 -320q-3 -17 -5 -35t-2 -28q0 -58 26 -87t75 -29q29 0 60 14.5t59 47.5q17 20 35.5 50
t27.5 75l62 312h21l-97 -487h85l-4 -19h-78q-23 0 -23 19q0 5 0.5 8t1.5 8l14 70h-3q-27 -53 -67 -85t-97 -32t-87 34t-32 90h-3q-26 -57 -69.5 -90.5t-103.5 -33.5z" />
    <glyph glyph-name="uni0449" unicode="&#x449;" horiz-adv-x="836" 
d="M719 0h-57q-23 0 -23 19q0 5 0.5 8t1.5 8l14 70h-3q-27 -53 -67 -85t-97 -32t-87 34t-32 90h-3q-26 -57 -69.5 -90.5t-103.5 -33.5q-57 0 -88 34.5t-31 97.5q0 15 2 32.5t5 32.5l64 321h21l-64 -320q-3 -17 -5 -35t-2 -28q0 -58 26 -87t75 -29q30 0 63 14t60 46
q19 22 34 49.5t23 70.5l64 319h21l-64 -320q-3 -17 -5 -35t-2 -28q0 -58 26 -87t75 -29q29 0 60 14.5t59 47.5q17 20 35.5 50t27.5 75l62 312h21l-97 -487h85l-32 -159h-21z" />
    <glyph glyph-name="uni044A" unicode="&#x44a;" horiz-adv-x="549" 
d="M220 487h-142l4 19h163l-42 -213h138q75 0 106.5 -28.5t31.5 -82.5q0 -28 -7.5 -60t-27 -59t-54.5 -45t-90 -18h-177zM302 19q36 0 62 9t44 23.5t28.5 33.5t14.5 40q3 15 5 30t2 27q0 47 -26 69.5t-93 22.5h-140l-51 -255h154z" />
    <glyph glyph-name="uni044B" unicode="&#x44b;" horiz-adv-x="651" 
d="M154 506h21l-42 -213h130q75 0 106.5 -28.5t31.5 -82.5q0 -28 -7.5 -60t-27 -59t-54.5 -45t-90 -18h-169zM224 19q36 0 62 9t44 23.5t28.5 33.5t14.5 40q3 15 5 30t2 27q0 47 -26 69.5t-93 22.5h-132l-51 -255h146zM577 506h21l-101 -506h-21z" />
    <glyph glyph-name="uni044C" unicode="&#x44c;" horiz-adv-x="479" 
d="M154 506h21l-42 -213h138q75 0 106.5 -28.5t31.5 -82.5q0 -28 -7.5 -60t-27 -59t-54.5 -45t-90 -18h-177zM232 19q36 0 62 9t44 23.5t28.5 33.5t14.5 40q3 15 5 30t2 27q0 47 -26 69.5t-93 22.5h-140l-51 -255h154z" />
    <glyph glyph-name="uni044D" unicode="&#x44d;" horiz-adv-x="489" 
d="M149 265h254q2 15 3 28t1 27q0 37 -8 69.5t-25 57t-44 38.5t-64 14q-55 0 -92 -21t-68 -69l-17 9q30 48 71 74t106 26q40 0 70.5 -15t51 -41.5t30.5 -62.5t10 -79q0 -70 -15.5 -130.5t-46 -105.5t-75.5 -70.5t-103 -25.5q-64 0 -107.5 36t-54.5 94l19 5q12 -57 51 -86.5
t94 -29.5q77 0 131.5 54t71.5 148l7 37h-255z" />
    <glyph glyph-name="uni044E" unicode="&#x44e;" horiz-adv-x="725" 
d="M416 -12q-40 0 -71 14t-52 39t-32 57.5t-11 70.5q0 23 2 46.5t5 40.5h-132l-51 -256h-21l101 506h21l-46 -231h131q10 52 30 96.5t50 77t70 51t90 18.5q40 0 71 -14t52 -39t32 -58t11 -70q0 -70 -16 -133.5t-47.5 -111.5t-78 -76t-108.5 -28zM418 7q85 0 139.5 58
t74.5 160l8 40q3 17 4 34.5t1 37.5q0 33 -8.5 62.5t-26.5 51.5t-46 35t-66 13q-85 0 -139.5 -58t-74.5 -160l-8 -40q-3 -17 -4 -34.5t-1 -37.5q0 -33 8.5 -62.5t26.5 -51.5t46 -35t66 -13z" />
    <glyph glyph-name="uni044F" unicode="&#x44f;" horiz-adv-x="496" 
d="M-12 19h57l136 173q7 9 12 12.5t13 5.5l1 3q-66 3 -95 31t-29 80q0 28 7.5 60t27 59t54.5 45t90 18h177l-101 -506h-21l42 213h-136l-151 -192q-9 -12 -19 -16.5t-22 -4.5h-47zM260 487q-36 0 -62 -9t-44 -23.5t-28.5 -33.5t-14.5 -40q-3 -15 -5 -30t-2 -27
q0 -47 26 -69.5t93 -22.5h140l51 255h-154z" />
    <glyph glyph-name="uni0450" unicode="&#x450;" horiz-adv-x="505" 
d="M237 -12q-85 0 -130.5 48t-45.5 151q0 69 18 129.5t50.5 105t78 70.5t100.5 26q72 0 115 -33t43 -90q0 -24 -12 -51.5t-51.5 -51t-115 -40t-202.5 -19.5q-1 -8 -2 -22t-1 -22q0 -97 38.5 -139.5t116.5 -42.5q62 0 110 33t79 92l19 -8q-38 -71 -91.5 -103.5t-116.5 -32.5z
M306 499q-42 0 -78 -17t-63.5 -48t-46.5 -73t-28 -92l-3 -17q112 2 182 15t109 33t52.5 45t13.5 50q0 46 -32.5 75t-105.5 29zM252 740l19 11l81 -155l-16 -9z" />
    <glyph glyph-name="uni0451" unicode="&#x451;" horiz-adv-x="505" 
d="M237 -12q-85 0 -130.5 48t-45.5 151q0 69 18 129.5t50.5 105t78 70.5t100.5 26q72 0 115 -33t43 -90q0 -24 -12 -51.5t-51.5 -51t-115 -40t-202.5 -19.5q-1 -8 -2 -22t-1 -22q0 -97 38.5 -139.5t116.5 -42.5q62 0 110 33t79 92l19 -8q-38 -71 -91.5 -103.5t-116.5 -32.5z
M306 499q-42 0 -78 -17t-63.5 -48t-46.5 -73t-28 -92l-3 -17q112 2 182 15t109 33t52.5 45t13.5 50q0 46 -32.5 75t-105.5 29zM248 642q-12 0 -16 5.5t-4 11.5t3 15q2 7 6.5 12t16.5 5t16 -5.5t4 -11.5t-3 -15q-2 -7 -6.5 -12t-16.5 -5zM430 642q-12 0 -16 5.5t-4 11.5t3 15
q2 7 6.5 12t16.5 5t16 -5.5t4 -11.5t-3 -15q-2 -7 -6.5 -12t-16.5 -5z" />
    <glyph glyph-name="uni0452" unicode="&#x452;" horiz-adv-x="555" 
d="M258 -181h85l100 501q3 17 5 35t2 28q0 116 -114 116q-34 0 -68.5 -13.5t-64.5 -48.5q-17 -20 -35.5 -50t-27.5 -75l-62 -312h-21l125 629h-67l4 18h67l18 93h21l-18 -93h162l-4 -18h-162l-45 -228h3q30 57 72.5 87t105.5 30q64 0 98 -34.5t34 -97.5q0 -15 -2 -32.5
t-5 -32.5l-97 -488q-4 -20 -12 -26.5t-29 -6.5h-72z" />
    <glyph glyph-name="uni0453" unicode="&#x453;" horiz-adv-x="416" 
d="M154 506h276l-4 -19h-255l-97 -487h-21zM282 587l-13 11l143 153l17 -13z" />
    <glyph glyph-name="uni0454" unicode="&#x454;" horiz-adv-x="489" 
d="M223 -12q-41 0 -71 15t-50.5 41.5t-30.5 62.5t-10 79q0 70 15.5 130.5t46 105.5t75.5 70.5t103 25.5q60 0 99.5 -32t50.5 -83l-19 -5q-11 49 -46.5 75t-86.5 26q-77 0 -131.5 -54t-71.5 -148l-6 -32h262l-4 -19h-261q-3 -17 -4 -31t-1 -29q0 -37 8 -69.5t25 -57
t43.5 -38.5t64.5 -14q59 0 103 31.5t79 84.5l17 -9q-37 -57 -85 -91.5t-114 -34.5z" />
    <glyph glyph-name="uni0455" unicode="&#x455;" horiz-adv-x="448" 
d="M199 -12q-63 0 -108.5 25t-77.5 73l18 12q57 -91 168 -91q70 0 112.5 34t42.5 97q0 24 -7 40.5t-20 28.5t-32 20t-44 14l-50 13q-26 7 -47 16.5t-36.5 23.5t-24 34.5t-8.5 49.5q0 35 13.5 61t36 43.5t53 26.5t64.5 9q33 0 58 -6.5t44.5 -17.5t34 -25.5t25.5 -29.5
l-16 -14q-21 30 -54 52t-93 22q-66 0 -105.5 -31t-39.5 -90q0 -47 25.5 -69.5t75.5 -35.5l50 -13q25 -7 47 -16t37.5 -22.5t24.5 -33.5t9 -49q0 -38 -13.5 -66t-37.5 -47t-56 -28.5t-69 -9.5z" />
    <glyph glyph-name="uni0456" unicode="&#x456;" horiz-adv-x="235" 
d="M200 673q-11 0 -15.5 5t-4.5 11q0 3 0.5 6t1.5 8q2 9 8 14t19 5q11 0 15.5 -5t4.5 -11q0 -3 -0.5 -6t-1.5 -8q-2 -9 -8 -14t-19 -5zM81 0q-23 0 -23 19q0 5 0.5 8t1.5 8l95 471h21l-98 -487h85l-4 -19h-78z" />
    <glyph glyph-name="uni0457" unicode="&#x457;" horiz-adv-x="235" 
d="M81 0q-23 0 -23 19q0 5 0.5 8t1.5 8l95 471h21l-98 -487h85l-4 -19h-78zM104 642q-12 0 -16 5.5t-4 11.5t3 15q2 7 6.5 12t16.5 5t16 -5.5t4 -11.5t-3 -15q-2 -7 -6.5 -12t-16.5 -5zM286 642q-12 0 -16 5.5t-4 11.5t3 15q2 7 6.5 12t16.5 5t16 -5.5t4 -11.5t-3 -15
q-2 -7 -6.5 -12t-16.5 -5z" />
    <glyph glyph-name="uni0458" unicode="&#x458;" horiz-adv-x="229" 
d="M154 506h21l-134 -673q-4 -20 -12 -26.5t-29 -6.5h-72l4 19h85zM199 673q-11 0 -15.5 5t-4.5 11q0 3 0.5 6t1.5 8q2 9 8 14t19 5q11 0 15.5 -5t4.5 -11q0 -3 -0.5 -6t-1.5 -8q-2 -9 -8 -14t-19 -5z" />
    <glyph glyph-name="uni0459" unicode="&#x459;" horiz-adv-x="735" 
d="M-44 19h57q50 50 89.5 133t63.5 204l30 150h243l-42 -213h130q75 0 106.5 -28.5t31.5 -82.5q0 -28 -7.5 -60t-27 -59t-54.5 -45t-90 -18h-169l97 487h-201l-26 -131q-23 -119 -63 -206t-85 -132q-11 -11 -20 -14.5t-25 -3.5h-42zM488 19q36 0 62 9t44 23.5t28.5 33.5
t14.5 40q3 15 5 30t2 27q0 47 -26 69.5t-93 22.5h-132l-51 -255h146z" />
    <glyph glyph-name="uni045A" unicode="&#x45a;" horiz-adv-x="763" 
d="M154 506h21l-44 -222h271l44 222h21l-44 -222h132q75 0 106.5 -28.5t31.5 -78.5q0 -26 -7.5 -56.5t-27 -57.5t-54.5 -45t-90 -18h-169l53 265h-271l-53 -265h-21zM516 19q36 0 62 9t44 23.5t28.5 33.5t14.5 40q7 34 7 52q0 42 -26 65t-93 23h-134l-49 -246h146z" />
    <glyph glyph-name="uni045B" unicode="&#x45b;" horiz-adv-x="552" 
d="M182 629h-67l4 18h67l18 93h21l-18 -93h162l-4 -18h-162l-45 -228h3q30 57 72.5 87t105.5 30q64 0 98 -34.5t34 -97.5q0 -15 -2 -32.5t-5 -32.5l-60 -302h85l-4 -19h-78q-23 0 -23 19q0 5 0.5 8t1.5 8l57 285q3 17 5 35t2 28q0 116 -114 116q-34 0 -68.5 -13.5
t-64.5 -48.5q-17 -20 -35.5 -50t-27.5 -75l-62 -312h-21z" />
    <glyph glyph-name="uni045C" unicode="&#x45c;" horiz-adv-x="502" 
d="M154 506h21l-46 -231h102l184 211q11 12 19.5 16t20.5 4h47l-4 -19h-57l-171 -196q-11 -14 -18 -18t-18 -6l-1 -3q11 -2 17.5 -9t13.5 -24l92 -212h57l-4 -19h-37q-17 0 -27 6t-17 22l-99 228h-104l-51 -256h-21zM287 587l-13 11l143 153l17 -13z" />
    <glyph glyph-name="uni045D" unicode="&#x45d;" horiz-adv-x="548" 
d="M166 506l-64 -320q-3 -17 -5 -35t-2 -28q0 -116 114 -116q34 0 68.5 13.5t64.5 48.5q17 20 35.5 50t27.5 75l62 312h21l-97 -487h85l-4 -19h-78q-23 0 -23 19q0 5 0.5 8t1.5 8l14 70h-3q-30 -57 -72.5 -87t-105.5 -30q-64 0 -98 34.5t-34 97.5q0 15 2 32.5t5 32.5l64 321
h21zM255 740l19 11l81 -155l-16 -9z" />
    <glyph glyph-name="uni045E" unicode="&#x45e;" horiz-adv-x="460" 
d="M454 506h23l-388 -681q-8 -14 -16 -19.5t-22 -5.5h-75l4 19h84l100 178l-91 509h20l85 -482h3zM290 606q-38 0 -58.5 18t-32.5 51l-16 45l16 7l23 -65q12 -20 27.5 -29t41.5 -9t45 9t42 29l47 65l15 -8l-33 -44q-25 -33 -52 -51t-65 -18z" />
    <glyph glyph-name="uni045F" unicode="&#x45f;" horiz-adv-x="548" 
d="M206 -12q-64 0 -98 34.5t-34 97.5q0 15 2 32.5t5 32.5l64 321h21l-64 -320q-3 -17 -5 -35t-2 -28q0 -116 114 -116q34 0 68.5 13.5t64.5 48.5q17 20 35.5 50t27.5 75l62 312h21l-97 -487h85l-4 -19h-78q-23 0 -23 19q0 5 0.5 8t1.5 8l14 70h-3q-30 -57 -72.5 -87
t-105.5 -30zM192 -50h21l-30 -150h-21z" />
    <glyph glyph-name="uni0472" unicode="&#x472;" horiz-adv-x="658" 
d="M291 -12q-50 0 -90.5 15t-70 44.5t-45.5 72.5t-16 100q0 49 7.5 105t24 110t43 104t63 88t85 60.5t109.5 22.5q49 0 90 -15t70.5 -44.5t45.5 -72.5t16 -100q0 -49 -7.5 -105t-24 -110t-43 -104t-63 -88t-85 -60.5t-109.5 -22.5zM291 8q54 0 101 21.5t84 61.5t63.5 96.5
t40.5 126.5l6 30h-482l-3 -15q-6 -32 -8 -60t-2 -49q0 -98 51.5 -155t148.5 -57zM108 364h482l1 5q6 32 8 60t2 49q0 98 -51.5 155t-148.5 57q-54 0 -101 -21.5t-84 -61.5t-63.5 -96.5t-40.5 -126.5z" />
    <glyph glyph-name="uni0473" unicode="&#x473;" horiz-adv-x="534" 
d="M225 -12q-40 0 -71 14t-52 39t-32 57.5t-11 70.5q0 70 16 133.5t47.5 111.5t78 76t108.5 28q40 0 71 -14t52 -39t32 -58t11 -70q0 -70 -16 -133.5t-47.5 -111.5t-78 -76t-108.5 -28zM227 7q85 0 139.5 57.5t74.5 159.5l5 25h-359l-2 -10q-3 -17 -4 -33.5t-1 -36.5
q0 -33 8.5 -62.5t26.5 -51.5t46 -35t66 -13zM90 268h359q3 16 4 33t1 36q0 33 -8.5 62.5t-26.5 51.5t-46 35t-66 13q-85 0 -139.5 -57.5t-74.5 -158.5z" />
    <glyph glyph-name="uni0490" unicode="&#x490;" horiz-adv-x="486" 
d="M194 698h318l30 150h22l-34 -170h-318l-136 -678h-22z" />
    <glyph glyph-name="uni0491" unicode="&#x491;" horiz-adv-x="416" 
d="M154 506h254l28 140h21l-31 -159h-255l-97 -487h-21z" />
    <glyph glyph-name="uni0492" unicode="&#x492;" horiz-adv-x="506" 
d="M147 365h-100l4 19h100l63 314h340l-4 -20h-318l-59 -294h216l-4 -19h-216l-73 -365h-22z" />
    <glyph glyph-name="uni0493" unicode="&#x493;" horiz-adv-x="425" 
d="M113 257h-80l4 18h80l46 231h276l-4 -19h-255l-42 -212h178l-4 -18h-178l-51 -257h-21z" />
    <glyph glyph-name="uni0494" unicode="&#x494;" horiz-adv-x="597" 
d="M268 -144h84q19 7 36.5 19.5t32 34t26.5 53.5t22 77l8 38q9 45 14 75.5t5 57.5q0 75 -42.5 114t-137.5 39q-47 0 -87.5 -7t-85.5 -22l-67 -335h-22l140 698h340l-4 -20h-318l-65 -323h2q38 14 81 21.5t90 7.5q103 0 150.5 -44.5t47.5 -128.5q0 -29 -4.5 -59t-15.5 -79
l-8 -38q-12 -55 -28.5 -93t-36.5 -61.5t-44 -34t-51 -10.5h-66z" />
    <glyph glyph-name="uni0495" unicode="&#x495;" horiz-adv-x="509" 
d="M211 -181h85q23 17 43 59t36 121l20 101q3 17 5 35t2 33q0 42 -30 65.5t-87 23.5q-48 0 -82.5 -16.5t-57 -40.5t-35 -51t-16.5 -49l-20 -100h-21l101 506h276l-4 -19h-255l-60 -304h3q33 50 75 71.5t99 21.5q67 0 101 -30t34 -78q0 -17 -2 -34.5t-5 -32.5l-22 -111
q-12 -58 -25.5 -95t-28.5 -58t-31.5 -29t-34.5 -8h-67z" />
    <glyph glyph-name="uni0496" unicode="&#x496;" horiz-adv-x="875" 
d="M761 0h-39q-22 0 -29 22l-110 322h-131l-69 -344h-22l69 344h-131l-238 -325q-8 -11 -16.5 -15t-22.5 -4h-47l4 20h57l227 310q9 12 16 16t20 6v2q-17 3 -25 29l-93 295h-59l4 20h49q21 0 28 -22l100 -312h131l67 334h22l-67 -334h131l221 310q10 14 19 19t23 5h49
l-4 -20h-59l-209 -293q-12 -17 -19.5 -23t-19.5 -8l-1 -2q9 -2 14.5 -7.5t10.5 -20.5l104 -304h71l-34 -170h-22z" />
    <glyph glyph-name="uni0497" unicode="&#x497;" horiz-adv-x="721" 
d="M604 0h-34q-32 0 -47.5 27.5t-15.5 95.5q0 32 3.5 65.5t9.5 67.5h-151l-51 -256h-21l52 256h-151q-16 -71 -32 -120t-33.5 -79t-36.5 -43.5t-41 -13.5h-65l4 19h82q12 9 25 26t26.5 46.5t26.5 72.5t25 104q8 37 12 68.5t4 66.5q0 33 -5.5 53t-14.5 31h-74l4 19h51
q32 0 46 -25t14 -78q0 -30 -3.5 -61.5t-10.5 -66.5h151l46 231h21l-47 -231h151q15 69 29.5 113.5t30.5 70.5t33.5 36.5t38.5 10.5h57l-4 -19h-76q-11 -8 -22 -22t-22 -39t-22 -63t-23 -95q-8 -37 -12 -73.5t-4 -71.5q0 -44 7 -68.5t16 -35.5h78l-32 -159h-21z" />
    <glyph glyph-name="uni0498" unicode="&#x498;" horiz-adv-x="556" 
d="M228 -12q-72 2 -124 28t-82 79l18 12q30 -51 78 -75t123 -24q42 0 78 10t63.5 29t45.5 44.5t24 57.5q4 20 5.5 34.5t1.5 21.5q0 62 -39 100.5t-118 38.5h-110l4 20h109q81 0 133.5 39t66.5 107q6 30 6 47q0 62 -42 97.5t-114 35.5q-74 0 -120.5 -23.5t-77.5 -76.5l-18 9
q29 54 82.5 82.5t136.5 28.5q37 0 69.5 -10.5t55.5 -30t36.5 -48t13.5 -64.5q0 -42 -13 -77t-36 -61t-54.5 -42.5t-67.5 -22.5l-1 -3q52 -7 86 -46t34 -100q0 -51 -17 -91t-47.5 -67.5t-73 -42.5t-93.5 -16l-28 -138h-22z" />
    <glyph glyph-name="uni0499" unicode="&#x499;" horiz-adv-x="470" 
d="M192 -12q-69 3 -112 39t-54 91l19 5q12 -55 52.5 -85.5t105.5 -30.5q59 0 102 25.5t56 82.5q4 17 4 36q0 48 -34 74t-97 26h-92l4 19h90q61 0 105 23.5t55 73.5q3 14 3.5 23t0.5 15q0 40 -30 67t-99 27q-57 0 -95.5 -21t-69.5 -69l-17 9q30 47 73 73.5t111 26.5
q74 0 111 -31t37 -82q0 -62 -35 -98.5t-95 -45.5v-2q41 -9 68 -33.5t27 -74.5q0 -71 -46 -115t-127 -48l-26 -128h-21z" />
    <glyph glyph-name="uni049A" unicode="&#x49a;" horiz-adv-x="615" 
d="M500 0h-39q-11 0 -18 4.5t-12 16.5l-129 323h-158l-69 -344h-22l140 698h22l-67 -334h158l245 315q8 11 16.5 15t22.5 4h49l-4 -20h-59l-228 -293q-11 -15 -20.5 -22t-20.5 -9l-1 -2q10 -2 15.5 -7t10.5 -17l123 -308h71l-34 -170h-22z" />
    <glyph glyph-name="uni049B" unicode="&#x49b;" horiz-adv-x="510" 
d="M403 0h-31q-17 0 -27 6t-17 22l-99 228h-104l-51 -256h-21l101 506h21l-46 -231h102l184 211q11 12 19.5 16t20.5 4h47l-4 -19h-57l-171 -196q-11 -14 -18 -18t-18 -6l-1 -3q11 -2 17.5 -9t13.5 -24l92 -212h72l-32 -159h-21z" />
    <glyph glyph-name="uni049C" unicode="&#x49c;" horiz-adv-x="618" 
d="M194 698h22l-67 -334h83l35 173h18l-34 -173h66l245 315q8 11 16.5 15t22.5 4h49l-4 -20h-59l-228 -293q-11 -15 -20.5 -22t-20.5 -9l-1 -2q10 -2 15.5 -7t10.5 -17l123 -308h59l-4 -20h-49q-11 0 -18 4.5t-12 16.5l-129 323h-66l-34 -171h-19l34 171h-83l-69 -344h-22z
" />
    <glyph glyph-name="uni049D" unicode="&#x49d;" horiz-adv-x="522" 
d="M154 506h21l-46 -231h55l26 130h21l-26 -130h46l184 211q11 12 19.5 16t20.5 4h47l-4 -19h-57l-171 -196q-11 -14 -18 -18t-18 -6l-1 -3q11 -2 17.5 -9t13.5 -24l92 -212h57l-4 -19h-37q-17 0 -27 6t-17 22l-99 228h-48l-26 -131h-21l26 131h-55l-51 -256h-21z" />
    <glyph glyph-name="uni04A0" unicode="&#x4a0;" horiz-adv-x="722" 
d="M304 678h-205l4 20h227l-67 -334h158l245 315q8 11 16.5 15t22.5 4h49l-4 -20h-59l-228 -293q-11 -15 -20.5 -22t-20.5 -9l-1 -2q10 -2 15.5 -7t10.5 -17l123 -308h59l-4 -20h-49q-11 0 -18 4.5t-12 16.5l-129 323h-158l-69 -344h-22z" />
    <glyph glyph-name="uni04A1" unicode="&#x4a1;" horiz-adv-x="570" 
d="M218 487h-140l4 19h161l-46 -231h102l184 211q11 12 19.5 16t20.5 4h47l-4 -19h-57l-171 -196q-11 -14 -18 -18t-18 -6l-1 -3q11 -2 17.5 -9t13.5 -24l92 -212h57l-4 -19h-37q-17 0 -27 6t-17 22l-99 228h-104l-51 -256h-21z" />
    <glyph glyph-name="uni04A2" unicode="&#x4a2;" horiz-adv-x="705" 
d="M587 0h-85l69 344h-426l-69 -344h-22l140 698h22l-67 -334h426l67 334h22l-136 -678h85l-34 -170h-22z" />
    <glyph glyph-name="uni04A3" unicode="&#x4a3;" horiz-adv-x="577" 
d="M460 0h-85l51 256h-301l-51 -256h-21l101 506h21l-46 -231h301l46 231h21l-97 -487h85l-32 -159h-21z" />
    <glyph glyph-name="uni04A4" unicode="&#x4a4;" horiz-adv-x="909" 
d="M194 698h22l-67 -334h401l67 334h340l-4 -20h-318l-136 -678h-22l69 344h-401l-69 -344h-22z" />
    <glyph glyph-name="uni04A5" unicode="&#x4a5;" horiz-adv-x="708" 
d="M154 506h21l-46 -231h271l46 231h276l-4 -19h-255l-97 -487h-21l51 256h-271l-51 -256h-21z" />
    <glyph glyph-name="uni04AA" unicode="&#x4aa;" horiz-adv-x="595" 
d="M246 -9q-80 14 -128.5 70.5t-48.5 158.5q0 49 7.5 105t24.5 110t42.5 104t62.5 88t84.5 60.5t107.5 22.5q84 0 129 -38t62 -103l-21 -5q-8 28 -21 51.5t-33.5 40t-49 25.5t-67.5 9q-53 0 -99 -21.5t-83 -61.5t-63 -96.5t-40 -126.5l-11 -55q-6 -32 -8 -60t-2 -49
q0 -98 51.5 -155t148.5 -57q70 0 119.5 35.5t89.5 107.5l19 -10q-47 -82 -101 -117.5t-127 -35.5h-8.5t-14.5 1l-28 -139h-22z" />
    </font>
</defs>
</svg>
